<?xml version="1.0" encoding="UTF-8" standalone="no"?>
<!-- Created with Inkscape (http://www.inkscape.org/) -->

<svg
   xmlns:ns0="http://www.iki.fi/pav/software/textext/"
   xmlns:dc="http://purl.org/dc/elements/1.1/"
   xmlns:cc="http://creativecommons.org/ns#"
   xmlns:rdf="http://www.w3.org/1999/02/22-rdf-syntax-ns#"
   xmlns:svg="http://www.w3.org/2000/svg"
   xmlns="http://www.w3.org/2000/svg"
   xmlns:sodipodi="http://sodipodi.sourceforge.net/DTD/sodipodi-0.dtd"
   xmlns:inkscape="http://www.inkscape.org/namespaces/inkscape"
   sodipodi:docname="ppoly-div.svg"
   inkscape:version="0.48.4 r9939"
   version="1.1"
   id="svg2"
   height="1052.3622047"
   width="744.09448819">
  <sodipodi:namedview
     id="base"
     pagecolor="#ffffff"
     bordercolor="#666666"
     borderopacity="1.0"
     inkscape:pageopacity="0.0"
     inkscape:pageshadow="2"
     inkscape:zoom="4.02"
     inkscape:cx="169.21041"
     inkscape:cy="939.73859"
     inkscape:document-units="px"
     inkscape:current-layer="layer1"
     showgrid="true"
     inkscape:window-width="1920"
     inkscape:window-height="1013"
     inkscape:window-x="1678"
     inkscape:window-y="258"
     inkscape:window-maximized="1">
    <inkscape:grid
       id="grid4807"
       type="xygrid"
       snapvisiblegridlinesonly="true"
       enabled="true"
       visible="true"
       empspacing="5" />
  </sodipodi:namedview>
  <defs
     id="defs4">
    <marker
       style="overflow:visible;"
       id="Arrow1Send"
       refX="0.0"
       refY="0.0"
       orient="auto"
       inkscape:stockid="Arrow1Send">
      <path
         transform="scale(0.2) rotate(180) translate(6,0)"
         style="fill-rule:evenodd;stroke:#000000;stroke-width:1.0pt;"
         d="M 0.0,0.0 L 5.0,-5.0 L -12.5,0.0 L 5.0,5.0 L 0.0,0.0 z "
         id="path4033" />
    </marker>
    <marker
       style="overflow:visible"
       id="Arrow1Sstart"
       refX="0.0"
       refY="0.0"
       orient="auto"
       inkscape:stockid="Arrow1Sstart">
      <path
         transform="scale(0.2) translate(6,0)"
         style="fill-rule:evenodd;stroke:#000000;stroke-width:1.0pt"
         d="M 0.0,0.0 L 5.0,-5.0 L -12.5,0.0 L 5.0,5.0 L 0.0,0.0 z "
         id="path4030" />
    </marker>
    <marker
       style="overflow:visible;"
       id="Arrow2Send"
       refX="0.0"
       refY="0.0"
       orient="auto"
       inkscape:stockid="Arrow2Send">
      <path
         transform="scale(0.3) rotate(180) translate(-2.3,0)"
         d="M 8.7185878,4.0337352 L -2.2072895,0.016013256 L 8.7185884,-4.0017078 C 6.9730900,-1.6296469 6.9831476,1.6157441 8.7185878,4.0337352 z "
         style="fill-rule:evenodd;stroke-width:0.62500000;stroke-linejoin:round;"
         id="path4051" />
    </marker>
    <marker
       style="overflow:visible"
       id="Arrow2Sstart"
       refX="0.0"
       refY="0.0"
       orient="auto"
       inkscape:stockid="Arrow2Sstart">
      <path
         transform="scale(0.3) translate(-2.3,0)"
         d="M 8.7185878,4.0337352 L -2.2072895,0.016013256 L 8.7185884,-4.0017078 C 6.9730900,-1.6296469 6.9831476,1.6157441 8.7185878,4.0337352 z "
         style="fill-rule:evenodd;stroke-width:0.62500000;stroke-linejoin:round"
         id="path4048" />
    </marker>
  </defs>
  <metadata
     id="metadata7">
    <rdf:RDF>
      <cc:Work
         rdf:about="">
        <dc:format>image/svg+xml</dc:format>
        <dc:type
           rdf:resource="http://purl.org/dc/dcmitype/StillImage" />
        <dc:title />
      </cc:Work>
    </rdf:RDF>
  </metadata>
  <g
     inkscape:label="Layer 1"
     inkscape:groupmode="layer"
     id="layer1">
    <rect
       style="color:#000000;fill:#2b95ed;fill-opacity:0.0892857;stroke:none;stroke-width:1.44000006;marker:none;visibility:visible;display:inline;overflow:visible;enable-background:accumulate"
       id="rect3881"
       width="300"
       height="140"
       x="19.210415"
       y="32.362183"
       ry="7.0312501e-07" />
    <path
       id="path3894"
       title="1/(2*sin(2*x)**2+1)"
       d="m 19.210415,143.10045 c 0.502513,0.55835 1.005025,0.14678 1.507538,0.69951 0.502512,0.55274 1.005025,0.11197 1.507537,0.65909 0.502513,0.54713 1.005026,0.0782 1.507538,0.61971 0.502513,0.54151 1.005025,0.0454 1.507538,0.5813 0.502512,0.5359 1.005025,0.0135 1.507538,0.54382 0.502512,0.53029 1.005025,-0.0175 1.507537,0.50721 0.502513,0.52468 1.005025,-0.0477 1.507538,0.47141 0.502512,0.51907 1.005025,-0.0771 1.507538,0.43637 0.502512,0.51345 1.005025,-0.10582 1.507537,0.40203 0.502513,0.50784 1.005025,-0.13391 1.507538,0.36833 0.502513,0.50223 1.005025,-0.16139 1.507538,0.33523 0.502512,0.49662 1.005025,-0.18834 1.507537,0.30266 0.502513,0.49101 1.005025,-0.2148 1.507538,0.2706 0.502513,0.4854 1.005025,-0.24082 1.507538,0.23896 0.502512,0.47979 1.005025,-0.26646 1.507537,0.20772 0.502513,0.47417 1.005026,-0.29177 1.507538,0.17679 0.502513,0.46857 1.005025,-0.31678 1.507538,0.14617 0.502512,0.46296 1.005025,-0.34156 1.507537,0.11578 0.502513,0.45734 1.005026,-0.36615 1.507538,0.0856 0.502513,0.45173 1.005025,-0.39061 1.507538,0.0555 0.502512,0.44611 1.005025,-0.41498 1.507538,0.0255 0.502512,0.4405 1.005025,-0.4393 1.507537,-0.004 0.502513,0.43489 1.005025,-0.46363 1.507538,-0.0343 0.502512,0.42928 1.005025,-0.48801 1.507538,-0.0643 0.502512,0.42367 1.005025,-0.51251 1.507537,-0.0945 0.502513,0.41806 1.005025,-0.53715 1.507538,-0.1247 0.502513,0.41245 1.005025,-0.56199 1.507538,-0.15515 0.502512,0.40683 1.005025,-0.58709 1.507537,-0.18587 0.502513,0.40123 1.005026,-0.61248 1.507538,-0.21687 0.502513,0.39562 1.005025,-0.63823 1.507538,-0.24822 0.502512,0.39 1.005025,-0.66438 1.507537,-0.27999 0.502513,0.38439 1.005026,-0.69097 1.507538,-0.3122 0.502513,0.37878 1.005025,-0.71807 1.507538,-0.34491 0.502512,0.37317 1.005025,-0.74573 1.507538,-0.37818 0.502512,0.36756 1.005025,-0.774 1.507537,-0.41206 0.502513,0.36194 1.005025,-0.80293 1.507538,-0.4466 0.502512,0.35633 1.005025,-0.83259 1.507538,-0.48187 0.502512,0.35072 1.005025,-0.863 1.507537,-0.51789 0.502513,0.34511 1.005025,-0.89426 1.507538,-0.55476 0.502513,0.3395 1.005025,-0.92639 1.507538,-0.5925 0.502512,0.33388 1.005025,-0.95946 1.507537,-0.63119 0.502513,0.32828 1.005025,-0.99353 1.507538,-0.67087 0.502513,0.32266 1.005025,-1.02866 1.507538,-0.71161 0.502512,0.31705 1.005025,-1.06491 1.507537,-0.75347 0.502513,0.31144 1.005026,-1.10231 1.507538,-0.79648 0.502513,0.30583 1.005025,-1.14095 1.507538,-0.84073 0.502512,0.30022 1.005025,-1.18086 1.507537,-0.88626 0.502513,0.29461 1.005026,-1.22211 1.507538,-0.93311 0.502513,0.28899 1.005025,-1.26475 1.507538,-0.98137 0.502509,0.28339 1.005028,-1.30881 1.507537,-1.03103 0.50251,0.27777 1.00502,-1.35436 1.50754,-1.0822 0.50251,0.27216 1.00502,-1.40142 1.50753,-1.13487 0.50252,0.26655 1.00503,-1.45004 1.50754,-1.1891 0.50251,0.26093 1.005031,-1.50024 1.507541,-1.24492 0.50251,0.25533 1.00502,-1.55204 1.50754,-1.30232 0.50251,0.24971 1.00502,-1.60546 1.50753,-1.36135 0.50252,0.2441 1.00503,-1.66048 1.50754,-1.42199 0.50251,0.23849 1.00503,-1.71709 1.50754,-1.48421 0.50251,0.23287 1.00503,-1.77528 1.50754,-1.54801 0.50251,0.22726 1.00502,-1.83497 1.50754,-1.61331 0.50251,0.22165 1.00502,-1.8961 1.50753,-1.68006 0.50252,0.21605 1.00503,-1.95857 1.50754,-1.74814 0.50251,0.21043 1.00503,-2.02226 1.50754,-1.81744 0.50251,0.20482 1.00502,-2.08701 1.50754,-1.8878 0.50251,0.19921 1.00502,-2.15261 1.50753,-1.95901 0.50252,0.1936 1.00503,-2.21884 1.50754,-2.03086 0.50251,0.18799 1.00503,-2.2854 1.50754,-2.10303 0.50251,0.18238 1.00502,-2.35197 1.50754,-2.17521 0.50251,0.17677 1.00502,-2.41814 1.50753,-2.24699 0.50252,0.17115 1.00503,-2.48347 1.50754,-2.31793 0.50251,0.16554 1.00503,-2.54743 1.50754,-2.3875 0.50251,0.15992 1.00503,-2.609432 1.50754,-2.455112 0.50251,0.15432 1.00502,-2.66878 1.50754,-2.52007 0.50251,0.14871 1.00502,-2.724742 1.50753,-2.581648 0.50252,0.143094 1.00503,-2.776491 1.50754,-2.639009 0.50251,0.137483 1.00503,-2.823101 1.50754,-2.69123 0.50251,0.131871 1.00502,-2.863576 1.50754,-2.737317 0.50251,0.126259 1.00502,-2.896844 1.50753,-2.776196 0.50252,0.120648 1.00503,-2.92176 1.50754,-2.806723 0.50251,0.115036 1.00503,-2.937118 1.50754,-2.827693 0.50251,0.109424 1.00502,-2.941672 1.50754,-2.837859 0.50251,0.103813 1.00502,-2.934148 1.50753,-2.835946 0.50252,0.0982 1.00503,-2.91327 1.50754,-2.82068 0.50251,0.09259 1.00503,-2.877791 1.50754,-2.790812 0.50251,0.08698 1.00503,-2.826526 1.50754,-2.745159 0.50251,0.08137 1.00502,-2.758386 1.50754,-2.68263 0.50251,0.07576 1.00502,-2.672428 1.50753,-2.602284 0.50252,0.07014 1.00503,-2.567889 1.50754,-2.503357 0.50251,0.06453 1.00503,-2.444241 1.50754,-2.38532 0.50251,0.05892 1.00502,-2.301225 1.50754,-2.247916 0.50251,0.05331 1.00502,-2.138897 1.50753,-2.091199 0.50252,0.0477 1.00503,-1.957658 1.50754,-1.915571 0.50251,0.04209 1.00503,-1.75828 1.50754,-1.721805 0.50251,0.03648 1.00502,-1.541921 1.50754,-1.511058 0.50251,0.03086 1.00502,-1.310121 1.50753,-1.284869 0.50252,0.02525 1.00503,-1.064792 1.50754,-1.045152 0.50251,0.01964 1.00503,-0.808182 1.50754,-0.794153 0.50251,0.01403 1.00503,-0.542835 1.50754,-0.534418 0.50251,0.0084 1.00502,-0.271525 1.50754,-0.26872 0.50251,0.0028 1.00502,0.0028 1.50753,0 0.50252,-0.0028 1.00503,0.277138 1.50754,0.26872 0.50251,-0.0084 1.00503,0.548447 1.50754,0.534418 0.50251,-0.01403 1.00502,0.813794 1.50754,0.794153 0.50251,-0.01964 1.00502,1.070404 1.50753,1.045152 0.50252,-0.02525 1.00503,1.315733 1.50754,1.284869 0.50251,-0.03086 1.00503,1.547533 1.50754,1.511058 0.50251,-0.03647 1.00502,1.763891 1.50754,1.721805 0.50251,-0.04209 1.00502,1.963269 1.50753,1.915571 0.50252,-0.0477 1.00503,2.144509 1.50754,2.091199 0.50251,-0.05331 1.00503,2.306837 1.50754,2.247916 0.50251,-0.05892 1.00502,2.449853 1.50754,2.38532 0.50251,-0.06453 1.00502,2.573502 1.50754,2.503357 0.50251,-0.07014 1.00502,2.67804 1.50753,2.602284 0.50252,-0.07576 1.00503,2.763998 1.50754,2.68263 0.50251,-0.08137 1.00503,2.832137 1.50754,2.745159 0.50251,-0.08698 1.00502,2.883402 1.50754,2.790812 0.50251,-0.09259 1.00502,2.918882 1.50753,2.82068 0.50252,-0.0982 1.00503,2.939759 1.50754,2.835946 0.50251,-0.103813 1.00503,2.947283 1.50754,2.837859 0.50251,-0.109425 1.00502,2.942729 1.50754,2.827693 0.50251,-0.115037 1.00502,2.927371 1.50753,2.806723 0.50252,-0.120648 1.00503,2.902455 1.50754,2.776196 0.50251,-0.126259 1.00503,2.869188 1.50754,2.737317 0.50251,-0.131871 1.00502,2.828713 1.50754,2.69123 0.50251,-0.137482 1.00502,2.782103 1.50754,2.639009 0.50251,-0.143094 1.00502,2.730358 1.50753,2.581648 0.50252,-0.14871 1.00503,2.67439 1.50754,2.52007 0.50251,-0.15432 1.00503,2.615032 1.50754,2.455112 0.50251,-0.15993 1.00502,2.55304 1.50754,2.3875 0.50251,-0.16554 1.00502,2.48908 1.50753,2.31793 0.50252,-0.17115 1.00503,2.42376 1.50754,2.24699 0.50251,-0.17676 1.00503,2.35759 1.50754,2.17521 0.50251,-0.18237 1.00502,2.29102 1.50754,2.10303 0.50251,-0.18798 1.00502,2.22446 1.50753,2.03086 0.50252,-0.1936 1.00503,2.15822 1.50754,1.95901 0.50251,-0.19921 1.00503,2.09262 1.50754,1.8878 0.50251,-0.20482 1.00502,2.02787 1.50754,1.81744 0.50251,-0.21043 1.00502,1.96419 1.50754,1.74814 0.50251,-0.21604 1.00502,1.90171 1.50753,1.68006 0.50252,-0.22166 1.00503,1.84057 1.50754,1.61331 0.50251,-0.22727 1.00503,1.78088 1.50754,1.54801 0.50251,-0.23288 1.00502,1.7227 1.50754,1.48421 0.50251,-0.23849 1.00502,1.66609 1.50753,1.42199 0.50252,-0.24411 1.00503,1.61106 1.50754,1.36135 0.50251,-0.24972 1.00503,1.55765 1.50754,1.30232 0.50251,-0.25532 1.00502,1.50585 1.50754,1.24492 0.50251,-0.26094 1.00502,1.45565 1.50753,1.1891 0.50252,-0.26655 1.00503,1.40703 1.50754,1.13487 0.50251,-0.27216 1.00503,1.35997 1.50754,1.0822 0.50251,-0.27778 1.00502,1.31442 1.50754,1.03103 0.50251,-0.28338 1.00502,1.27036 1.50754,0.98137 0.50251,-0.289 1.00502,1.22772 1.50753,0.93311 0.50252,-0.2946 1.00503,1.18648 1.50754,0.88626 0.50251,-0.30022 1.00503,1.14656 1.50754,0.84073 0.50251,-0.30583 1.00502,1.10792 1.50754,0.79648 0.50251,-0.31144 1.00502,1.07052 1.50753,0.75347 0.50252,-0.31705 1.00503,1.03427 1.50754,0.71161 0.50251,-0.32266 1.00503,0.99915 1.50754,0.67087 0.50251,-0.32827 1.00502,0.96507 1.50754,0.63119 0.50251,-0.33389 1.00502,0.932 1.50753,0.5925 0.50252,-0.3395 1.00503,0.89987 1.50754,0.55476 0.50251,-0.34511 1.00503,0.86861 1.50754,0.51789 0.50251,-0.35072 1.00502,0.8382 1.50754,0.48187 0.50251,-0.35633 1.00502,0.80854 1.50754,0.4466 0.50251,-0.36194 1.00502,0.77962 1.50753,0.41206 0.50252,-0.36755 1.00503,0.75135 1.50754,0.37818 0.50251,-0.37316 1.00503,0.72369 1.50754,0.34491 0.50251,-0.37877 1.00502,0.69659 1.50754,0.3122 0.50251,-0.38439 1.00502,0.66999 1.50753,0.27999 0.50252,-0.39001 1.00503,0.64384 1.50754,0.24822 0.50251,-0.39561 1.00503,0.6181 1.50754,0.21687 0.50251,-0.40122 1.00502,0.5927 1.50754,0.18587 0.50251,-0.40684 1.00502,0.5676 1.50753,0.15515 0.50252,-0.41245 1.00503,0.54276 1.50754,0.1247 0.50251,-0.41806 1.00503,0.51812 1.50754,0.0945 0.50251,-0.42367 1.00502,0.49362 1.50754,0.0643 0.50251,-0.42928 1.00502,0.46924 1.50753,0.0343 0.50252,-0.4349 1.00503,0.4449 1.50754,0.004 0.50252,-0.44051 1.00503,0.42058 1.50754,-0.0255 0.50251,-0.44612 1.00503,0.39622 1.50754,-0.0555 0.50251,-0.45173 1.00502,0.37176 1.50754,-0.0856 0.50251,-0.45734 1.00502,0.34718 1.50753,-0.11578 0.50252,-0.46295 1.00503,0.3224 1.50754,-0.14617 0.50251,-0.46856 1.00503,0.29738 1.50754,-0.17679 0.50251,-0.47418 1.00502,0.27207 1.50754,-0.20772 0.50251,-0.47978 1.00502,0.24644 1.50753,-0.23896 0.50252,-0.4854 1.00503,0.22041 1.50754,-0.2706 0.50251,-0.491 1.00503,0.19396 1.50754,-0.30266 0.50251,-0.49662 1.00502,0.167 1.50754,-0.33523 0.50251,-0.50224 1.00502,0.13951 1.50753,-0.36833 0.50252,-0.50785 1.00503,0.11142 1.50754,-0.40203 0.50252,-0.51346 1.00503,0.0827 1.50754,-0.43637 0.50251,-0.51907 1.00503,0.0533 1.50754,-0.47141 0.50251,-0.52468 1.00502,0.0231 1.50754,-0.50721 0.50251,-0.53029 1.00502,-0.008 1.50753,-0.54382 0.50252,-0.5359 1.00503,-0.0398 1.50754,-0.5813 0.50251,-0.54152 1.00503,-0.0726 1.50754,-0.61971 0.50251,-0.54712 1.00502,-0.10635 1.50754,-0.65909 0.50251,-0.55273 1.00502,-0.14116 1.50753,-0.69951"
       style="color:#000000;fill:none;stroke:#686868;stroke-width:1;stroke-linecap:round;stroke-linejoin:round;stroke-miterlimit:4;stroke-opacity:0.98214287;stroke-dasharray:none;stroke-dashoffset:0;marker:none;visibility:visible;display:inline;overflow:visible;enable-background:accumulate"
       inkscape:connector-curvature="0" />
    <path
       sodipodi:nodetypes="cccccccccccccccccccccccccccccccccccccccccccc"
       inkscape:connector-curvature="0"
       d="m 319.21041,158.46414 -33.33333,7.24257 m 0,0 -33.33334,-8.38295 m 0,0 -33.33333,-30.49431 m 0,0 -33.33333,-57.467267 m 0,0 -33.33334,0 m 0,0 -33.33333,57.467267 m 0,0 -33.333325,30.49431 m 0,0 -33.333337,8.38295 m 0,0 -33.333333,-7.24257 m 0,-31.36369 33.333333,7.24257 M 185.87708,37.998493 219.21041,95.465758 m 33.33333,30.494312 33.33334,8.38295 m -133.33334,-64.980837 0,-31.36369 33.33334,0 0,31.36369 m -33.33334,-31.36369 -33.33333,57.467265 0,31.363692 m 0,-31.363692 -33.333325,30.494312 0,31.36369 m 0,-31.36369 -33.333337,8.38295 0,31.36369 m 166.666662,-38.87726 0,-31.363692 33.33333,30.494312 0,31.36369 m 66.66667,-30.22331 -33.33333,7.24257 0,31.36369"
       style="color:#000000;fill:none;stroke:#16be5b;stroke-width:0.69999999;stroke-linecap:round;stroke-linejoin:round;stroke-miterlimit:4;stroke-opacity:1;stroke-dasharray:0.69999999,1.39999998;stroke-dashoffset:0;marker:none;visibility:visible;display:inline;overflow:visible;enable-background:accumulate"
       id="path3931" />
    <g
       style="font-style:normal;font-variant:normal;font-weight:normal;font-stretch:normal;letter-spacing:normal;word-spacing:normal;text-anchor:start;fill:none;stroke:#000000;stroke-linecap:butt;stroke-linejoin:miter;stroke-miterlimit:10.43299961;stroke-opacity:1;stroke-dasharray:none;stroke-dashoffset:0"
       id="content"
       transform="matrix(1.2,0,0,-1.2,-43.4727,897.18925)"
       xml:space="preserve"
       stroke-miterlimit="10.433"
       font-style="normal"
       font-variant="normal"
       font-weight="normal"
       font-stretch="normal"
       font-size-adjust="none"
       letter-spacing="normal"
       word-spacing="normal"
       ns0:text="$\\varepsilon\\leq \\frac 12$"
       ns0:preamble="/home/mik/research/cca/realproving/polypaver/20150519-Boldo-visit/talk/figs/inkscape-prelude.tex"><path
         style="fill:#000000;stroke-width:0"
         inkscape:connector-curvature="0"
         d="m 224.84,709.38 0.03,-0.01 0.03,-0.01 0.03,-0.02 0.03,-0.01 0.03,-0.01 0.03,0 0.02,-0.01 0.03,-0.01 0.03,-0.01 0.03,0 0.06,-0.02 0.05,0 0.06,-0.01 0.05,-0.01 0.05,0 0.05,0 0.05,-0.01 0.05,0 0.05,0 0.04,0 0.05,0 v 0.22 c -0.22,0 -0.34,0 -0.53,0.05 h 0 c 0.23,0.08 0.44,0.09 0.61,0.09 0.25,0 0.29,-0.01 0.47,-0.06 -0.15,-0.07 -0.17,-0.08 -0.55,-0.08 v -0.22 c 0.26,0 0.81,0 0.81,0.31 0,0.24 -0.35,0.27 -0.73,0.27 -0.21,0 -0.56,-0.02 -0.92,-0.19 -0.23,0.12 -0.4,0.31 -0.4,0.57 0,0.61 0.97,0.97 1.87,0.97 0.16,0 0.52,0 0.91,-0.28 0.11,-0.08 0.13,-0.1 0.2,-0.1 0.13,0 0.27,0.13 0.27,0.27 0,0.19 -0.61,0.56 -1.28,0.56 -1.15,0 -2.22,-0.66 -2.22,-1.42 0,-0.42 0.36,-0.67 0.4,-0.7 -0.59,-0.33 -0.91,-0.89 -0.91,-1.34 0,-0.65 0.57,-1.25 1.62,-1.25 1.32,0 1.87,0.87 1.87,1.02 0,0.06 -0.05,0.1 -0.11,0.1 -0.05,0 -0.08,-0.04 -0.1,-0.07 -0.13,-0.23 -0.37,-0.6 -1.57,-0.6 -0.61,0 -1.45,0.15 -1.45,0.86 0,0.33 0.28,0.86 0.89,1.16 z"
         id="path3982" /><path
         style="fill:#000000;stroke-width:0"
         inkscape:connector-curvature="0"
         d="m 237.56,713.03 0.02,0.01 0.02,0 0.01,0.01 0.01,0 0.01,0.01 0.01,0 0,0.01 0.01,0 0.01,0.01 0.01,0.01 0.01,0 0,0.01 0.01,0 0.01,0.01 0,0.01 0.01,0 0,0.01 0.01,0.01 0,0 0.01,0.01 0,0.01 0.01,0.01 0,0.01 0,0 0,0.01 0.01,0.01 0,0.01 0,0.01 0,0.01 0,0.01 c 0,0.11 -0.08,0.2 -0.2,0.2 -0.05,0 -0.14,-0.04 -0.18,-0.06 l -5.5,-2.59 c -0.17,-0.08 -0.2,-0.15 -0.2,-0.23 0,-0.09 0.06,-0.16 0.2,-0.22 l 5.5,-2.58 c 0.13,-0.07 0.15,-0.07 0.18,-0.07 0.11,0 0.2,0.09 0.2,0.2 0,0.09 -0.04,0.15 -0.21,0.23 l -5.2,2.44 z"
         id="path3984" /><path
         style="fill:#000000;stroke-width:0"
         inkscape:connector-curvature="0"
         d="m 237.4,705.76 0.03,0 0.04,0 0.03,0.01 0.01,0 0.02,0 0.01,0 0.02,0 0.01,0 0.02,0 0.01,0.01 0.01,0 0.02,0 0.01,0.01 0.01,0 0.01,0.01 0.01,0.01 0.01,0 0.01,0.01 0.01,0.01 0.01,0.01 0.01,0.01 0,0 0.01,0.01 0,0 0,0.01 0.01,0.01 0,0 0,0.01 0,0.01 0,0 0.01,0.01 0,0.01 0,0.01 0,0.01 0,0 0,0.01 0,0.01 c 0,0.2 -0.21,0.2 -0.36,0.2 h -5.36 c -0.15,0 -0.36,0 -0.36,-0.2 0,-0.2 0.18,-0.2 0.35,-0.2 z"
         id="path3986" /><path
         style="fill:#000000;stroke-width:0"
         inkscape:connector-curvature="0"
         d="m 244.89,715.47 0,0.01 0,0.01 0,0.01 0,0 0,0.01 0,0.01 0,0.01 0,0 0,0.01 0,0.01 0,0 0,0.01 0,0 0,0.01 0,0.01 -0.01,0 0,0.01 0,0 0,0.01 0,0.01 0,0 -0.01,0.01 0,0.01 -0.01,0 0,0.01 -0.01,0 0,0.01 -0.01,0 -0.01,0 -0.01,0.01 0,0 -0.01,0 -0.01,0 0,0 -0.01,0 -0.01,0 0,0 -0.01,0 0,0 -0.01,0 -0.01,0 0,0 -0.01,0 -0.01,0 -0.01,0 0,0 -0.01,0 -0.01,0 -0.01,0 -0.01,0 c -0.44,-0.43 -1.08,-0.44 -1.36,-0.44 v -0.25 c 0.16,0 0.62,0 1.01,0.19 v -3.54 c 0,-0.23 0,-0.32 -0.7,-0.32 h -0.26 v -0.25 c 0.12,0 0.98,0.03 1.23,0.03 0.22,0 1.1,-0.03 1.25,-0.03 v 0.25 h -0.26 c -0.7,0 -0.7,0.09 -0.7,0.32 z"
         id="path3988" /><line
         style="stroke-width:0.398"
         x1="242.56"
         y1="709.62"
         x2="246.53"
         y2="709.62"
         id="line3990" /><path
         style="fill:#000000;stroke-width:0"
         inkscape:connector-curvature="0"
         d="m 246.07,704.96 h -0.23 c -0.02,-0.16 -0.09,-0.57 -0.18,-0.64 -0.06,-0.04 -0.6,-0.04 -0.69,-0.04 h -1.29 c 0.74,0.65 0.98,0.84 1.4,1.17 0.51,0.41 0.99,0.84 0.99,1.5 0,0.84 -0.73,1.36 -1.63,1.36 -0.86,0 -1.44,-0.61 -1.44,-1.25 0,-0.35 0.29,-0.39 0.37,-0.39 0.16,0 0.36,0.12 0.36,0.37 0,0.13 -0.05,0.37 -0.41,0.37 0.22,0.49 0.69,0.65 1.02,0.65 0.7,0 1.06,-0.54 1.06,-1.11 0,-0.6 -0.43,-1.08 -0.66,-1.33 l -1.67,-1.66 C 243,703.9 243,703.89 243,703.69 h 2.87 z"
         id="path3992" /></g>    <path
       inkscape:connector-curvature="0"
       id="path4008"
       d="m 186,37.362183 34,0"
       style="color:#000000;fill:none;stroke:#000000;stroke-width:0.30000001;stroke-linecap:round;stroke-linejoin:round;stroke-miterlimit:4;stroke-opacity:1;stroke-dasharray:0.30000001, 0.90000004;stroke-dashoffset:0;marker:none;visibility:visible;display:inline;overflow:visible;enable-background:accumulate"
       sodipodi:nodetypes="cc" />
    <path
       style="color:#000000;fill:none;stroke:#000000;stroke-width:0.30000001;stroke-linecap:round;stroke-linejoin:round;stroke-miterlimit:4;stroke-opacity:1;stroke-dasharray:0.30000001, 0.90000004;stroke-dashoffset:0;marker:none;visibility:visible;display:inline;overflow:visible;enable-background:accumulate"
       d="m 186,53.651999 34,0"
       id="path4010"
       inkscape:connector-curvature="0"
       sodipodi:nodetypes="cc" />
    <path
       inkscape:connector-curvature="0"
       id="path4012"
       d="m 220,37.362183 0,16"
       style="color:#000000;fill:none;stroke:#000000;stroke-width:0.69999999;stroke-linecap:round;stroke-linejoin:round;stroke-miterlimit:4;stroke-opacity:1;stroke-dasharray:none;stroke-dashoffset:0;marker:none;marker-start:url(#Arrow1Sstart);marker-end:url(#Arrow1Send);visibility:visible;display:inline;overflow:visible;enable-background:accumulate"
       sodipodi:nodetypes="cc" />
    <path
       id="path5233"
       title="1/(2*sin(2*x)**2+1)"
       d="m 19.210415,143.10045 33.333333,7.24257 33.333334,-8.38294 33.333328,-30.49432 33.33334,-57.467266 33.33333,0 33.33333,57.467266 33.33334,30.49432 33.33333,8.38294 33.33333,-7.24257"
       style="color:#000000;fill:none;stroke:#16be59;stroke-width:0.7;stroke-linecap:round;stroke-linejoin:round;stroke-miterlimit:4;stroke-opacity:1;stroke-dasharray:none;stroke-dashoffset:0;marker:none;visibility:visible;display:inline;overflow:visible;enable-background:accumulate"
       inkscape:connector-curvature="0"
       sodipodi:nodetypes="cccccccccc" />
  </g>
</svg>
