<?xml version="1.0" encoding="UTF-8" standalone="no"?>
<!-- Created with Inkscape (http://www.inkscape.org/) -->

<svg
   xmlns:dc="http://purl.org/dc/elements/1.1/"
   xmlns:cc="http://creativecommons.org/ns#"
   xmlns:rdf="http://www.w3.org/1999/02/22-rdf-syntax-ns#"
   xmlns:svg="http://www.w3.org/2000/svg"
   xmlns="http://www.w3.org/2000/svg"
   xmlns:sodipodi="http://sodipodi.sourceforge.net/DTD/sodipodi-0.dtd"
   xmlns:inkscape="http://www.inkscape.org/namespaces/inkscape"
   width="744.09448819"
   height="1052.3622047"
   id="svg2"
   version="1.1"
   inkscape:version="0.48.4 r9939"
   sodipodi:docname="range-fnonly.svg">
  <sodipodi:namedview
     id="base"
     pagecolor="#ffffff"
     bordercolor="#666666"
     borderopacity="1.0"
     inkscape:pageopacity="0.0"
     inkscape:pageshadow="2"
     inkscape:zoom="4.7737527"
     inkscape:cx="161.44392"
     inkscape:cy="981.0664"
     inkscape:document-units="px"
     inkscape:current-layer="layer1"
     showgrid="true"
     inkscape:window-width="1920"
     inkscape:window-height="1013"
     inkscape:window-x="1678"
     inkscape:window-y="258"
     inkscape:window-maximized="1">
    <inkscape:grid
       id="grid4807"
       type="xygrid"
       snapvisiblegridlinesonly="true"
       enabled="true"
       visible="true"
       empspacing="5" />
  </sodipodi:namedview>
  <defs
     id="defs4">
    <marker
       style="overflow:visible;"
       id="Arrow1Send"
       refX="0.0"
       refY="0.0"
       orient="auto"
       inkscape:stockid="Arrow1Send">
      <path
         transform="scale(0.2) rotate(180) translate(6,0)"
         style="fill-rule:evenodd;stroke:#000000;stroke-width:1.0pt;"
         d="M 0.0,0.0 L 5.0,-5.0 L -12.5,0.0 L 5.0,5.0 L 0.0,0.0 z "
         id="path4033" />
    </marker>
    <marker
       style="overflow:visible"
       id="Arrow1Sstart"
       refX="0.0"
       refY="0.0"
       orient="auto"
       inkscape:stockid="Arrow1Sstart">
      <path
         transform="scale(0.2) translate(6,0)"
         style="fill-rule:evenodd;stroke:#000000;stroke-width:1.0pt"
         d="M 0.0,0.0 L 5.0,-5.0 L -12.5,0.0 L 5.0,5.0 L 0.0,0.0 z "
         id="path4030" />
    </marker>
    <marker
       style="overflow:visible;"
       id="Arrow2Send"
       refX="0.0"
       refY="0.0"
       orient="auto"
       inkscape:stockid="Arrow2Send">
      <path
         transform="scale(0.3) rotate(180) translate(-2.3,0)"
         d="M 8.7185878,4.0337352 L -2.2072895,0.016013256 L 8.7185884,-4.0017078 C 6.9730900,-1.6296469 6.9831476,1.6157441 8.7185878,4.0337352 z "
         style="fill-rule:evenodd;stroke-width:0.62500000;stroke-linejoin:round;"
         id="path4051" />
    </marker>
    <marker
       style="overflow:visible"
       id="Arrow2Sstart"
       refX="0.0"
       refY="0.0"
       orient="auto"
       inkscape:stockid="Arrow2Sstart">
      <path
         transform="scale(0.3) translate(-2.3,0)"
         d="M 8.7185878,4.0337352 L -2.2072895,0.016013256 L 8.7185884,-4.0017078 C 6.9730900,-1.6296469 6.9831476,1.6157441 8.7185878,4.0337352 z "
         style="fill-rule:evenodd;stroke-width:0.62500000;stroke-linejoin:round"
         id="path4048" />
    </marker>
  </defs>
  <metadata
     id="metadata7">
    <rdf:RDF>
      <cc:Work
         rdf:about="">
        <dc:format>image/svg+xml</dc:format>
        <dc:type
           rdf:resource="http://purl.org/dc/dcmitype/StillImage" />
        <dc:title></dc:title>
      </cc:Work>
    </rdf:RDF>
  </metadata>
  <g
     inkscape:label="Layer 1"
     inkscape:groupmode="layer"
     id="layer1">
    <rect
       ry="7.0312501e-07"
       y="12.362183"
       x="19.210415"
       height="140"
       width="300"
       id="rect3005"
       style="color:#000000;fill:#2b95ed;fill-opacity:0.08928570000000000;stroke:none;stroke-width:1.44000006000000003;stroke-opacity:1;marker:none;visibility:visible;display:inline;overflow:visible;enable-background:accumulate" />
    <path
       inkscape:connector-curvature="0"
       id="path4005"
       d="m 19.210415,47.36218 c 99.999805,6.2e-4 200.000185,6.2e-4 299.999995,0"
       style="color:#000000;fill:none;stroke:#000000;stroke-width:0.5;stroke-miterlimit:4;stroke-opacity:1;stroke-dasharray:none;marker:none;visibility:visible;display:inline;overflow:visible;enable-background:accumulate" />
    <path
       inkscape:connector-curvature="0"
       style="color:#000000;fill:none;stroke:#000000;stroke-width:1.44000006;stroke-opacity:1;marker:none;visibility:visible;display:inline;overflow:visible;enable-background:accumulate"
       d="m 19.210415,49.67172 c 0.502513,0.39084 1.005025,0.19252 1.507538,0.57943 0.502512,0.38692 1.005025,0.19447 1.507537,0.57746 0.502513,0.38299 1.005026,0.19093 1.507538,0.56999 0.502513,0.37906 1.005025,0.18272 1.507538,0.55785 0.502512,0.37513 1.005025,0.17058 1.507537,0.54178 0.502513,0.37121 1.005026,0.15519 1.507538,0.52247 0.502513,0.36727 1.005025,0.13716 1.507538,0.50051 0.502512,0.36335 1.005025,0.11706 1.507538,0.47648 0.502512,0.35941 1.005025,0.0954 1.507537,0.45085 0.502513,0.35549 1.005025,0.0725 1.507538,0.4241 0.502512,0.35156 1.005025,0.049 1.507538,0.39661 0.502512,0.34763 1.005025,0.025 1.507537,0.36873 0.502513,0.34371 1.005025,10e-4 1.507538,0.34078 0.502513,0.33978 1.005025,-0.0228 1.507538,0.31302 0.502512,0.33585 1.005025,-0.0462 1.507537,0.2857 0.502513,0.33192 1.005025,-0.069 1.507538,0.259 0.502513,0.328 1.005025,-0.0909 1.507538,0.23312 0.502512,0.32406 1.005025,-0.11198 1.507537,0.20816 0.502513,0.32014 1.005026,-0.13194 1.507538,0.18427 0.502513,0.31621 1.005025,-0.15076 1.507538,0.16152 0.502512,0.31228 1.005025,-0.16837 1.507537,0.13998 0.502513,0.30835 1.005026,-0.18472 1.507538,0.11971 0.502513,0.30442 1.005025,-0.19978 1.507538,0.10072 0.502512,0.30049 1.005025,-0.21353 1.507538,0.083 0.502512,0.29657 1.005025,-0.22598 1.507537,0.0667 0.502513,0.29264 1.005025,-0.23715 1.507538,0.0516 0.502512,0.28872 1.005025,-0.24705 1.507538,0.0377 0.502512,0.28479 1.005025,-0.25573 1.507537,0.0251 0.502513,0.28085 1.005025,-0.26324 1.507538,0.0137 0.502513,0.27693 1.005025,-0.26961 1.507538,0.003 0.502512,0.273 1.005025,-0.27491 1.507537,-0.006 0.502513,0.26907 1.005025,-0.27921 1.507538,-0.0141 0.502513,0.26515 1.005025,-0.28257 1.507538,-0.0214 0.502512,0.26122 1.005025,-0.28506 1.507537,-0.0278 0.502513,0.25729 1.005026,-0.28676 1.507538,-0.0334 0.502513,0.25336 1.005025,-0.28776 1.507538,-0.0383 0.502512,0.24943 1.005025,-0.2881 1.507537,-0.0426 0.502513,0.2455 1.005026,-0.28787 1.507538,-0.0463 0.502513,0.24158 1.005025,-0.28715 1.507538,-0.0495 0.502512,0.23765 1.005025,-0.286 1.507538,-0.0523 0.502512,0.23372 1.005025,-0.28452 1.507537,-0.0547 0.502513,0.22979 1.005025,-0.28275 1.507538,-0.0569 0.502512,0.22586 1.005025,-0.28077 1.507538,-0.0588 0.502512,0.22194 1.005025,-0.27864 1.507537,-0.0606 0.502513,0.21801 1.005025,-0.27643 1.507538,-0.0624 0.502513,0.21408 1.005025,-0.2742 1.507538,-0.064 0.502512,0.21016 1.005025,-0.27198 1.507537,-0.0658 0.502513,0.20622 1.005025,-0.26984 1.507538,-0.0675 0.502513,0.20229 1.005025,-0.26781 1.507538,-0.0694 0.502512,0.19836 1.005025,-0.26595 1.507537,-0.0715 0.502513,0.19444 1.005026,-0.26427 1.507538,-0.0738 0.502513,0.19051 1.005025,-0.26283 1.507538,-0.0762 0.502512,0.18659 1.005025,-0.26164 1.507537,-0.079 0.502513,0.18265 1.005028,-0.26073 1.507538,-0.082 0.50251,0.17872 1.00503,-0.26012 1.50754,-0.0853 0.50251,0.1748 1.00502,-0.25981 1.50754,-0.0889 0.50251,0.17087 1.00502,-0.25983 1.50753,-0.0929 0.50252,0.16694 1.00503,-0.26017 1.50754,-0.0972 0.50251,0.16302 1.00503,-0.26085 1.50754,-0.10176 0.50251,0.15909 1.00502,-0.26185 1.50754,-0.10669 0.50251,0.15516 1.00502,-0.26317 1.50753,-0.11194 0.50252,0.15123 1.00503,-0.2648 1.50754,-0.1175 0.50251,0.1473 1.00503,-0.26673 1.50754,-0.12336 0.50251,0.14337 1.00502,-0.26895 1.50754,-0.1295 0.50251,0.13945 1.00502,-0.27142 1.50753,-0.1359 0.50252,0.13552 1.00503,-0.27414 1.50754,-0.14255 0.50251,0.13159 1.00503,-0.27708 1.50754,-0.14941 0.50251,0.12766 1.00503,-0.2802 1.50754,-0.15647 0.50251,0.12374 1.00502,-0.28348 1.50754,-0.16368 0.50251,0.11981 1.00502,-0.28689 1.50753,-0.17102 0.50252,0.11588 1.00503,-0.29041 1.50754,-0.17846 0.50251,0.11195 1.00503,-0.29399 1.50754,-0.18597 0.50251,0.10802 1.00502,-0.2976 1.50754,-0.1935 0.50251,0.10409 1.00502,-0.3012 1.50753,-0.20103 0.50252,0.10016 1.00503,-0.30476 1.50754,-0.20852 0.50251,0.0962 1.00503,-0.30824 1.50754,-0.21593 0.50251,0.0923 1.00502,-0.31159 1.50754,-0.22321 0.50251,0.0884 1.00502,-0.31481 1.50753,-0.23035 0.50252,0.0845 1.00503,-0.31782 1.50754,-0.2373 0.50251,0.0805 1.00503,-0.32061 1.50754,-0.24401 0.50251,0.0766 1.00503,-0.32315 1.50754,-0.25048 0.50251,0.0727 1.00502,-0.32538 1.50754,-0.25663 0.50251,0.0687 1.00502,-0.32729 1.50753,-0.26247 0.50252,0.0648 1.00503,-0.32883 1.50754,-0.26794 0.50251,0.0609 1.00503,-0.32998 1.50754,-0.27302 0.50251,0.057 1.00502,-0.33071 1.50754,-0.27769 0.50251,0.053 1.00502,-0.33099 1.50753,-0.28189 0.50252,0.0491 1.00503,-0.33081 1.50754,-0.28564 0.50251,0.0452 1.00503,-0.33013 1.50754,-0.28888 0.50251,0.0412 1.00502,-0.32894 1.50754,-0.29162 0.50251,0.0373 1.00502,-0.32721 1.50753,-0.29382 0.50252,0.0334 1.00503,-0.32493 1.50754,-0.29547 0.50251,0.0295 1.00503,-0.32209 1.50754,-0.29656 0.50251,0.0255 1.00503,-0.31869 1.50754,-0.29708 0.50251,0.0216 1.00502,-0.3147 1.50754,-0.29703 0.50251,0.0177 1.00502,-0.31013 1.50753,-0.29638 0.50252,0.0137 1.00503,-0.30497 1.50754,-0.29515 0.50251,0.01 1.00503,-0.29924 1.50754,-0.29335 0.50251,0.006 1.00502,-0.29291 1.50754,-0.29095 0.50251,0.002 1.00502,-0.28602 1.50753,-0.28798 0.50252,-0.002 1.00503,-0.27857 1.50754,-0.28446 0.50251,-0.006 1.00503,-0.27055 1.50754,-0.28037 0.50251,-0.01 1.00502,-0.262 1.50754,-0.27575 0.50251,-0.0137 1.00502,-0.25293 1.50753,-0.2706 0.50252,-0.0177 1.00503,-0.24336 1.50754,-0.26497 0.50251,-0.0216 1.00503,-0.23331 1.50754,-0.25884 0.50251,-0.0255 1.00503,-0.22281 1.50754,-0.25227 0.50251,-0.0295 1.00502,-0.21189 1.50754,-0.24527 0.50251,-0.0334 1.00502,-0.20057 1.50753,-0.23788 0.50252,-0.0373 1.00503,-0.18888 1.50754,-0.23012 0.50251,-0.0412 1.00503,-0.17686 1.50754,-0.22203 0.50251,-0.0452 1.00502,-0.16454 1.50754,-0.21364 0.50251,-0.0491 1.00502,-0.15196 1.50753,-0.20499 0.50252,-0.053 1.00503,-0.13916 1.50754,-0.19611 0.50251,-0.057 1.00503,-0.12618 1.50754,-0.18706 0.50251,-0.0609 1.00502,-0.11305 1.50754,-0.17786 0.50251,-0.0648 1.00502,-0.0998 1.50753,-0.16855 0.50252,-0.0687 1.00503,-0.0865 1.50754,-0.15918 0.50251,-0.0727 1.00503,-0.0732 1.50754,-0.14979 0.50251,-0.0766 1.00503,-0.0599 1.50754,-0.14041 0.50251,-0.0805 1.00502,-0.0466 1.50754,-0.1311 0.50251,-0.0845 1.00502,-0.0335 1.50753,-0.12188 0.50252,-0.0884 1.00503,-0.0205 1.50754,-0.11279 0.50251,-0.0923 1.00503,-0.008 1.50754,-0.10389 0.50251,-0.0962 1.00502,0.005 1.50754,-0.0952 0.50251,-0.10017 1.00502,0.0173 1.50753,-0.0868 0.50252,-0.1041 1.00503,0.0294 1.50754,-0.0786 0.50251,-0.10802 1.00503,0.0412 1.50754,-0.0708 0.50251,-0.11195 1.00502,0.0526 1.50754,-0.0633 0.50251,-0.11587 1.00502,0.0637 1.50753,-0.0561 0.50252,-0.1198 1.00503,0.0744 1.50754,-0.0494 0.50251,-0.12374 1.00503,0.0846 1.50754,-0.0431 0.50251,-0.12766 1.00502,0.0944 1.50754,-0.0372 0.50251,-0.13159 1.00502,0.10379 1.50754,-0.0317 0.50251,-0.13552 1.00502,0.1127 1.50753,-0.0267 0.50252,-0.13944 1.00503,0.12116 1.50754,-0.0222 0.50251,-0.14337 1.00503,0.12915 1.50754,-0.0182 0.50251,-0.1473 1.00502,0.13667 1.50754,-0.0146 0.50251,-0.15123 1.00502,0.14374 1.50753,-0.0114 0.50252,-0.15516 1.00503,0.15036 1.50754,-0.009 0.50251,-0.15909 1.00503,0.15656 1.50754,-0.006 0.50251,-0.16302 1.00502,0.16235 1.50754,-0.005 0.50251,-0.16694 1.00502,0.16777 1.50753,-0.003 0.50252,-0.17087 1.00503,0.17284 1.50754,-0.002 0.50251,-0.1748 1.00503,0.1776 1.50754,-10e-4 0.50251,-0.17872 1.00502,0.18209 1.50754,-5.7e-4 0.50251,-0.18265 1.00502,0.18635 1.50754,-2.3e-4 0.50251,-0.18658 1.00502,0.19045 1.50753,-6e-5 0.50252,-0.19052 1.00503,0.19443 1.50754,-1e-5 0.50251,-0.19444 1.00503,0.19837 1.50754,0 0.50251,-0.19837 1.00502,0.20232 1.50754,3e-5 0.50251,-0.2023 1.00502,0.20636 1.50753,1.4e-4 0.50252,-0.20623 1.00503,0.21057 1.50754,4.2e-4 0.50251,-0.21015 1.00503,0.21503 1.50754,9.5e-4 0.50251,-0.21408 1.00502,0.21982 1.50754,0.002 0.50251,-0.21801 1.00502,0.22503 1.50753,0.003 0.50252,-0.22194 1.00503,0.23074 1.50754,0.005 0.50251,-0.22587 1.00503,0.23706 1.50754,0.007 0.50251,-0.22979 1.00502,0.24408 1.50754,0.0104 0.50251,-0.23372 1.00502,0.2519 1.50754,0.0142 0.50251,-0.23765 1.00502,0.26061 1.50753,0.019 0.50252,-0.24157 1.00503,0.27032 1.50754,0.0248 0.50251,-0.24551 1.00503,0.28112 1.50754,0.0317 0.50251,-0.24943 1.00502,0.29311 1.50754,0.0397 0.50251,-0.25336 1.00502,0.30639 1.50753,0.0491 0.50252,-0.25729 1.00503,0.32104 1.50754,0.0598 0.50251,-0.26121 1.00503,0.33717 1.50754,0.072 0.50251,-0.26514 1.00502,0.35484 1.50754,0.0858 0.50251,-0.26907 1.00502,0.37413 1.50753,0.10113 0.50252,-0.273 1.00503,0.39512 1.50754,0.11819 0.50251,-0.27693 1.00503,0.41787 1.50754,0.13701 0.50251,-0.28086 1.00502,0.44241 1.50754,0.15763 0.50251,-0.28479 1.00502,0.46881 1.50754,0.1801 0.50251,-0.28872 1.00502,0.49707 1.50753,0.20443 0.50252,-0.29264 1.00503,0.52721 1.50754,0.23064 0.50251,-0.29657 1.00503,0.55922 1.50754,0.25872 0.50251,-0.3005 1.00502,0.59307 1.50754,0.28865 0.50251,-0.30443 1.00502,0.62872 1.50753,0.32037 0.50252,-0.30835 1.00503,0.6661 1.50754,0.35382 0.50251,-0.31228 1.00503,0.70511 1.50754,0.3889 0.50251,-0.31621 1.00502,0.74564 1.50754,0.4255 0.50251,-0.32014 1.00502,0.78751 1.50753,0.46345 0.50252,-0.32407 1.00503,0.83056 1.50754,0.50257 0.50251,-0.328 1.00503,0.87456 1.50754,0.54264 0.50251,-0.33192 1.00502,0.91927 1.50754,0.58342 0.50251,-0.33585 1.00502,0.96437 1.50754,0.62459 0.50251,-0.33978 1.00502,1.00951 1.50753,0.66581 0.50252,-0.34371 1.00503,1.05433 1.50754,0.70669 0.50251,-0.34763 1.00503,1.09837 1.50754,0.74681 0.50251,-0.35156 1.00502,1.14114 1.50754,0.78565 0.50251,-0.3555 1.00502,1.18207 1.50753,0.82265 0.50252,-0.35941 1.00503,1.22059 1.50754,0.85724 0.50251,-0.36334 1.00503,1.25598 1.50754,0.8887 0.50251,-0.36727 1.00502,1.2875 1.50754,0.9163 0.50251,-0.37121 1.00502,1.31433 1.50753,0.9392 0.50252,-0.37513 1.00503,1.33558 1.50754,0.95652 0.50251,-0.37906 1.00503,1.35025 1.50754,0.96727 0.50251,-0.38299 1.00502,1.35728 1.50754,0.97037 0.50251,-0.38692 1.00502,1.35551 1.50753,0.96467"
       title="0.888889*x**9+0.2*x**8-2.30857*x**7-0.498667*x**6+1.92896*x**5+0.37644*x**4-0.79528*x**3-0.13794*x**2+0.24563*x"
       id="path4067" />
  </g>
</svg>
