<?xml version="1.0" encoding="UTF-8" standalone="no"?>
<!-- Created with Inkscape (http://www.inkscape.org/) -->

<svg
   xmlns:ns0="http://www.iki.fi/pav/software/textext/"
   xmlns:dc="http://purl.org/dc/elements/1.1/"
   xmlns:cc="http://creativecommons.org/ns#"
   xmlns:rdf="http://www.w3.org/1999/02/22-rdf-syntax-ns#"
   xmlns:svg="http://www.w3.org/2000/svg"
   xmlns="http://www.w3.org/2000/svg"
   xmlns:sodipodi="http://sodipodi.sourceforge.net/DTD/sodipodi-0.dtd"
   xmlns:inkscape="http://www.inkscape.org/namespaces/inkscape"
   width="744.09448819"
   height="1052.3622047"
   id="svg2"
   version="1.1"
   inkscape:version="0.48.4 r9939"
   sodipodi:docname="range-multiroot.svg">
  <sodipodi:namedview
     id="base"
     pagecolor="#ffffff"
     bordercolor="#666666"
     borderopacity="1.0"
     inkscape:pageopacity="0.0"
     inkscape:pageshadow="2"
     inkscape:zoom="4.7737527"
     inkscape:cx="161.44392"
     inkscape:cy="981.0664"
     inkscape:document-units="px"
     inkscape:current-layer="layer1"
     showgrid="true"
     inkscape:window-width="1920"
     inkscape:window-height="1013"
     inkscape:window-x="1678"
     inkscape:window-y="258"
     inkscape:window-maximized="1">
    <inkscape:grid
       id="grid4807"
       type="xygrid"
       snapvisiblegridlinesonly="true"
       enabled="true"
       visible="true"
       empspacing="5" />
  </sodipodi:namedview>
  <defs
     id="defs4">
    <marker
       style="overflow:visible;"
       id="Arrow1Send"
       refX="0.0"
       refY="0.0"
       orient="auto"
       inkscape:stockid="Arrow1Send">
      <path
         transform="scale(0.2) rotate(180) translate(6,0)"
         style="fill-rule:evenodd;stroke:#000000;stroke-width:1.0pt;"
         d="M 0.0,0.0 L 5.0,-5.0 L -12.5,0.0 L 5.0,5.0 L 0.0,0.0 z "
         id="path4033" />
    </marker>
    <marker
       style="overflow:visible"
       id="Arrow1Sstart"
       refX="0.0"
       refY="0.0"
       orient="auto"
       inkscape:stockid="Arrow1Sstart">
      <path
         transform="scale(0.2) translate(6,0)"
         style="fill-rule:evenodd;stroke:#000000;stroke-width:1.0pt"
         d="M 0.0,0.0 L 5.0,-5.0 L -12.5,0.0 L 5.0,5.0 L 0.0,0.0 z "
         id="path4030" />
    </marker>
    <marker
       style="overflow:visible;"
       id="Arrow2Send"
       refX="0.0"
       refY="0.0"
       orient="auto"
       inkscape:stockid="Arrow2Send">
      <path
         transform="scale(0.3) rotate(180) translate(-2.3,0)"
         d="M 8.7185878,4.0337352 L -2.2072895,0.016013256 L 8.7185884,-4.0017078 C 6.9730900,-1.6296469 6.9831476,1.6157441 8.7185878,4.0337352 z "
         style="fill-rule:evenodd;stroke-width:0.62500000;stroke-linejoin:round;"
         id="path4051" />
    </marker>
    <marker
       style="overflow:visible"
       id="Arrow2Sstart"
       refX="0.0"
       refY="0.0"
       orient="auto"
       inkscape:stockid="Arrow2Sstart">
      <path
         transform="scale(0.3) translate(-2.3,0)"
         d="M 8.7185878,4.0337352 L -2.2072895,0.016013256 L 8.7185884,-4.0017078 C 6.9730900,-1.6296469 6.9831476,1.6157441 8.7185878,4.0337352 z "
         style="fill-rule:evenodd;stroke-width:0.62500000;stroke-linejoin:round"
         id="path4048" />
    </marker>
  </defs>
  <metadata
     id="metadata7">
    <rdf:RDF>
      <cc:Work
         rdf:about="">
        <dc:format>image/svg+xml</dc:format>
        <dc:type
           rdf:resource="http://purl.org/dc/dcmitype/StillImage" />
        <dc:title></dc:title>
      </cc:Work>
    </rdf:RDF>
  </metadata>
  <g
     inkscape:label="Layer 1"
     inkscape:groupmode="layer"
     id="layer1">
    <rect
       ry="7.0312501e-07"
       y="12.362183"
       x="19.210415"
       height="140"
       width="300"
       id="rect3005"
       style="color:#000000;fill:#2b95ed;fill-opacity:0.08928570000000000;stroke:none;stroke-width:1.44000006000000003;stroke-opacity:1;marker:none;visibility:visible;display:inline;overflow:visible;enable-background:accumulate" />
    <path
       inkscape:connector-curvature="0"
       id="path4005"
       d="m 19.210415,47.36218 c 99.999805,6.2e-4 200.000185,6.2e-4 299.999995,0"
       style="color:#000000;fill:none;stroke:#000000;stroke-width:0.5;stroke-miterlimit:4;stroke-opacity:1;stroke-dasharray:none;marker:none;visibility:visible;display:inline;overflow:visible;enable-background:accumulate" />
    <path
       inkscape:connector-curvature="0"
       style="color:#000000;fill:none;stroke:#000000;stroke-width:1.44000006;stroke-opacity:1;marker:none;visibility:visible;display:inline;overflow:visible;enable-background:accumulate"
       d="m 19.210415,49.67172 c 0.502513,0.39084 1.005025,0.19252 1.507538,0.57943 0.502512,0.38692 1.005025,0.19447 1.507537,0.57746 0.502513,0.38299 1.005026,0.19093 1.507538,0.56999 0.502513,0.37906 1.005025,0.18272 1.507538,0.55785 0.502512,0.37513 1.005025,0.17058 1.507537,0.54178 0.502513,0.37121 1.005026,0.15519 1.507538,0.52247 0.502513,0.36727 1.005025,0.13716 1.507538,0.50051 0.502512,0.36335 1.005025,0.11706 1.507538,0.47648 0.502512,0.35941 1.005025,0.0954 1.507537,0.45085 0.502513,0.35549 1.005025,0.0725 1.507538,0.4241 0.502512,0.35156 1.005025,0.049 1.507538,0.39661 0.502512,0.34763 1.005025,0.025 1.507537,0.36873 0.502513,0.34371 1.005025,10e-4 1.507538,0.34078 0.502513,0.33978 1.005025,-0.0228 1.507538,0.31302 0.502512,0.33585 1.005025,-0.0462 1.507537,0.2857 0.502513,0.33192 1.005025,-0.069 1.507538,0.259 0.502513,0.328 1.005025,-0.0909 1.507538,0.23312 0.502512,0.32406 1.005025,-0.11198 1.507537,0.20816 0.502513,0.32014 1.005026,-0.13194 1.507538,0.18427 0.502513,0.31621 1.005025,-0.15076 1.507538,0.16152 0.502512,0.31228 1.005025,-0.16837 1.507537,0.13998 0.502513,0.30835 1.005026,-0.18472 1.507538,0.11971 0.502513,0.30442 1.005025,-0.19978 1.507538,0.10072 0.502512,0.30049 1.005025,-0.21353 1.507538,0.083 0.502512,0.29657 1.005025,-0.22598 1.507537,0.0667 0.502513,0.29264 1.005025,-0.23715 1.507538,0.0516 0.502512,0.28872 1.005025,-0.24705 1.507538,0.0377 0.502512,0.28479 1.005025,-0.25573 1.507537,0.0251 0.502513,0.28085 1.005025,-0.26324 1.507538,0.0137 0.502513,0.27693 1.005025,-0.26961 1.507538,0.003 0.502512,0.273 1.005025,-0.27491 1.507537,-0.006 0.502513,0.26907 1.005025,-0.27921 1.507538,-0.0141 0.502513,0.26515 1.005025,-0.28257 1.507538,-0.0214 0.502512,0.26122 1.005025,-0.28506 1.507537,-0.0278 0.502513,0.25729 1.005026,-0.28676 1.507538,-0.0334 0.502513,0.25336 1.005025,-0.28776 1.507538,-0.0383 0.502512,0.24943 1.005025,-0.2881 1.507537,-0.0426 0.502513,0.2455 1.005026,-0.28787 1.507538,-0.0463 0.502513,0.24158 1.005025,-0.28715 1.507538,-0.0495 0.502512,0.23765 1.005025,-0.286 1.507538,-0.0523 0.502512,0.23372 1.005025,-0.28452 1.507537,-0.0547 0.502513,0.22979 1.005025,-0.28275 1.507538,-0.0569 0.502512,0.22586 1.005025,-0.28077 1.507538,-0.0588 0.502512,0.22194 1.005025,-0.27864 1.507537,-0.0606 0.502513,0.21801 1.005025,-0.27643 1.507538,-0.0624 0.502513,0.21408 1.005025,-0.2742 1.507538,-0.064 0.502512,0.21016 1.005025,-0.27198 1.507537,-0.0658 0.502513,0.20622 1.005025,-0.26984 1.507538,-0.0675 0.502513,0.20229 1.005025,-0.26781 1.507538,-0.0694 0.502512,0.19836 1.005025,-0.26595 1.507537,-0.0715 0.502513,0.19444 1.005026,-0.26427 1.507538,-0.0738 0.502513,0.19051 1.005025,-0.26283 1.507538,-0.0762 0.502512,0.18659 1.005025,-0.26164 1.507537,-0.079 0.502513,0.18265 1.005028,-0.26073 1.507538,-0.082 0.50251,0.17872 1.00503,-0.26012 1.50754,-0.0853 0.50251,0.1748 1.00502,-0.25981 1.50754,-0.0889 0.50251,0.17087 1.00502,-0.25983 1.50753,-0.0929 0.50252,0.16694 1.00503,-0.26017 1.50754,-0.0972 0.50251,0.16302 1.00503,-0.26085 1.50754,-0.10176 0.50251,0.15909 1.00502,-0.26185 1.50754,-0.10669 0.50251,0.15516 1.00502,-0.26317 1.50753,-0.11194 0.50252,0.15123 1.00503,-0.2648 1.50754,-0.1175 0.50251,0.1473 1.00503,-0.26673 1.50754,-0.12336 0.50251,0.14337 1.00502,-0.26895 1.50754,-0.1295 0.50251,0.13945 1.00502,-0.27142 1.50753,-0.1359 0.50252,0.13552 1.00503,-0.27414 1.50754,-0.14255 0.50251,0.13159 1.00503,-0.27708 1.50754,-0.14941 0.50251,0.12766 1.00503,-0.2802 1.50754,-0.15647 0.50251,0.12374 1.00502,-0.28348 1.50754,-0.16368 0.50251,0.11981 1.00502,-0.28689 1.50753,-0.17102 0.50252,0.11588 1.00503,-0.29041 1.50754,-0.17846 0.50251,0.11195 1.00503,-0.29399 1.50754,-0.18597 0.50251,0.10802 1.00502,-0.2976 1.50754,-0.1935 0.50251,0.10409 1.00502,-0.3012 1.50753,-0.20103 0.50252,0.10016 1.00503,-0.30476 1.50754,-0.20852 0.50251,0.0962 1.00503,-0.30824 1.50754,-0.21593 0.50251,0.0923 1.00502,-0.31159 1.50754,-0.22321 0.50251,0.0884 1.00502,-0.31481 1.50753,-0.23035 0.50252,0.0845 1.00503,-0.31782 1.50754,-0.2373 0.50251,0.0805 1.00503,-0.32061 1.50754,-0.24401 0.50251,0.0766 1.00503,-0.32315 1.50754,-0.25048 0.50251,0.0727 1.00502,-0.32538 1.50754,-0.25663 0.50251,0.0687 1.00502,-0.32729 1.50753,-0.26247 0.50252,0.0648 1.00503,-0.32883 1.50754,-0.26794 0.50251,0.0609 1.00503,-0.32998 1.50754,-0.27302 0.50251,0.057 1.00502,-0.33071 1.50754,-0.27769 0.50251,0.053 1.00502,-0.33099 1.50753,-0.28189 0.50252,0.0491 1.00503,-0.33081 1.50754,-0.28564 0.50251,0.0452 1.00503,-0.33013 1.50754,-0.28888 0.50251,0.0412 1.00502,-0.32894 1.50754,-0.29162 0.50251,0.0373 1.00502,-0.32721 1.50753,-0.29382 0.50252,0.0334 1.00503,-0.32493 1.50754,-0.29547 0.50251,0.0295 1.00503,-0.32209 1.50754,-0.29656 0.50251,0.0255 1.00503,-0.31869 1.50754,-0.29708 0.50251,0.0216 1.00502,-0.3147 1.50754,-0.29703 0.50251,0.0177 1.00502,-0.31013 1.50753,-0.29638 0.50252,0.0137 1.00503,-0.30497 1.50754,-0.29515 0.50251,0.01 1.00503,-0.29924 1.50754,-0.29335 0.50251,0.006 1.00502,-0.29291 1.50754,-0.29095 0.50251,0.002 1.00502,-0.28602 1.50753,-0.28798 0.50252,-0.002 1.00503,-0.27857 1.50754,-0.28446 0.50251,-0.006 1.00503,-0.27055 1.50754,-0.28037 0.50251,-0.01 1.00502,-0.262 1.50754,-0.27575 0.50251,-0.0137 1.00502,-0.25293 1.50753,-0.2706 0.50252,-0.0177 1.00503,-0.24336 1.50754,-0.26497 0.50251,-0.0216 1.00503,-0.23331 1.50754,-0.25884 0.50251,-0.0255 1.00503,-0.22281 1.50754,-0.25227 0.50251,-0.0295 1.00502,-0.21189 1.50754,-0.24527 0.50251,-0.0334 1.00502,-0.20057 1.50753,-0.23788 0.50252,-0.0373 1.00503,-0.18888 1.50754,-0.23012 0.50251,-0.0412 1.00503,-0.17686 1.50754,-0.22203 0.50251,-0.0452 1.00502,-0.16454 1.50754,-0.21364 0.50251,-0.0491 1.00502,-0.15196 1.50753,-0.20499 0.50252,-0.053 1.00503,-0.13916 1.50754,-0.19611 0.50251,-0.057 1.00503,-0.12618 1.50754,-0.18706 0.50251,-0.0609 1.00502,-0.11305 1.50754,-0.17786 0.50251,-0.0648 1.00502,-0.0998 1.50753,-0.16855 0.50252,-0.0687 1.00503,-0.0865 1.50754,-0.15918 0.50251,-0.0727 1.00503,-0.0732 1.50754,-0.14979 0.50251,-0.0766 1.00503,-0.0599 1.50754,-0.14041 0.50251,-0.0805 1.00502,-0.0466 1.50754,-0.1311 0.50251,-0.0845 1.00502,-0.0335 1.50753,-0.12188 0.50252,-0.0884 1.00503,-0.0205 1.50754,-0.11279 0.50251,-0.0923 1.00503,-0.008 1.50754,-0.10389 0.50251,-0.0962 1.00502,0.005 1.50754,-0.0952 0.50251,-0.10017 1.00502,0.0173 1.50753,-0.0868 0.50252,-0.1041 1.00503,0.0294 1.50754,-0.0786 0.50251,-0.10802 1.00503,0.0412 1.50754,-0.0708 0.50251,-0.11195 1.00502,0.0526 1.50754,-0.0633 0.50251,-0.11587 1.00502,0.0637 1.50753,-0.0561 0.50252,-0.1198 1.00503,0.0744 1.50754,-0.0494 0.50251,-0.12374 1.00503,0.0846 1.50754,-0.0431 0.50251,-0.12766 1.00502,0.0944 1.50754,-0.0372 0.50251,-0.13159 1.00502,0.10379 1.50754,-0.0317 0.50251,-0.13552 1.00502,0.1127 1.50753,-0.0267 0.50252,-0.13944 1.00503,0.12116 1.50754,-0.0222 0.50251,-0.14337 1.00503,0.12915 1.50754,-0.0182 0.50251,-0.1473 1.00502,0.13667 1.50754,-0.0146 0.50251,-0.15123 1.00502,0.14374 1.50753,-0.0114 0.50252,-0.15516 1.00503,0.15036 1.50754,-0.009 0.50251,-0.15909 1.00503,0.15656 1.50754,-0.006 0.50251,-0.16302 1.00502,0.16235 1.50754,-0.005 0.50251,-0.16694 1.00502,0.16777 1.50753,-0.003 0.50252,-0.17087 1.00503,0.17284 1.50754,-0.002 0.50251,-0.1748 1.00503,0.1776 1.50754,-10e-4 0.50251,-0.17872 1.00502,0.18209 1.50754,-5.7e-4 0.50251,-0.18265 1.00502,0.18635 1.50754,-2.3e-4 0.50251,-0.18658 1.00502,0.19045 1.50753,-6e-5 0.50252,-0.19052 1.00503,0.19443 1.50754,-1e-5 0.50251,-0.19444 1.00503,0.19837 1.50754,0 0.50251,-0.19837 1.00502,0.20232 1.50754,3e-5 0.50251,-0.2023 1.00502,0.20636 1.50753,1.4e-4 0.50252,-0.20623 1.00503,0.21057 1.50754,4.2e-4 0.50251,-0.21015 1.00503,0.21503 1.50754,9.5e-4 0.50251,-0.21408 1.00502,0.21982 1.50754,0.002 0.50251,-0.21801 1.00502,0.22503 1.50753,0.003 0.50252,-0.22194 1.00503,0.23074 1.50754,0.005 0.50251,-0.22587 1.00503,0.23706 1.50754,0.007 0.50251,-0.22979 1.00502,0.24408 1.50754,0.0104 0.50251,-0.23372 1.00502,0.2519 1.50754,0.0142 0.50251,-0.23765 1.00502,0.26061 1.50753,0.019 0.50252,-0.24157 1.00503,0.27032 1.50754,0.0248 0.50251,-0.24551 1.00503,0.28112 1.50754,0.0317 0.50251,-0.24943 1.00502,0.29311 1.50754,0.0397 0.50251,-0.25336 1.00502,0.30639 1.50753,0.0491 0.50252,-0.25729 1.00503,0.32104 1.50754,0.0598 0.50251,-0.26121 1.00503,0.33717 1.50754,0.072 0.50251,-0.26514 1.00502,0.35484 1.50754,0.0858 0.50251,-0.26907 1.00502,0.37413 1.50753,0.10113 0.50252,-0.273 1.00503,0.39512 1.50754,0.11819 0.50251,-0.27693 1.00503,0.41787 1.50754,0.13701 0.50251,-0.28086 1.00502,0.44241 1.50754,0.15763 0.50251,-0.28479 1.00502,0.46881 1.50754,0.1801 0.50251,-0.28872 1.00502,0.49707 1.50753,0.20443 0.50252,-0.29264 1.00503,0.52721 1.50754,0.23064 0.50251,-0.29657 1.00503,0.55922 1.50754,0.25872 0.50251,-0.3005 1.00502,0.59307 1.50754,0.28865 0.50251,-0.30443 1.00502,0.62872 1.50753,0.32037 0.50252,-0.30835 1.00503,0.6661 1.50754,0.35382 0.50251,-0.31228 1.00503,0.70511 1.50754,0.3889 0.50251,-0.31621 1.00502,0.74564 1.50754,0.4255 0.50251,-0.32014 1.00502,0.78751 1.50753,0.46345 0.50252,-0.32407 1.00503,0.83056 1.50754,0.50257 0.50251,-0.328 1.00503,0.87456 1.50754,0.54264 0.50251,-0.33192 1.00502,0.91927 1.50754,0.58342 0.50251,-0.33585 1.00502,0.96437 1.50754,0.62459 0.50251,-0.33978 1.00502,1.00951 1.50753,0.66581 0.50252,-0.34371 1.00503,1.05433 1.50754,0.70669 0.50251,-0.34763 1.00503,1.09837 1.50754,0.74681 0.50251,-0.35156 1.00502,1.14114 1.50754,0.78565 0.50251,-0.3555 1.00502,1.18207 1.50753,0.82265 0.50252,-0.35941 1.00503,1.22059 1.50754,0.85724 0.50251,-0.36334 1.00503,1.25598 1.50754,0.8887 0.50251,-0.36727 1.00502,1.2875 1.50754,0.9163 0.50251,-0.37121 1.00502,1.31433 1.50753,0.9392 0.50252,-0.37513 1.00503,1.33558 1.50754,0.95652 0.50251,-0.37906 1.00503,1.35025 1.50754,0.96727 0.50251,-0.38299 1.00502,1.35728 1.50754,0.97037 0.50251,-0.38692 1.00502,1.35551 1.50753,0.96467"
       title="0.888889*x**9+0.2*x**8-2.30857*x**7-0.498667*x**6+1.92896*x**5+0.37644*x**4-0.79528*x**3-0.13794*x**2+0.24563*x"
       id="path4067" />
    <path
       transform="matrix(3.1454995,0,0,1.7773549,-96.454053,-349.68268)"
       sodipodi:open="true"
       sodipodi:end="12.53216"
       sodipodi:start="6.2499891"
       d="m 51.999449,223.32899 a 1,1 0 1 1 -3.4e-5,-0.001"
       sodipodi:ry="1"
       sodipodi:rx="1"
       sodipodi:cy="223.36218"
       sodipodi:cx="51"
       id="path4238"
       style="color:#000000;fill:#827474;fill-opacity:1;stroke:none;stroke-width:0.5;marker:none;visibility:visible;display:inline;overflow:visible;enable-background:accumulate"
       sodipodi:type="arc" />
    <path
       sodipodi:type="arc"
       style="color:#000000;fill:#827474;fill-opacity:1;stroke:none;stroke-width:0.5;marker:none;visibility:visible;display:inline;overflow:visible;enable-background:accumulate"
       id="path4242"
       sodipodi:cx="51"
       sodipodi:cy="223.36218"
       sodipodi:rx="1"
       sodipodi:ry="1"
       d="m 51.999449,223.32899 a 1,1 0 1 1 -3.4e-5,-0.001"
       sodipodi:start="6.2499891"
       sodipodi:end="12.53216"
       sodipodi:open="true"
       transform="matrix(4.4514557,0,0,2.2126736,-132.79792,-441.50597)" />
    <path
       transform="matrix(3.3254605,0,0,1.6529781,-75.48995,-326.37922)"
       sodipodi:open="true"
       sodipodi:end="12.53216"
       sodipodi:start="6.2499891"
       d="m 51.999449,223.32899 a 1,1 0 1 1 -3.4e-5,-0.001"
       sodipodi:ry="1"
       sodipodi:rx="1"
       sodipodi:cy="223.36218"
       sodipodi:cx="51"
       id="path4244"
       style="color:#000000;fill:#827474;fill-opacity:1;stroke:none;stroke-width:0.5;marker:none;visibility:visible;display:inline;overflow:visible;enable-background:accumulate"
       sodipodi:type="arc" />
    <g
       transform="matrix(1.0230206,0,0,1.0258983,149.48633,-1.2887594)"
       id="g4269">
      <path
         transform="matrix(1.0006374,0,0,-0.66404364,-0.05896122,203.03067)"
         sodipodi:open="true"
         sodipodi:end="9.4272216"
         sodipodi:start="6.2499891"
         d="m 164.96006,234.34774 c 1.32895,8.55569 -30.03519,15.72178 -70.053777,16.0059 -40.018584,0.28412 -73.537386,-6.42131 -74.86634,-14.97701 -0.02859,-0.18404 -0.04183,-0.36818 -0.03973,-0.55232"
         sodipodi:ry="15.5"
         sodipodi:rx="72.5"
         sodipodi:cy="234.86218"
         sodipodi:cx="92.5"
         id="path4271"
         style="color:#000000;fill:none;stroke:#d32c2c;stroke-width:0.61338526;stroke-linecap:round;stroke-linejoin:round;stroke-miterlimit:4;stroke-opacity:0.62053576;stroke-dasharray:none;stroke-dashoffset:0;marker:none;visibility:visible;display:inline;overflow:visible;enable-background:accumulate"
         sodipodi:type="arc" />
      <path
         sodipodi:type="arc"
         style="color:#000000;fill:none;stroke:#d32c2c;stroke-width:0.5;stroke-linecap:round;stroke-linejoin:round;stroke-miterlimit:4;stroke-opacity:0.62053576;stroke-dasharray:none;stroke-dashoffset:0;marker:none;visibility:visible;display:inline;overflow:visible;enable-background:accumulate"
         id="path4273"
         sodipodi:cx="92.5"
         sodipodi:cy="234.86218"
         sodipodi:rx="72.5"
         sodipodi:ry="15.5"
         d="m 164.96006,234.34774 c 1.32895,8.55569 -30.03519,15.72178 -70.053777,16.0059 -40.018584,0.28412 -73.537386,-6.42131 -74.86634,-14.97701 -0.02137,-0.13759 -0.03417,-0.27522 -0.03839,-0.41288"
         sodipodi:start="6.2499891"
         sodipodi:end="9.4182253"
         sodipodi:open="true"
         transform="translate(0,-187.61692)" />
    </g>
    <g
       id="g4281"
       transform="matrix(1.0230206,0,0,1.0258983,0.1147664,-1.2887594)">
      <path
         sodipodi:type="arc"
         style="color:#000000;fill:none;stroke:#d32c2c;stroke-width:0.61338526;stroke-linecap:round;stroke-linejoin:round;stroke-miterlimit:4;stroke-opacity:0.62053576;stroke-dasharray:none;stroke-dashoffset:0;marker:none;visibility:visible;display:inline;overflow:visible;enable-background:accumulate"
         id="path4283"
         sodipodi:cx="92.5"
         sodipodi:cy="234.86218"
         sodipodi:rx="72.5"
         sodipodi:ry="15.5"
         d="m 164.96006,234.34774 c 1.32895,8.55569 -30.03519,15.72178 -70.053777,16.0059 -40.018584,0.28412 -73.537386,-6.42131 -74.86634,-14.97701 -0.02859,-0.18404 -0.04183,-0.36818 -0.03973,-0.55232"
         sodipodi:start="6.2499891"
         sodipodi:end="9.4272216"
         sodipodi:open="true"
         transform="matrix(1.0006374,0,0,-0.66404364,-0.05896122,203.03067)" />
      <path
         transform="translate(0,-187.61692)"
         sodipodi:open="true"
         sodipodi:end="9.4182253"
         sodipodi:start="6.2499891"
         d="m 164.96006,234.34774 c 1.32895,8.55569 -30.03519,15.72178 -70.053777,16.0059 -40.018584,0.28412 -73.537386,-6.42131 -74.86634,-14.97701 -0.02137,-0.13759 -0.03417,-0.27522 -0.03839,-0.41288"
         sodipodi:ry="15.5"
         sodipodi:rx="72.5"
         sodipodi:cy="234.86218"
         sodipodi:cx="92.5"
         id="path4285"
         style="color:#000000;fill:none;stroke:#d32c2c;stroke-width:0.5;stroke-linecap:round;stroke-linejoin:round;stroke-miterlimit:4;stroke-opacity:0.62053576;stroke-dasharray:none;stroke-dashoffset:0;marker:none;visibility:visible;display:inline;overflow:visible;enable-background:accumulate"
         sodipodi:type="arc" />
    </g>
    <path
       sodipodi:type="arc"
       style="color:#000000;fill:#827474;fill-opacity:1;stroke:none;stroke-width:0.5;marker:none;visibility:visible;display:inline;overflow:visible;enable-background:accumulate"
       id="path4287"
       sodipodi:cx="51"
       sodipodi:cy="223.36218"
       sodipodi:rx="1"
       sodipodi:ry="1"
       d="m 51.999449,223.32899 a 1,1 0 1 1 -3.4e-5,-0.001"
       sodipodi:start="6.2499891"
       sodipodi:end="12.53216"
       sodipodi:open="true"
       transform="matrix(3.1454995,0,0,1.7773549,88.378851,-349.68268)" />
    <g
       ns0:preamble="/home/mik/research/cca/realproving/polypaver/20150519-Boldo-visit/talk/figs/inkscape-prelude.tex"
       ns0:text="$1$"
       word-spacing="normal"
       letter-spacing="normal"
       font-size-adjust="none"
       font-stretch="normal"
       font-weight="normal"
       font-variant="normal"
       font-style="normal"
       stroke-miterlimit="10.433"
       xml:space="preserve"
       transform="matrix(0.72861422,0,0,-0.89694022,-96.218845,689.64984)"
       id="content"
       style="font-style:normal;font-variant:normal;font-weight:normal;font-stretch:normal;letter-spacing:normal;word-spacing:normal;text-anchor:start;fill:none;stroke:#000000;stroke-linecap:butt;stroke-linejoin:miter;stroke-miterlimit:10.43299961;stroke-opacity:1;stroke-dasharray:none;stroke-dashoffset:0"><path
         id="path4318"
         d="m 226.36,713.48 0,0.01 0,0.01 0,0.02 0,0.01 0,0 0,0.01 0,0.01 0,0.01 0,0.01 0,0.01 0,0.01 0,0.01 0,0 -0.01,0.01 0,0.01 0,0 0,0.01 0,0.01 0,0.01 0,0.01 -0.01,0.01 0,0.01 0,0.01 -0.01,0 0,0.01 -0.01,0.01 0,0 -0.01,0.01 -0.01,0 -0.01,0.01 0,0 -0.01,0 0,0 -0.01,0 0,0 -0.01,0 -0.01,0.01 0,0 -0.01,0 -0.01,0 0,0 -0.01,0 -0.01,0 -0.01,0 0,0 -0.01,0 -0.01,0 -0.01,0 -0.01,0 -0.01,0 -0.01,0 -0.01,0 c -0.62,-0.64 -1.49,-0.64 -1.81,-0.64 v -0.3 c 0.2,0 0.78,0 1.3,0.25 v -5.14 c 0,-0.36 -0.03,-0.48 -0.92,-0.48 h -0.32 v -0.31 c 0.35,0.04 1.21,0.04 1.61,0.04 0.4,0 1.26,0 1.61,-0.04 v 0.31 h -0.32 c -0.89,0 -0.92,0.11 -0.92,0.48 z"
         inkscape:connector-curvature="0"
         style="fill:#000000;stroke-width:0" /></g>    <g
       style="font-style:normal;font-variant:normal;font-weight:normal;font-stretch:normal;letter-spacing:normal;word-spacing:normal;text-anchor:start;fill:none;stroke:#000000;stroke-linecap:butt;stroke-linejoin:miter;stroke-miterlimit:10.43299961;stroke-opacity:1;stroke-dasharray:none;stroke-dashoffset:0"
       id="g4348"
       transform="matrix(0.98407618,0,0,-1.2114195,-120.36199,912.43047)"
       xml:space="preserve"
       stroke-miterlimit="10.433"
       font-style="normal"
       font-variant="normal"
       font-weight="normal"
       font-stretch="normal"
       font-size-adjust="none"
       letter-spacing="normal"
       word-spacing="normal"
       ns0:text="$1$"
       ns0:preamble="/home/mik/research/cca/realproving/polypaver/20150519-Boldo-visit/talk/figs/inkscape-prelude.tex"><path
         style="fill:#000000;stroke-width:0"
         inkscape:connector-curvature="0"
         d="m 226.36,713.48 0,0.01 0,0.01 0,0.02 0,0.01 0,0 0,0.01 0,0.01 0,0.01 0,0.01 0,0.01 0,0.01 0,0.01 0,0 -0.01,0.01 0,0.01 0,0 0,0.01 0,0.01 0,0.01 0,0.01 -0.01,0.01 0,0.01 0,0.01 -0.01,0 0,0.01 -0.01,0.01 0,0 -0.01,0.01 -0.01,0 -0.01,0.01 0,0 -0.01,0 0,0 -0.01,0 0,0 -0.01,0 -0.01,0.01 0,0 -0.01,0 -0.01,0 0,0 -0.01,0 -0.01,0 -0.01,0 0,0 -0.01,0 -0.01,0 -0.01,0 -0.01,0 -0.01,0 -0.01,0 -0.01,0 c -0.62,-0.64 -1.49,-0.64 -1.81,-0.64 v -0.3 c 0.2,0 0.78,0 1.3,0.25 v -5.14 c 0,-0.36 -0.03,-0.48 -0.92,-0.48 h -0.32 v -0.31 c 0.35,0.04 1.21,0.04 1.61,0.04 0.4,0 1.26,0 1.61,-0.04 v 0.31 h -0.32 c -0.89,0 -0.92,0.11 -0.92,0.48 z"
         id="path4350" /></g>    <g
       ns0:preamble="/home/mik/research/cca/realproving/polypaver/20150519-Boldo-visit/talk/figs/inkscape-prelude.tex"
       ns0:text="$1$"
       word-spacing="normal"
       letter-spacing="normal"
       font-size-adjust="none"
       font-stretch="normal"
       font-weight="normal"
       font-variant="normal"
       font-style="normal"
       stroke-miterlimit="10.433"
       xml:space="preserve"
       transform="matrix(0.72861422,0,0,-0.89694022,-62.218845,679.64984)"
       id="g4352"
       style="font-style:normal;font-variant:normal;font-weight:normal;font-stretch:normal;letter-spacing:normal;word-spacing:normal;text-anchor:start;fill:none;stroke:#000000;stroke-linecap:butt;stroke-linejoin:miter;stroke-miterlimit:10.43299961;stroke-opacity:1;stroke-dasharray:none;stroke-dashoffset:0"><path
         id="path4354"
         d="m 226.36,713.48 0,0.01 0,0.01 0,0.02 0,0.01 0,0 0,0.01 0,0.01 0,0.01 0,0.01 0,0.01 0,0.01 0,0.01 0,0 -0.01,0.01 0,0.01 0,0 0,0.01 0,0.01 0,0.01 0,0.01 -0.01,0.01 0,0.01 0,0.01 -0.01,0 0,0.01 -0.01,0.01 0,0 -0.01,0.01 -0.01,0 -0.01,0.01 0,0 -0.01,0 0,0 -0.01,0 0,0 -0.01,0 -0.01,0.01 0,0 -0.01,0 -0.01,0 0,0 -0.01,0 -0.01,0 -0.01,0 0,0 -0.01,0 -0.01,0 -0.01,0 -0.01,0 -0.01,0 -0.01,0 -0.01,0 c -0.62,-0.64 -1.49,-0.64 -1.81,-0.64 v -0.3 c 0.2,0 0.78,0 1.3,0.25 v -5.14 c 0,-0.36 -0.03,-0.48 -0.92,-0.48 h -0.32 v -0.31 c 0.35,0.04 1.21,0.04 1.61,0.04 0.4,0 1.26,0 1.61,-0.04 v 0.31 h -0.32 c -0.89,0 -0.92,0.11 -0.92,0.48 z"
         inkscape:connector-curvature="0"
         style="fill:#000000;stroke-width:0" /></g>    <g
       id="g4394"
       transform="matrix(0.72861422,0,0,-0.89694022,89.147706,689.64984)"
       xml:space="preserve"
       stroke-miterlimit="10.433"
       font-style="normal"
       font-variant="normal"
       font-weight="normal"
       font-stretch="normal"
       font-size-adjust="none"
       letter-spacing="normal"
       word-spacing="normal"
       ns0:text="$3$"
       ns0:preamble="/home/mik/research/cca/realproving/polypaver/20150519-Boldo-visit/talk/figs/inkscape-prelude.tex"
       style="font-style:normal;font-variant:normal;font-weight:normal;font-stretch:normal;letter-spacing:normal;word-spacing:normal;text-anchor:start;fill:none;stroke:#000000;stroke-linecap:butt;stroke-linejoin:miter;stroke-miterlimit:10.43299961;stroke-opacity:1;stroke-dasharray:none;stroke-dashoffset:0"><path
         style="fill:#000000;stroke-width:0"
         inkscape:connector-curvature="0"
         d="m 226.32,710.62 0.07,0.03 0.08,0.03 0.07,0.03 0.07,0.03 0.07,0.04 0.07,0.04 0.06,0.04 0.07,0.04 0.06,0.04 0.06,0.05 0.06,0.05 0.06,0.05 0.05,0.05 0.05,0.05 0.05,0.06 0.05,0.05 0.04,0.06 0.05,0.06 0.04,0.06 0.03,0.06 0.04,0.07 0.03,0.06 0.03,0.07 0.03,0.06 0.02,0.07 0.02,0.07 0.02,0.07 0.01,0.07 0.02,0.07 0,0.07 0.01,0.08 0,0.07 c 0,0.81 -0.87,1.37 -1.83,1.37 -1,0 -1.76,-0.59 -1.76,-1.35 0,-0.33 0.22,-0.52 0.51,-0.52 0.3,0 0.5,0.22 0.5,0.51 0,0.5 -0.46,0.5 -0.61,0.5 0.3,0.48 0.96,0.61 1.32,0.61 0.41,0 0.95,-0.22 0.95,-1.11 0,-0.12 -0.02,-0.7 -0.27,-1.13 -0.3,-0.48 -0.64,-0.51 -0.89,-0.52 -0.08,-0.01 -0.32,-0.03 -0.39,-0.03 -0.08,-0.01 -0.15,-0.02 -0.15,-0.12 0,-0.11 0.07,-0.11 0.24,-0.11 h 0.44 c 0.82,0 1.18,-0.67 1.18,-1.65 0,-1.35 -0.68,-1.64 -1.12,-1.64 -0.43,0 -1.17,0.17 -1.52,0.76 0.35,-0.05 0.65,0.17 0.65,0.55 0,0.35 -0.26,0.55 -0.55,0.55 -0.24,0 -0.56,-0.14 -0.56,-0.57 0,-0.91 0.92,-1.56 2.01,-1.56 1.21,0 2.12,0.9 2.12,1.91 0,0.82 -0.63,1.59 -1.66,1.8 z"
         id="path4396" /></g>    <g
       style="stroke-width:0.99711984;stroke-miterlimit:4;stroke-dasharray:none"
       transform="matrix(0.50934375,0,0,0.51077651,10.238107,22.692605)"
       id="g4432">
      <path
         transform="matrix(1.0006374,0,0,-0.66404364,-0.05896122,203.03067)"
         sodipodi:open="true"
         sodipodi:end="9.4272216"
         sodipodi:start="6.2499891"
         d="m 164.96006,234.34774 c 1.32895,8.55569 -30.03519,15.72178 -70.053777,16.0059 -40.018584,0.28412 -73.537386,-6.42131 -74.86634,-14.97701 -0.02859,-0.18404 -0.04183,-0.36818 -0.03973,-0.55232"
         sodipodi:ry="15.5"
         sodipodi:rx="72.5"
         sodipodi:cy="234.86218"
         sodipodi:cx="92.5"
         id="path4434"
         style="color:#000000;fill:none;stroke:#d32c2c;stroke-width:1.22323728;stroke-linecap:round;stroke-linejoin:round;stroke-miterlimit:4;stroke-opacity:0.62053576;stroke-dasharray:none;stroke-dashoffset:0;marker:none;visibility:visible;display:inline;overflow:visible;enable-background:accumulate"
         sodipodi:type="arc" />
      <path
         sodipodi:type="arc"
         style="color:#000000;fill:none;stroke:#d32c2c;stroke-width:0.99711984;stroke-linecap:round;stroke-linejoin:round;stroke-miterlimit:4;stroke-opacity:0.62053576;stroke-dasharray:none;stroke-dashoffset:0;marker:none;visibility:visible;display:inline;overflow:visible;enable-background:accumulate"
         id="path4436"
         sodipodi:cx="92.5"
         sodipodi:cy="234.86218"
         sodipodi:rx="72.5"
         sodipodi:ry="15.5"
         d="m 164.96006,234.34774 c 1.32895,8.55569 -30.03519,15.72178 -70.053777,16.0059 -40.018584,0.28412 -73.537386,-6.42131 -74.86634,-14.97701 -0.02137,-0.13759 -0.03417,-0.27522 -0.03839,-0.41288"
         sodipodi:start="6.2499891"
         sodipodi:end="9.4182253"
         sodipodi:open="true"
         transform="translate(0,-187.61692)" />
    </g>
    <g
       id="g4444"
       transform="matrix(0.50934375,0,0,0.51077651,84.657065,22.692605)"
       style="stroke-width:0.99711984;stroke-miterlimit:4;stroke-dasharray:none">
      <path
         sodipodi:type="arc"
         style="color:#000000;fill:none;stroke:#d32c2c;stroke-width:1.22323728;stroke-linecap:round;stroke-linejoin:round;stroke-miterlimit:4;stroke-opacity:0.62053576;stroke-dasharray:none;stroke-dashoffset:0;marker:none;visibility:visible;display:inline;overflow:visible;enable-background:accumulate"
         id="path4446"
         sodipodi:cx="92.5"
         sodipodi:cy="234.86218"
         sodipodi:rx="72.5"
         sodipodi:ry="15.5"
         d="m 164.96006,234.34774 c 1.32895,8.55569 -30.03519,15.72178 -70.053777,16.0059 -40.018584,0.28412 -73.537386,-6.42131 -74.86634,-14.97701 -0.02859,-0.18404 -0.04183,-0.36818 -0.03973,-0.55232"
         sodipodi:start="6.2499891"
         sodipodi:end="9.4272216"
         sodipodi:open="true"
         transform="matrix(1.0006374,0,0,-0.66404364,-0.05896122,203.03067)" />
      <path
         transform="translate(0,-187.61692)"
         sodipodi:open="true"
         sodipodi:end="9.4182253"
         sodipodi:start="6.2499891"
         d="m 164.96006,234.34774 c 1.32895,8.55569 -30.03519,15.72178 -70.053777,16.0059 -40.018584,0.28412 -73.537386,-6.42131 -74.86634,-14.97701 -0.02137,-0.13759 -0.03417,-0.27522 -0.03839,-0.41288"
         sodipodi:ry="15.5"
         sodipodi:rx="72.5"
         sodipodi:cy="234.86218"
         sodipodi:cx="92.5"
         id="path4448"
         style="color:#000000;fill:none;stroke:#d32c2c;stroke-width:0.99711984;stroke-linecap:round;stroke-linejoin:round;stroke-miterlimit:4;stroke-opacity:0.62053576;stroke-dasharray:none;stroke-dashoffset:0;marker:none;visibility:visible;display:inline;overflow:visible;enable-background:accumulate"
         sodipodi:type="arc" />
    </g>
    <path
       id="path4159"
       title="8*(x-0.51)*(x-0.51)*(x-0.51)*(x+0.7)*(x+1.1)*(x-1.1)*(x**2+x+0.29)"
       d=" M 19.210415 106.071385774 C 19.7129275628 106.462228882 20.2154401256 105.799097101 20.7179526884 106.186012138 C 21.2204652513 106.572927175 21.7229778141 105.316817997 22.2254903769 105.699804962 C 22.7280029397 106.082791928 23.2305155025 104.31999633 23.7330280653 104.699055224 C 24.2355406281 105.078114118 24.738053191 102.887521393 25.2405657538 103.262652216 C 25.7430783166 103.637783039 26.2455908794 101.091304387 26.7481034422 101.462507138 C 27.250616005 101.833709889 27.7531285678 98.9966859886 28.2556411307 99.3639606683 C 28.7581536935 99.731235348 29.2606662563 96.6628282627 29.7631788191 97.0261748709 C 30.2656913819 97.3895214791 30.7682039447 94.1430912726 31.2707165075 94.5025098094 C 31.7732290704 94.8619283462 32.2757416332 91.4853947586 32.778254196 91.8408852239 C 33.2807667588 92.1963756892 33.7832793216 88.7325652348 34.2857918844 89.0841276287 C 34.7883044472 89.4356900225 35.2908170101 85.9226688595 35.7933295729 86.2703031819 C 36.2958421357 86.6179375044 36.7983546985 83.0893304253 37.3008672613 83.4330366763 C 37.8033798241 83.7767429273 38.3058923869 80.2620388141 38.8084049497 80.6018169936 C 39.3109175126 80.9415951732 39.8134300754 77.4664392572 40.3159426382 77.8022893653 C 40.818455201 78.1381394735 41.3209677638 74.7246127373 41.8234803266 75.056534774 C 42.3259928894 75.3884568107 42.8285054523 72.0553428637 43.3310180151 72.383336829 C 43.8335305779 72.7113307942 44.3360431407 69.4743705512 44.8385557035 69.798436445 C 45.3410682663 70.1225023388 45.8435808291 66.9946368252 46.346093392 67.3147746476 C 46.8486059548 67.63491247 47.3511185176 64.626514076 47.8536310804 64.942723827 C 48.3561436432 65.2589335779 48.858656206 62.378026077 49.3611687688 62.6903077565 C 49.8636813317 63.002589436 50.3661938945 60.2550570811 50.8687064573 60.5634106891 C 51.3712190201 60.8717642972 51.8737315829 58.2615503044 52.3762441457 58.565975841 C 52.8787567085 58.8704013777 53.3812692714 56.3996961013 53.8837818342 56.7001935665 C 54.386294397 57.0006910317 54.8888069598 54.6701101327 55.3913195226 54.9666795264 C 55.8938320854 55.2632489202 56.3963446482 53.0720018248 56.8988572111 53.364643147 C 57.4013697739 53.6572844693 57.9038823367 51.6033334115 58.4063948995 51.8920466623 C 58.9089074623 52.1807599132 59.4114200251 50.2609698501 59.9139325879 50.5457550295 C 60.4164451508 50.8305402089 60.9189577136 49.0408198955 61.4214702764 49.3216770035 C 61.9239828392 49.6025341115 62.426495402 47.9379686144 62.9290079648 48.214897651 C 63.4315205276 48.4918266875 63.9340330905 46.9468016178 64.4365456533 47.2198025829 C 64.9390582161 47.492803548 65.4415707789 46.0611212848 65.9440833417 46.3301941784 C 66.4465959045 46.5992670721 66.9491084673 45.2742552482 67.4516210302 45.5394000704 C 67.954133593 45.8045448926 68.4566461558 44.5791574075 68.9591587186 44.8403741582 C 69.4616712814 45.101590909 69.9641838442 43.9685017307 70.466696407 44.22579041 C 70.9692089698 44.4830790893 71.4717215327 43.4347691045 71.9742340955 43.6881297124 C 72.4767466583 43.9414903203 72.9792592211 42.9703274855 73.4817717839 43.2197600219 C 73.9842843467 43.4691925584 74.4867969095 42.5675056036 74.9893094724 42.8130100686 C 75.4918220352 43.0585145336 75.994334598 42.2186604636 76.4968471608 42.4602368572 C 76.9993597236 42.7018132508 77.5018722864 41.9162388874 78.0043848492 42.1538872095 C 78.5068974121 42.3915355316 79.0094099749 41.6528333352 79.5119225377 41.8865535859 C 80.0144351005 42.1202738366 80.5169476633 41.4212322412 81.0194602261 41.6510244205 C 81.5219727889 41.8808165997 82.0244853518 41.2144650927 82.5269979146 41.4403292005 C 83.0295104774 41.6661933083 83.5320230402 41.0258424807 84.034535603 41.2477785171 C 84.5370481658 41.4697145534 85.0395607286 40.8489913451 85.5420732915 41.0669993101 C 86.0445858543 41.285007275 86.5470984171 40.6778856321 87.0496109799 40.8919655256 C 87.5521235427 41.1060454191 88.0546361055 40.5068725794 88.5571486683 40.7170244014 C 89.0596612312 40.9271762235 89.562173794 40.3306948411 90.0646863568 40.5369185917 C 90.5671989196 40.7431423423 91.0697114824 40.1445086581 91.5722240452 40.3468043373 C 92.074736608 40.5491000164 92.5772491709 39.9438982783 93.0797617337 40.142265886 C 93.5822742965 40.3406334937 94.0847868593 39.7248868251 94.5872994221 39.9193263614 C 95.0898119849 40.1137658976 95.5923245477 39.4839438103 96.0948371106 39.6744552751 C 96.5973496734 39.86496674 97.0998622362 39.2179894828 97.602374799 39.4045728762 C 98.1048873618 39.5911562696 98.6073999246 38.9243961998 99.1099124874 39.1070515217 C 99.6124250503 39.2897068437 100.114937613 38.6009870058 100.617450176 38.7797142563 C 101.119962739 38.9584415069 101.622475302 38.2460315974 102.124987864 38.4208307765 C 102.627500427 38.5956299556 103.13001299 37.8582398509 103.632525553 38.0291109586 C 104.135038116 38.1999820662 104.637550678 37.4367530842 105.140063241 37.6036961205 C 105.642575804 37.7706391567 106.145088367 36.9811332209 106.64760093 37.1441481857 C 107.150113492 37.3071631504 107.652626055 36.4913500207 108.155138618 36.6504369141 C 108.657651181 36.8095238074 109.160163744 35.967766537 109.662676307 36.1229253589 C 110.165188869 36.2780841808 110.667701432 35.4111229561 111.170213995 35.5623537066 C 111.672726558 35.713584457 112.175239121 34.8225189729 112.677751683 34.9698216519 C 113.180264246 35.1171243309 113.682776809 34.2033948488 114.185289372 34.3467694564 C 114.687801935 34.490144064 115.190314497 33.5555112986 115.69282706 33.6949578347 C 116.195339623 33.8344043708 116.697852186 32.8809283453 117.200364749 33.01644681 C 117.702877312 33.1519652747 118.205389874 32.1819832806 118.707902437 32.3135736738 C 119.210415 32.4451640671 119.712927563 31.4612678631 120.215440126 31.5889301849 C 120.717952688 31.7165925067 121.220465251 30.7216048832 121.722977814 30.8453391336 C 122.225490377 30.9690733839 122.72800294 29.96602422 123.230515503 30.0858303989 C 123.733028065 30.2056365779 124.235540628 29.1977385105 124.738053191 29.313616618 C 125.240565754 29.4294947255 125.743078317 28.4201185487 126.245590879 28.5320685848 C 126.748103442 28.6440186208 127.250616005 27.6366685278 127.753128568 27.7446904924 C 128.255641131 27.852712457 128.758153693 26.8510012339 129.260666256 26.955095127 C 129.763178819 27.0591890202 130.265691382 26.0668132978 130.768203945 26.1669791195 C 131.270716508 26.2671449413 131.77322907 25.2878606054 132.275741633 25.3840983557 C 132.778254196 25.480336106 133.280766759 24.517933964 133.783279322 24.6102436428 C 134.285791884 24.7025533217 134.788304447 23.7608351191 135.29081701 23.8492167265 C 135.793329573 23.9375983339 136.295842136 23.0203532104 136.798354698 23.1048067463 C 137.300867261 23.1892602823 137.803379824 22.3002417529 138.305892387 22.3807672174 C 138.80840495 22.461292682 139.310917513 21.6041962256 139.813430075 21.6807936187 C 140.315942638 21.7573910117 140.818455201 20.9358323443 141.320967764 21.0085016659 C 141.823480327 21.0811709876 142.325992889 20.2986650943 142.828505452 20.3674063445 C 143.331018015 20.4361475947 143.833530578 19.6960885915 144.336043141 19.7609017702 C 144.838555704 19.825714949 145.341068266 19.1313568383 145.843580829 19.1922419457 C 146.346093392 19.253127053 146.848605955 18.6075654383 147.351118518 18.6645224742 C 147.85363108 18.7214795101 148.356143643 18.1276343247 148.858656206 18.1806632891 C 149.361168769 18.2336922535 149.863681332 17.6942915603 150.366193894 17.7433924533 C 150.868706457 17.7924933463 151.37121902 17.3100582576 151.873731583 17.3552310791 C 152.376244146 17.4004039007 152.878756709 16.9772346655 153.381269271 17.0184794156 C 153.883781834 17.0597241658 154.386294397 16.6978874667 154.88880696 16.7352041454 C 155.391319523 16.7725208241 155.893832085 16.4738383225 156.396344648 16.5072269298 C 156.898857211 16.540615537 157.401369774 16.3066537017 157.903882337 16.3361142376 C 158.406394899 16.3655747734 158.908907462 16.1976360234 159.411420025 16.2231684878 C 159.913932588 16.2487009522 160.416445151 16.1478161407 160.918957714 16.1694205336 C 161.421470276 16.1910249265 161.923982839 16.1579471887 162.426495402 16.1756235102 C 162.929007965 16.1932998317 163.431520528 16.2284998164 163.93403309 16.2422480664 C 164.436545653 16.2559963165 164.939058216 16.3596588162 165.441570779 16.3694789948 C 165.944083342 16.3792991734 166.446595905 16.5513211637 166.949108467 16.5572132709 C 167.45162103 16.563105378 167.954133593 16.8030954751 168.456646156 16.8050595108 C 168.959158719 16.8070235466 169.461671281 17.1143028847 169.964183844 17.112338849 C 170.466696407 17.1103748132 170.96920897 17.4839793427 171.471721533 17.4780872356 C 171.974234095 17.4721951284 172.476746658 17.9108793297 172.979259221 17.9010591511 C 173.481771784 17.8912389725 173.984284347 18.3934809776 174.48679691 18.3797327276 C 174.989309472 18.3659844776 175.491822035 18.9299925869 175.994334598 18.9123162654 C 176.496847161 18.894639944 176.999359724 19.5183605227 177.501872286 19.4967561298 C 178.004384849 19.4751517368 178.506897412 20.1562784703 179.009409975 20.1307460059 C 179.511922538 20.1052135415 180.014435101 20.8411980259 180.516947663 20.8117374901 C 181.019460226 20.7822769543 181.521972789 21.570340595 182.024485352 21.5369519877 C 182.526997915 21.5035633805 183.029510477 22.340710566 183.53202304 22.3033938873 C 184.034535603 22.2660772086 184.537048166 23.1491097244 185.039560729 23.1078649743 C 185.542073291 23.0666202241 186.044585854 23.9921528665 186.547098417 23.946980045 C 187.04961098 23.9018072234 187.552123543 24.866284571 188.054636106 24.817183678 C 188.557148668 24.768082785 189.059661231 25.7677970784 189.562173794 25.714768114 C 190.064686357 25.6617391495 190.56719892 26.6928492303 191.069711482 26.6358921944 C 191.572224045 26.5789351585 192.074736608 27.6374864096 192.577249171 27.5766013023 C 193.079761734 27.515716195 193.582274296 28.5976614254 194.084786859 28.5328482466 C 194.587299422 28.4680350679 195.089811985 29.5692562774 195.592324548 29.5005150272 C 196.094837111 29.431773777 196.597349673 30.5481047342 197.099862236 30.4754354126 C 197.602374799 30.402766091 198.104887362 31.5300156541 198.607399925 31.453418261 C 199.109912487 31.3768208679 199.61242505 32.5107969724 200.114937613 32.4302715078 C 200.617450176 32.3497460433 201.119962739 33.4862802783 201.622475302 33.4018267423 C 202.124987864 33.3173732064 202.627500427 34.4523458979 203.13001299 34.3639642905 C 203.632525553 34.2755826831 204.135038116 35.4049483955 204.637550678 35.3126387167 C 205.140063241 35.2203290378 205.642575804 36.3401424051 206.145088367 36.2439046548 C 206.64760093 36.1476669045 207.150113492 37.2541086948 207.652626055 37.1539428731 C 208.155138618 37.0537770513 208.657651181 38.1431803686 209.160163744 38.0390864754 C 209.662676307 37.9349925823 210.165188869 39.0038691008 210.667701432 38.8958471362 C 211.170213995 38.7878251716 211.672726558 39.8328912983 212.175239121 39.7209412623 C 212.677751683 39.6089912262 213.180264246 40.6271940806 213.682776809 40.5113159731 C 214.185289372 40.3954378656 214.687801935 41.383980962 215.190314497 41.264174783 C 215.69282706 41.1443686041 216.195339623 42.1007371205 216.697852186 41.9770028701 C 217.200364749 41.8532686198 217.702877312 42.7752541292 218.205389874 42.6475918074 C 218.707902437 42.5199294856 219.210415 43.4056540257 219.712927563 43.2740636325 C 220.215440126 43.1424732392 220.717952688 43.9904125894 221.220465251 43.8548941247 C 221.722977814 43.71937566 222.225490377 44.5283816929 222.72800294 44.3889351568 C 223.230515503 44.2494886207 223.733028065 45.0188105908 224.235540628 44.8754359833 C 224.738053191 44.7320613757 225.240565754 45.461366003 225.743078317 45.314063324 C 226.245590879 45.1667606449 226.748103442 45.8561508481 227.250616005 45.7049200976 C 227.753128568 45.5536893472 228.255641131 46.2037214781 228.758153693 46.0485626562 C 229.260666256 45.8934038343 229.763178819 46.5051032594 230.265691382 46.3460163661 C 230.768203945 46.1869294728 231.270716508 46.7618043452 231.77322907 46.5987893804 C 232.275741633 46.4357744157 232.778254196 46.9758274758 233.280766759 46.8088844396 C 233.783279322 46.6419414034 234.285791884 47.1496796445 234.788304447 46.9788085368 C 235.29081701 46.8079374292 235.793329573 47.2863794577 236.295842136 47.1115802786 C 236.798354698 46.9367810995 237.300867261 47.3894620185 237.803379824 47.210734768 C 238.305892387 47.0320075174 238.80840495 47.4629811552 239.310917513 47.2803258332 C 239.813430075 47.0976705113 240.315942638 47.5115088158 240.818455201 47.3249254224 C 241.320967764 47.138342029 241.823480327 47.5401314428 242.325992889 47.3496199779 C 242.828505452 47.1591085131 243.331018015 47.5544431396 243.833530578 47.3600036033 C 244.336043141 47.1655640671 244.838555704 47.5605354381 245.341068266 47.3621678304 C 245.843580829 47.1638002226 246.346093392 47.564983468 246.848605955 47.3626877888 C 247.351118518 47.1603921096 247.85363108 47.5748283307 248.356143643 47.3686045801 C 248.858656206 47.1623808295 249.361168769 47.5975554718 249.863681332 47.3874036498 C 250.366193894 47.1772518277 250.868706457 47.6410688445 251.37121902 47.426988951 C 251.873731583 47.2129090575 252.376244146 47.7136606521 252.878756709 47.4956526872 C 253.381269271 47.2776447223 253.883781834 47.8239764542 254.386294397 47.6020404178 C 254.88880696 47.3801043814 255.391319523 47.9809754153 255.893832085 47.7551113075 C 256.396344648 47.5292471997 256.898857211 48.193885474 257.401369774 47.9640932947 C 257.903882337 47.7343011155 258.406394899 48.4721532036 258.908907462 48.2384329529 C 259.411420025 48.0047127022 259.913932588 48.8253881333 260.416445151 48.5877398112 C 260.918957714 48.3500914891 261.421470276 49.2633012945 261.923982839 49.021724901 C 262.426495402 48.7801485074 262.929007965 49.7956377522 263.431520528 49.5501332872 C 263.93403309 49.3046288222 264.436545653 50.4321028792 264.939058216 50.1826703428 C 265.441570779 49.9332378063 265.944083342 51.182282125 266.446595905 50.9289215171 C 266.949108467 50.6755609092 267.45162103 52.0555540286 267.954133593 51.7982653493 C 268.456646156 51.5409766699 268.959158719 53.0609962201 269.461671281 52.7997794694 C 269.964183844 52.5385627186 270.466696407 54.2072841524 270.96920897 53.9421393302 C 271.471721533 53.676994508 271.974234095 55.5025822991 272.476746658 55.2335094054 C 272.979259221 54.9644365118 273.481771784 56.9544275534 273.984284347 56.6814265883 C 274.48679691 56.4084256232 274.989309472 58.5696045558 275.491822035 58.2926755193 C 275.994334598 58.0157464828 276.496847161 60.3540126767 276.999359724 60.0731555687 C 277.501872286 59.7922984608 278.004384849 62.3125243751 278.506897412 62.0277391957 C 279.009409975 61.7429540163 279.511922538 64.4488346509 280.014435101 64.1601214001 C 280.516947663 63.8714081492 281.019460226 66.765301305 281.521972789 66.4726599827 C 282.024485352 66.1800186604 282.526997915 69.2627757153 283.029510477 68.9662063215 C 283.53202304 68.6696369278 284.034535603 71.9404238365 284.537048166 71.6399263713 C 285.039560729 71.3394289061 285.542073291 74.7955371238 286.044585854 74.4911115872 C 286.547098417 74.1866860506 287.04961098 77.8233330796 287.552123543 77.5149794716 C 288.054636106 77.2066258635 288.557148668 81.0167451159 289.059661231 80.7044634364 C 289.562173794 80.3921817569 290.064686357 84.3662014241 290.56719892 84.0499916731 C 291.069711482 83.7337819222 291.572224045 87.8593925373 292.074736608 87.5392547149 C 292.577249171 87.2191168926 293.079761734 91.4810272676 293.582274296 91.1569613738 C 294.084786859 90.83289548 294.587299422 95.2125766967 295.089811985 94.8845827315 C 295.592324548 94.5565887662 296.094837111 99.0320058945 296.597349673 98.7000838579 C 297.099862236 98.3681618212 297.602374799 102.913493036 298.104887362 102.577642928 C 298.607399925 102.24179282 299.109912487 106.827135582 299.61242505 106.487357403 C 300.114937613 106.147579223 300.617450176 110.738643192 301.119962739 110.394936941 C 301.622475302 110.05123069 302.124987864 114.609017014 302.627500427 114.261382691 C 303.13001299 113.913748369 303.632525553 118.394215026 304.135038116 118.042652632 C 304.637550678 117.691090238 305.140063241 122.044803064 305.642575804 121.689312599 C 306.145088367 121.333822133 306.64760093 125.505591189 307.150113492 125.146172653 C 307.652626055 124.786754116 308.155138618 128.715255039 308.657651181 128.351908431 C 309.160163744 127.988561823 309.662676307 131.605941798 310.165188869 131.238667118 C 310.667701432 130.871392439 311.170213995 134.102860427 311.672726558 133.731657676 C 312.175239121 133.360454925 312.677751683 136.123855779 313.180264246 135.748724956 C 313.682776809 135.373594133 314.185289372 137.57896623 314.687801935 137.199907336 C 315.190314497 136.820848442 315.69282706 138.369964451 316.195339623 137.986977486 C 316.697852186 137.60399052 317.200364749 138.389880938 317.702877312 138.002965901 C 318.205389874 137.616050864 318.707902437 137.522509911 319.210415 137.131666802"
       style="color:#000000;fill:none;fill-opacity:0.08928570000000000;stroke:#9dc2d0;stroke-width:1.44000006000000003;stroke-opacity:1;marker:none;visibility:visible;display:inline;overflow:visible;enable-background:accumulate;stroke-linecap:butt;stroke-linejoin:miter;stroke-miterlimit:4;stroke-dasharray:2.88000011000000011, 1.44000006000000003;stroke-dashoffset:0" />
  </g>
</svg>
