<?xml version="1.0" encoding="UTF-8"?>
<!DOCTYPE svg PUBLIC "-//W3C//DTD SVG 1.1//EN"
    "http://www.w3.org/Graphics/SVG/1.1/DTD/svg11.dtd"><svg xmlns="http://www.w3.org/2000/svg" height="300.0000" stroke-opacity="1" viewBox="0 0 300 300" font-size="1" width="300.0000" xmlns:xlink="http://www.w3.org/1999/xlink" stroke="rgb(0,0,0)" version="1.1"><defs></defs><defs></defs><g stroke-linejoin="bevel" stroke-opacity="0.0" fill-opacity="1.0" stroke="rgb(0,0,0)" stroke-width="0.0" fill="rgb(255,255,255)" stroke-linecap="butt" stroke-miterlimit="10.0"><path d="M 0.0000,0.0000 v 300.0000 h 300.0000 v -300.0000 Z"/></g><defs></defs><g stroke-linejoin="miter" stroke-opacity="1.0" fill-opacity="0.0" stroke="rgb(211,211,211)" stroke-width="0.9999999999999997" fill="rgb(0,0,0)" stroke-dashoffset="0.0" stroke-linecap="butt" stroke-miterlimit="10.0" stroke-dasharray="4.999999999999998,4.999999999999998"><path d="M 54.9370,15.0000 v 214.0000 "/></g><defs></defs><g stroke-linejoin="miter" stroke-opacity="1.0" fill-opacity="0.0" stroke="rgb(211,211,211)" stroke-width="0.9999999999999997" fill="rgb(0,0,0)" stroke-dashoffset="0.0" stroke-linecap="butt" stroke-miterlimit="10.0" stroke-dasharray="4.999999999999998,4.999999999999998"><path d="M 131.7122,15.0000 v 214.0000 "/></g><defs></defs><g stroke-linejoin="miter" stroke-opacity="1.0" fill-opacity="0.0" stroke="rgb(211,211,211)" stroke-width="0.9999999999999997" fill="rgb(0,0,0)" stroke-dashoffset="0.0" stroke-linecap="butt" stroke-miterlimit="10.0" stroke-dasharray="4.999999999999998,4.999999999999998"><path d="M 208.4874,15.0000 v 214.0000 "/></g><defs></defs><g stroke-linejoin="miter" stroke-opacity="1.0" fill-opacity="0.0" stroke="rgb(211,211,211)" stroke-width="0.9999999999999997" fill="rgb(0,0,0)" stroke-dashoffset="0.0" stroke-linecap="butt" stroke-miterlimit="10.0" stroke-dasharray="4.999999999999998,4.999999999999998"><path d="M 285.2626,15.0000 v 214.0000 "/></g><defs></defs><g stroke-linejoin="miter" stroke-opacity="1.0" fill-opacity="0.0" stroke="rgb(211,211,211)" stroke-width="0.9999999999999997" fill="rgb(0,0,0)" stroke-dashoffset="0.0" stroke-linecap="butt" stroke-miterlimit="10.0" stroke-dasharray="4.999999999999998,4.999999999999998"><path d="M 54.9370,229.0000 h 230.3256 "/></g><defs></defs><g stroke-linejoin="miter" stroke-opacity="1.0" fill-opacity="0.0" stroke="rgb(211,211,211)" stroke-width="0.9999999999999997" fill="rgb(0,0,0)" stroke-dashoffset="0.0" stroke-linecap="butt" stroke-miterlimit="10.0" stroke-dasharray="4.999999999999998,4.999999999999998"><path d="M 54.9370,207.5265 h 230.3256 "/></g><defs></defs><g stroke-linejoin="miter" stroke-opacity="1.0" fill-opacity="0.0" stroke="rgb(211,211,211)" stroke-width="0.9999999999999997" fill="rgb(0,0,0)" stroke-dashoffset="0.0" stroke-linecap="butt" stroke-miterlimit="10.0" stroke-dasharray="4.999999999999998,4.999999999999998"><path d="M 54.9370,207.5265 h 230.3256 "/></g><defs></defs><g stroke-linejoin="miter" stroke-opacity="1.0" fill-opacity="0.0" stroke="rgb(211,211,211)" stroke-width="0.9999999999999997" fill="rgb(0,0,0)" stroke-dashoffset="0.0" stroke-linecap="butt" stroke-miterlimit="10.0" stroke-dasharray="4.999999999999998,4.999999999999998"><path d="M 54.9370,157.6667 h 230.3256 "/></g><defs></defs><g stroke-linejoin="miter" stroke-opacity="1.0" fill-opacity="0.0" stroke="rgb(211,211,211)" stroke-width="0.9999999999999997" fill="rgb(0,0,0)" stroke-dashoffset="0.0" stroke-linecap="butt" stroke-miterlimit="10.0" stroke-dasharray="4.999999999999998,4.999999999999998"><path d="M 54.9370,136.1932 h 230.3256 "/></g><defs></defs><g stroke-linejoin="miter" stroke-opacity="1.0" fill-opacity="0.0" stroke="rgb(211,211,211)" stroke-width="0.9999999999999997" fill="rgb(0,0,0)" stroke-dashoffset="0.0" stroke-linecap="butt" stroke-miterlimit="10.0" stroke-dasharray="4.999999999999998,4.999999999999998"><path d="M 54.9370,136.1932 h 230.3256 "/></g><defs></defs><g stroke-linejoin="miter" stroke-opacity="1.0" fill-opacity="0.0" stroke="rgb(211,211,211)" stroke-width="0.9999999999999997" fill="rgb(0,0,0)" stroke-dashoffset="0.0" stroke-linecap="butt" stroke-miterlimit="10.0" stroke-dasharray="4.999999999999998,4.999999999999998"><path d="M 54.9370,86.3333 h 230.3256 "/></g><defs></defs><g stroke-linejoin="miter" stroke-opacity="1.0" fill-opacity="0.0" stroke="rgb(211,211,211)" stroke-width="0.9999999999999997" fill="rgb(0,0,0)" stroke-dashoffset="0.0" stroke-linecap="butt" stroke-miterlimit="10.0" stroke-dasharray="4.999999999999998,4.999999999999998"><path d="M 54.9370,64.8599 h 230.3256 "/></g><defs></defs><g stroke-linejoin="miter" stroke-opacity="1.0" fill-opacity="0.0" stroke="rgb(211,211,211)" stroke-width="0.9999999999999997" fill="rgb(0,0,0)" stroke-dashoffset="0.0" stroke-linecap="butt" stroke-miterlimit="10.0" stroke-dasharray="4.999999999999998,4.999999999999998"><path d="M 54.9370,64.8599 h 230.3256 "/></g><defs></defs><g stroke-linejoin="miter" stroke-opacity="1.0" fill-opacity="0.0" stroke="rgb(211,211,211)" stroke-width="0.9999999999999997" fill="rgb(0,0,0)" stroke-dashoffset="0.0" stroke-linecap="butt" stroke-miterlimit="10.0" stroke-dasharray="4.999999999999998,4.999999999999998"><path d="M 54.9370,15.0000 h 230.3256 "/></g><defs></defs><g stroke-linejoin="bevel" stroke-opacity="0.0" fill-opacity="1.0" stroke="rgb(0,0,0)" stroke-width="0.0" fill="rgb(176,224,230)" stroke-linecap="butt" stroke-miterlimit="10.0"><defs><clipPath id="myClip1"><path d="M 54.9370,15.0000 v 214.0000 h 230.3256 v -214.0000 Z"/></clipPath></defs><g clip-path="url(#myClip1)"><path d="M 75.2654,29.7874 c -1.3942,0.8952 -3.0324,0.8298 -3.6590 -0.1462c -0.6266,-0.9759 -0.0044,-2.4928 1.3898 -3.3880c 1.3942,-0.8952 3.0324,-0.8298 3.6590 0.1462c 0.6266,0.9759 0.0044,2.4928 -1.3898 3.3880Z"/></g></g><defs></defs><g stroke-linejoin="bevel" stroke-opacity="1.0" fill-opacity="0.0" stroke="rgb(176,224,230)" stroke-width="0.9999999999999997" fill="rgb(0,0,0)" stroke-linecap="butt" stroke-miterlimit="10.0"><defs><clipPath id="myClip2"><path d="M 54.9370,15.0000 v 214.0000 h 230.3256 v -214.0000 Z"/></clipPath></defs><g clip-path="url(#myClip2)"><path d="M 75.2654,29.7874 c -1.3942,0.8952 -3.0324,0.8298 -3.6590 -0.1462c -0.6266,-0.9759 -0.0044,-2.4928 1.3898 -3.3880c 1.3942,-0.8952 3.0324,-0.8298 3.6590 0.1462c 0.6266,0.9759 0.0044,2.4928 -1.3898 3.3880"/></g></g><defs></defs><g stroke-linejoin="bevel" stroke-opacity="0.0" fill-opacity="1.0" stroke="rgb(0,0,0)" stroke-width="0.0" fill="rgb(176,224,230)" stroke-linecap="butt" stroke-miterlimit="10.0"><defs><clipPath id="myClip3"><path d="M 54.9370,15.0000 v 214.0000 h 230.3256 v -214.0000 Z"/></clipPath></defs><g clip-path="url(#myClip3)"><path d="M 113.6530,29.7412 c -1.3942,0.8952 -3.0324,0.8298 -3.6590 -0.1462c -0.6266,-0.9759 -0.0044,-2.4928 1.3898 -3.3880c 1.3942,-0.8952 3.0324,-0.8298 3.6590 0.1462c 0.6266,0.9759 0.0044,2.4928 -1.3898 3.3880Z"/></g></g><defs></defs><g stroke-linejoin="bevel" stroke-opacity="1.0" fill-opacity="0.0" stroke="rgb(176,224,230)" stroke-width="0.9999999999999997" fill="rgb(0,0,0)" stroke-linecap="butt" stroke-miterlimit="10.0"><defs><clipPath id="myClip4"><path d="M 54.9370,15.0000 v 214.0000 h 230.3256 v -214.0000 Z"/></clipPath></defs><g clip-path="url(#myClip4)"><path d="M 113.6530,29.7412 c -1.3942,0.8952 -3.0324,0.8298 -3.6590 -0.1462c -0.6266,-0.9759 -0.0044,-2.4928 1.3898 -3.3880c 1.3942,-0.8952 3.0324,-0.8298 3.6590 0.1462c 0.6266,0.9759 0.0044,2.4928 -1.3898 3.3880"/></g></g><defs></defs><g stroke-linejoin="bevel" stroke-opacity="0.0" fill-opacity="1.0" stroke="rgb(0,0,0)" stroke-width="0.0" fill="rgb(176,224,230)" stroke-linecap="butt" stroke-miterlimit="10.0"><defs><clipPath id="myClip5"><path d="M 54.9370,15.0000 v 214.0000 h 230.3256 v -214.0000 Z"/></clipPath></defs><g clip-path="url(#myClip5)"><path d="M 152.0406,29.4394 c -1.3942,0.8952 -3.0324,0.8298 -3.6590 -0.1462c -0.6266,-0.9759 -0.0044,-2.4928 1.3898 -3.3880c 1.3942,-0.8952 3.0324,-0.8298 3.6590 0.1462c 0.6266,0.9759 0.0044,2.4928 -1.3898 3.3880Z"/></g></g><defs></defs><g stroke-linejoin="bevel" stroke-opacity="1.0" fill-opacity="0.0" stroke="rgb(176,224,230)" stroke-width="0.9999999999999997" fill="rgb(0,0,0)" stroke-linecap="butt" stroke-miterlimit="10.0"><defs><clipPath id="myClip6"><path d="M 54.9370,15.0000 v 214.0000 h 230.3256 v -214.0000 Z"/></clipPath></defs><g clip-path="url(#myClip6)"><path d="M 152.0406,29.4394 c -1.3942,0.8952 -3.0324,0.8298 -3.6590 -0.1462c -0.6266,-0.9759 -0.0044,-2.4928 1.3898 -3.3880c 1.3942,-0.8952 3.0324,-0.8298 3.6590 0.1462c 0.6266,0.9759 0.0044,2.4928 -1.3898 3.3880"/></g></g><defs></defs><g stroke-linejoin="bevel" stroke-opacity="0.0" fill-opacity="1.0" stroke="rgb(0,0,0)" stroke-width="0.0" fill="rgb(176,224,230)" stroke-linecap="butt" stroke-miterlimit="10.0"><defs><clipPath id="myClip7"><path d="M 54.9370,15.0000 v 214.0000 h 230.3256 v -214.0000 Z"/></clipPath></defs><g clip-path="url(#myClip7)"><path d="M 190.4282,29.6753 c -1.3942,0.8952 -3.0324,0.8298 -3.6590 -0.1462c -0.6266,-0.9759 -0.0044,-2.4928 1.3898 -3.3880c 1.3942,-0.8952 3.0324,-0.8298 3.6590 0.1462c 0.6266,0.9759 0.0044,2.4928 -1.3898 3.3880Z"/></g></g><defs></defs><g stroke-linejoin="bevel" stroke-opacity="1.0" fill-opacity="0.0" stroke="rgb(176,224,230)" stroke-width="0.9999999999999997" fill="rgb(0,0,0)" stroke-linecap="butt" stroke-miterlimit="10.0"><defs><clipPath id="myClip8"><path d="M 54.9370,15.0000 v 214.0000 h 230.3256 v -214.0000 Z"/></clipPath></defs><g clip-path="url(#myClip8)"><path d="M 190.4282,29.6753 c -1.3942,0.8952 -3.0324,0.8298 -3.6590 -0.1462c -0.6266,-0.9759 -0.0044,-2.4928 1.3898 -3.3880c 1.3942,-0.8952 3.0324,-0.8298 3.6590 0.1462c 0.6266,0.9759 0.0044,2.4928 -1.3898 3.3880"/></g></g><defs></defs><g stroke-linejoin="bevel" stroke-opacity="0.0" fill-opacity="1.0" stroke="rgb(0,0,0)" stroke-width="0.0" fill="rgb(176,224,230)" stroke-linecap="butt" stroke-miterlimit="10.0"><defs><clipPath id="myClip9"><path d="M 54.9370,15.0000 v 214.0000 h 230.3256 v -214.0000 Z"/></clipPath></defs><g clip-path="url(#myClip9)"><path d="M 228.8158,29.2571 c -1.3942,0.8952 -3.0324,0.8298 -3.6590 -0.1462c -0.6266,-0.9759 -0.0044,-2.4928 1.3898 -3.3880c 1.3942,-0.8952 3.0324,-0.8298 3.6590 0.1462c 0.6266,0.9759 0.0044,2.4928 -1.3898 3.3880Z"/></g></g><defs></defs><g stroke-linejoin="bevel" stroke-opacity="1.0" fill-opacity="0.0" stroke="rgb(176,224,230)" stroke-width="0.9999999999999997" fill="rgb(0,0,0)" stroke-linecap="butt" stroke-miterlimit="10.0"><defs><clipPath id="myClip10"><path d="M 54.9370,15.0000 v 214.0000 h 230.3256 v -214.0000 Z"/></clipPath></defs><g clip-path="url(#myClip10)"><path d="M 228.8158,29.2571 c -1.3942,0.8952 -3.0324,0.8298 -3.6590 -0.1462c -0.6266,-0.9759 -0.0044,-2.4928 1.3898 -3.3880c 1.3942,-0.8952 3.0324,-0.8298 3.6590 0.1462c 0.6266,0.9759 0.0044,2.4928 -1.3898 3.3880"/></g></g><defs></defs><g stroke-linejoin="bevel" stroke-opacity="0.0" fill-opacity="1.0" stroke="rgb(0,0,0)" stroke-width="0.0" fill="rgb(176,224,230)" stroke-linecap="butt" stroke-miterlimit="10.0"><defs><clipPath id="myClip11"><path d="M 54.9370,15.0000 v 214.0000 h 230.3256 v -214.0000 Z"/></clipPath></defs><g clip-path="url(#myClip11)"><path d="M 248.0096,29.7167 c -1.3942,0.8952 -3.0324,0.8298 -3.6590 -0.1462c -0.6266,-0.9759 -0.0044,-2.4928 1.3898 -3.3880c 1.3942,-0.8952 3.0324,-0.8298 3.6590 0.1462c 0.6266,0.9759 0.0044,2.4928 -1.3898 3.3880Z"/></g></g><defs></defs><g stroke-linejoin="bevel" stroke-opacity="1.0" fill-opacity="0.0" stroke="rgb(176,224,230)" stroke-width="0.9999999999999997" fill="rgb(0,0,0)" stroke-linecap="butt" stroke-miterlimit="10.0"><defs><clipPath id="myClip12"><path d="M 54.9370,15.0000 v 214.0000 h 230.3256 v -214.0000 Z"/></clipPath></defs><g clip-path="url(#myClip12)"><path d="M 248.0096,29.7167 c -1.3942,0.8952 -3.0324,0.8298 -3.6590 -0.1462c -0.6266,-0.9759 -0.0044,-2.4928 1.3898 -3.3880c 1.3942,-0.8952 3.0324,-0.8298 3.6590 0.1462c 0.6266,0.9759 0.0044,2.4928 -1.3898 3.3880"/></g></g><defs></defs><g stroke-linejoin="round" stroke-opacity="1.0" fill-opacity="0.0" stroke="rgb(176,224,230)" stroke-width="0.9999999999999997" fill="rgb(0,0,0)" stroke-linecap="round" stroke-miterlimit="10.0"><defs><clipPath id="myClip13"><path d="M 54.9370,15.0000 v 214.0000 h 230.3256 v -214.0000 Z"/></clipPath></defs><g clip-path="url(#myClip13)"><path d="M 74.1308,28.0203 l 38.3876,-0.0462 l 38.3876,-0.3018 l 38.3876,0.2359 l 38.3876,-0.4182 l 19.1938,0.4596 "/></g></g><defs></defs><g stroke-linejoin="bevel" stroke-opacity="1.0" fill-opacity="0.0" stroke="rgb(0,100,0)" stroke-width="0.9999999999999997" fill="rgb(0,0,0)" stroke-linecap="butt" stroke-miterlimit="10.0"><defs><clipPath id="myClip14"><path d="M 54.9370,15.0000 v 214.0000 h 230.3256 v -214.0000 Z"/></clipPath></defs><g clip-path="url(#myClip14)"><path d="M 95.4459,220.2581 l -4.2426,-4.2426 M 95.4459,216.0154 l -4.2426,4.2426 "/></g></g><defs></defs><g stroke-linejoin="bevel" stroke-opacity="1.0" fill-opacity="0.0" stroke="rgb(0,100,0)" stroke-width="0.9999999999999997" fill="rgb(0,0,0)" stroke-linecap="butt" stroke-miterlimit="10.0"><defs><clipPath id="myClip15"><path d="M 54.9370,15.0000 v 214.0000 h 230.3256 v -214.0000 Z"/></clipPath></defs><g clip-path="url(#myClip15)"><path d="M 133.8335,207.8427 l -4.2426,-4.2426 M 133.8335,203.6001 l -4.2426,4.2426 "/></g></g><defs></defs><g stroke-linejoin="bevel" stroke-opacity="1.0" fill-opacity="0.0" stroke="rgb(0,100,0)" stroke-width="0.9999999999999997" fill="rgb(0,0,0)" stroke-linecap="butt" stroke-miterlimit="10.0"><defs><clipPath id="myClip16"><path d="M 54.9370,15.0000 v 214.0000 h 230.3256 v -214.0000 Z"/></clipPath></defs><g clip-path="url(#myClip16)"><path d="M 210.6087,192.3111 l -4.2426,-4.2426 M 210.6087,188.0685 l -4.2426,4.2426 "/></g></g><defs></defs><g stroke-linejoin="bevel" stroke-opacity="1.0" fill-opacity="0.0" stroke="rgb(0,100,0)" stroke-width="0.9999999999999997" fill="rgb(0,0,0)" stroke-linecap="butt" stroke-miterlimit="10.0"><defs><clipPath id="myClip17"><path d="M 54.9370,15.0000 v 214.0000 h 230.3256 v -214.0000 Z"/></clipPath></defs><g clip-path="url(#myClip17)"><path d="M 287.3839,180.5267 l -4.2426,-4.2426 M 287.3839,176.2841 l -4.2426,4.2426 "/></g></g><defs></defs><g stroke-linejoin="round" stroke-opacity="1.0" fill-opacity="0.0" stroke="rgb(0,100,0)" stroke-width="0.9999999999999997" fill="rgb(0,0,0)" stroke-linecap="round" stroke-miterlimit="10.0"><defs><clipPath id="myClip18"><path d="M 54.9370,15.0000 v 214.0000 h 230.3256 v -214.0000 Z"/></clipPath></defs><g clip-path="url(#myClip18)"><path d="M 93.3246,218.1368 l 38.3876,-12.4154 l 76.7752,-15.5316 l 76.7752,-11.7844 "/></g></g><defs></defs><g stroke-linejoin="bevel" stroke-opacity="0.0" fill-opacity="1.0" stroke="rgb(0,0,0)" stroke-width="0.0" fill="rgb(0,0,139)" stroke-linecap="butt" stroke-miterlimit="10.0"><defs><clipPath id="myClip19"><path d="M 54.9370,15.0000 v 214.0000 h 230.3256 v -214.0000 Z"/></clipPath></defs><g clip-path="url(#myClip19)"><path d="M 77.1308,78.6567 c 0.0000,1.6569 -1.3431,3.0000 -3.0000 3.0000c -1.6569,0.0000 -3.0000,-1.3431 -3.0000 -3.0000c -0.0000,-1.6569 1.3431,-3.0000 3.0000 -3.0000c 1.6569,-0.0000 3.0000,1.3431 3.0000 3.0000Z"/></g></g><defs></defs><g stroke-linejoin="bevel" stroke-opacity="0.0" fill-opacity="0.0" stroke="rgb(0,0,0)" stroke-width="0.0" fill="rgb(0,0,0)" stroke-linecap="butt" stroke-miterlimit="10.0"><defs><clipPath id="myClip20"><path d="M 54.9370,15.0000 v 214.0000 h 230.3256 v -214.0000 Z"/></clipPath></defs><g clip-path="url(#myClip20)"><path d="M 77.1308,78.6567 c 0.0000,1.6569 -1.3431,3.0000 -3.0000 3.0000c -1.6569,0.0000 -3.0000,-1.3431 -3.0000 -3.0000c -0.0000,-1.6569 1.3431,-3.0000 3.0000 -3.0000c 1.6569,-0.0000 3.0000,1.3431 3.0000 3.0000"/></g></g><defs></defs><g stroke-linejoin="bevel" stroke-opacity="0.0" fill-opacity="1.0" stroke="rgb(0,0,0)" stroke-width="0.0" fill="rgb(0,0,139)" stroke-linecap="butt" stroke-miterlimit="10.0"><defs><clipPath id="myClip21"><path d="M 54.9370,15.0000 v 214.0000 h 230.3256 v -214.0000 Z"/></clipPath></defs><g clip-path="url(#myClip21)"><path d="M 115.5184,78.8897 c 0.0000,1.6569 -1.3431,3.0000 -3.0000 3.0000c -1.6569,0.0000 -3.0000,-1.3431 -3.0000 -3.0000c -0.0000,-1.6569 1.3431,-3.0000 3.0000 -3.0000c 1.6569,-0.0000 3.0000,1.3431 3.0000 3.0000Z"/></g></g><defs></defs><g stroke-linejoin="bevel" stroke-opacity="0.0" fill-opacity="0.0" stroke="rgb(0,0,0)" stroke-width="0.0" fill="rgb(0,0,0)" stroke-linecap="butt" stroke-miterlimit="10.0"><defs><clipPath id="myClip22"><path d="M 54.9370,15.0000 v 214.0000 h 230.3256 v -214.0000 Z"/></clipPath></defs><g clip-path="url(#myClip22)"><path d="M 115.5184,78.8897 c 0.0000,1.6569 -1.3431,3.0000 -3.0000 3.0000c -1.6569,0.0000 -3.0000,-1.3431 -3.0000 -3.0000c -0.0000,-1.6569 1.3431,-3.0000 3.0000 -3.0000c 1.6569,-0.0000 3.0000,1.3431 3.0000 3.0000"/></g></g><defs></defs><g stroke-linejoin="bevel" stroke-opacity="0.0" fill-opacity="1.0" stroke="rgb(0,0,0)" stroke-width="0.0" fill="rgb(0,0,139)" stroke-linecap="butt" stroke-miterlimit="10.0"><defs><clipPath id="myClip23"><path d="M 54.9370,15.0000 v 214.0000 h 230.3256 v -214.0000 Z"/></clipPath></defs><g clip-path="url(#myClip23)"><path d="M 153.9060,78.7972 c 0.0000,1.6569 -1.3431,3.0000 -3.0000 3.0000c -1.6569,0.0000 -3.0000,-1.3431 -3.0000 -3.0000c -0.0000,-1.6569 1.3431,-3.0000 3.0000 -3.0000c 1.6569,-0.0000 3.0000,1.3431 3.0000 3.0000Z"/></g></g><defs></defs><g stroke-linejoin="bevel" stroke-opacity="0.0" fill-opacity="0.0" stroke="rgb(0,0,0)" stroke-width="0.0" fill="rgb(0,0,0)" stroke-linecap="butt" stroke-miterlimit="10.0"><defs><clipPath id="myClip24"><path d="M 54.9370,15.0000 v 214.0000 h 230.3256 v -214.0000 Z"/></clipPath></defs><g clip-path="url(#myClip24)"><path d="M 153.9060,78.7972 c 0.0000,1.6569 -1.3431,3.0000 -3.0000 3.0000c -1.6569,0.0000 -3.0000,-1.3431 -3.0000 -3.0000c -0.0000,-1.6569 1.3431,-3.0000 3.0000 -3.0000c 1.6569,-0.0000 3.0000,1.3431 3.0000 3.0000"/></g></g><defs></defs><g stroke-linejoin="bevel" stroke-opacity="0.0" fill-opacity="1.0" stroke="rgb(0,0,0)" stroke-width="0.0" fill="rgb(0,0,139)" stroke-linecap="butt" stroke-miterlimit="10.0"><defs><clipPath id="myClip25"><path d="M 54.9370,15.0000 v 214.0000 h 230.3256 v -214.0000 Z"/></clipPath></defs><g clip-path="url(#myClip25)"><path d="M 192.2936,78.8945 c 0.0000,1.6569 -1.3431,3.0000 -3.0000 3.0000c -1.6569,0.0000 -3.0000,-1.3431 -3.0000 -3.0000c -0.0000,-1.6569 1.3431,-3.0000 3.0000 -3.0000c 1.6569,-0.0000 3.0000,1.3431 3.0000 3.0000Z"/></g></g><defs></defs><g stroke-linejoin="bevel" stroke-opacity="0.0" fill-opacity="0.0" stroke="rgb(0,0,0)" stroke-width="0.0" fill="rgb(0,0,0)" stroke-linecap="butt" stroke-miterlimit="10.0"><defs><clipPath id="myClip26"><path d="M 54.9370,15.0000 v 214.0000 h 230.3256 v -214.0000 Z"/></clipPath></defs><g clip-path="url(#myClip26)"><path d="M 192.2936,78.8945 c 0.0000,1.6569 -1.3431,3.0000 -3.0000 3.0000c -1.6569,0.0000 -3.0000,-1.3431 -3.0000 -3.0000c -0.0000,-1.6569 1.3431,-3.0000 3.0000 -3.0000c 1.6569,-0.0000 3.0000,1.3431 3.0000 3.0000"/></g></g><defs></defs><g stroke-linejoin="bevel" stroke-opacity="0.0" fill-opacity="1.0" stroke="rgb(0,0,0)" stroke-width="0.0" fill="rgb(0,0,139)" stroke-linecap="butt" stroke-miterlimit="10.0"><defs><clipPath id="myClip27"><path d="M 54.9370,15.0000 v 214.0000 h 230.3256 v -214.0000 Z"/></clipPath></defs><g clip-path="url(#myClip27)"><path d="M 230.6812,78.2578 c 0.0000,1.6569 -1.3431,3.0000 -3.0000 3.0000c -1.6569,0.0000 -3.0000,-1.3431 -3.0000 -3.0000c -0.0000,-1.6569 1.3431,-3.0000 3.0000 -3.0000c 1.6569,-0.0000 3.0000,1.3431 3.0000 3.0000Z"/></g></g><defs></defs><g stroke-linejoin="bevel" stroke-opacity="0.0" fill-opacity="0.0" stroke="rgb(0,0,0)" stroke-width="0.0" fill="rgb(0,0,0)" stroke-linecap="butt" stroke-miterlimit="10.0"><defs><clipPath id="myClip28"><path d="M 54.9370,15.0000 v 214.0000 h 230.3256 v -214.0000 Z"/></clipPath></defs><g clip-path="url(#myClip28)"><path d="M 230.6812,78.2578 c 0.0000,1.6569 -1.3431,3.0000 -3.0000 3.0000c -1.6569,0.0000 -3.0000,-1.3431 -3.0000 -3.0000c -0.0000,-1.6569 1.3431,-3.0000 3.0000 -3.0000c 1.6569,-0.0000 3.0000,1.3431 3.0000 3.0000"/></g></g><defs></defs><g stroke-linejoin="bevel" stroke-opacity="0.0" fill-opacity="1.0" stroke="rgb(0,0,0)" stroke-width="0.0" fill="rgb(0,0,139)" stroke-linecap="butt" stroke-miterlimit="10.0"><defs><clipPath id="myClip29"><path d="M 54.9370,15.0000 v 214.0000 h 230.3256 v -214.0000 Z"/></clipPath></defs><g clip-path="url(#myClip29)"><path d="M 269.0688,78.5649 c 0.0000,1.6569 -1.3431,3.0000 -3.0000 3.0000c -1.6569,0.0000 -3.0000,-1.3431 -3.0000 -3.0000c -0.0000,-1.6569 1.3431,-3.0000 3.0000 -3.0000c 1.6569,-0.0000 3.0000,1.3431 3.0000 3.0000Z"/></g></g><defs></defs><g stroke-linejoin="bevel" stroke-opacity="0.0" fill-opacity="0.0" stroke="rgb(0,0,0)" stroke-width="0.0" fill="rgb(0,0,0)" stroke-linecap="butt" stroke-miterlimit="10.0"><defs><clipPath id="myClip30"><path d="M 54.9370,15.0000 v 214.0000 h 230.3256 v -214.0000 Z"/></clipPath></defs><g clip-path="url(#myClip30)"><path d="M 269.0688,78.5649 c 0.0000,1.6569 -1.3431,3.0000 -3.0000 3.0000c -1.6569,0.0000 -3.0000,-1.3431 -3.0000 -3.0000c -0.0000,-1.6569 1.3431,-3.0000 3.0000 -3.0000c 1.6569,-0.0000 3.0000,1.3431 3.0000 3.0000"/></g></g><defs></defs><g stroke-linejoin="round" stroke-opacity="1.0" fill-opacity="0.0" stroke="rgb(0,0,139)" stroke-width="0.9999999999999997" fill="rgb(0,0,0)" stroke-linecap="round" stroke-miterlimit="10.0"><defs><clipPath id="myClip31"><path d="M 54.9370,15.0000 v 214.0000 h 230.3256 v -214.0000 Z"/></clipPath></defs><g clip-path="url(#myClip31)"><path d="M 74.1308,78.6567 l 38.3876,0.2330 l 38.3876,-0.0924 l 38.3876,0.0973 l 38.3876,-0.6367 l 38.3876,0.3071 "/></g></g><defs></defs><g stroke-linejoin="bevel" stroke-opacity="1.0" fill-opacity="0.0" stroke="rgb(255,69,0)" stroke-width="0.9999999999999997" fill="rgb(0,0,0)" stroke-linecap="butt" stroke-miterlimit="10.0"><defs><clipPath id="myClip32"><path d="M 54.9370,15.0000 v 214.0000 h 230.3256 v -214.0000 Z"/></clipPath></defs><g clip-path="url(#myClip32)"><path d="M 68.5746,103.9512 l -4.2426,-4.2426 M 68.5746,99.7085 l -4.2426,4.2426 "/></g></g><defs></defs><g stroke-linejoin="bevel" stroke-opacity="1.0" fill-opacity="0.0" stroke="rgb(255,69,0)" stroke-width="0.9999999999999997" fill="rgb(0,0,0)" stroke-linecap="butt" stroke-miterlimit="10.0"><defs><clipPath id="myClip33"><path d="M 54.9370,15.0000 v 214.0000 h 230.3256 v -214.0000 Z"/></clipPath></defs><g clip-path="url(#myClip33)"><path d="M 91.6071,39.2498 l -4.2426,-4.2426 M 91.6071,35.0071 l -4.2426,4.2426 "/></g></g><defs></defs><g stroke-linejoin="round" stroke-opacity="1.0" fill-opacity="0.0" stroke="rgb(255,69,0)" stroke-width="0.9999999999999997" fill="rgb(0,0,0)" stroke-linecap="round" stroke-miterlimit="10.0"><defs><clipPath id="myClip34"><path d="M 54.9370,15.0000 v 214.0000 h 230.3256 v -214.0000 Z"/></clipPath></defs><g clip-path="url(#myClip34)"><path d="M 66.4533,101.8298 l 23.0326,-64.7014 "/></g></g><defs></defs><g stroke-linejoin="bevel" stroke-opacity="1.0" fill-opacity="0.0" stroke="rgb(199,21,133)" stroke-width="0.9999999999999997" fill="rgb(0,0,0)" stroke-linecap="butt" stroke-miterlimit="10.0"><defs><clipPath id="myClip35"><path d="M 54.9370,15.0000 v 214.0000 h 230.3256 v -214.0000 Z"/></clipPath></defs><g clip-path="url(#myClip35)"><path d="M 107.8409,77.4241 h -6.0000 M 104.8409,74.4241 v 6.0000 M 106.9622,79.5455 l -4.2426,-4.2426 M 106.9622,75.3028 l -4.2426,4.2426 "/></g></g><defs></defs><g stroke-linejoin="bevel" stroke-opacity="1.0" fill-opacity="0.0" stroke="rgb(199,21,133)" stroke-width="0.9999999999999997" fill="rgb(0,0,0)" stroke-linecap="butt" stroke-miterlimit="10.0"><defs><clipPath id="myClip36"><path d="M 54.9370,15.0000 v 214.0000 h 230.3256 v -214.0000 Z"/></clipPath></defs><g clip-path="url(#myClip36)"><path d="M 142.3897,28.5118 h -6.0000 M 139.3897,25.5118 v 6.0000 M 141.5110,30.6331 l -4.2426,-4.2426 M 141.5110,26.3905 l -4.2426,4.2426 "/></g></g><defs></defs><g stroke-linejoin="bevel" stroke-opacity="1.0" fill-opacity="0.0" stroke="rgb(199,21,133)" stroke-width="0.9999999999999997" fill="rgb(0,0,0)" stroke-linecap="butt" stroke-miterlimit="10.0"><defs><clipPath id="myClip37"><path d="M 54.9370,15.0000 v 214.0000 h 230.3256 v -214.0000 Z"/></clipPath></defs><g clip-path="url(#myClip37)"><path d="M 188.4548,35.7521 h -6.0000 M 185.4548,32.7521 v 6.0000 M 187.5762,37.8734 l -4.2426,-4.2426 M 187.5762,33.6307 l -4.2426,4.2426 "/></g></g><defs></defs><g stroke-linejoin="round" stroke-opacity="1.0" fill-opacity="0.0" stroke="rgb(199,21,133)" stroke-width="0.9999999999999997" fill="rgb(0,0,0)" stroke-linecap="round" stroke-miterlimit="10.0"><defs><clipPath id="myClip38"><path d="M 54.9370,15.0000 v 214.0000 h 230.3256 v -214.0000 Z"/></clipPath></defs><g clip-path="url(#myClip38)"><path d="M 104.8409,77.4241 l 34.5488,-48.9123 l 46.0651,7.2402 "/></g></g><defs></defs><g stroke-linejoin="bevel" stroke-opacity="0.0" fill-opacity="1.0" stroke="rgb(0,0,0)" stroke-width="0.0" fill="rgb(0,0,0)" stroke-linecap="butt" stroke-miterlimit="10.0"><path d="M 20.0000,135.5399 ZM 13.8445,133.1660 l 0.0000,2.0798 l -0.7353,0.0000 l -0.0000,-5.0420 l 0.7353,-0.0000 l 0.0000,2.0798 l 6.1555,-0.0000 l 0.0000,0.8824 l -6.1555,0.0000 ZM 20.0000,129.9097 ZM 13.8445,128.6071 c 0.0000,0.2521 -0.1576,0.4254 -0.1576 0.4254c -0.1576,0.1733 -0.3992,0.1733 -0.3992 0.1733c -0.2521,0.0000 -0.4044,-0.1733 -0.4044 -0.1733c -0.1523,-0.1733 -0.1523,-0.4254 -0.1523 -0.4254c -0.0000,-0.2521 0.1523,-0.4254 0.1523 -0.4254c 0.1523,-0.1733 0.4044,-0.1733 0.4044 -0.1733c 0.2416,-0.0000 0.3992,0.1733 0.3992 0.1733c 0.1576,0.1733 0.1576,0.4254 0.1576 0.4254ZM 13.8445,128.6071 ZM 14.8950,129.0483 l -0.0000,-0.8613 l 5.1050,-0.0000 l 0.0000,0.8613 l -5.1050,0.0000 ZM 20.0000,127.3256 ZM 14.8950,126.4643 l -0.0000,-0.7143 l 0.7353,-0.0735 l -0.0000,-0.0315 c -0.3676,-0.3361 -0.6145,-0.7300 -0.6145 -0.7300c -0.2468,-0.3939 -0.2468,-0.8561 -0.2468 -0.8561c -0.0000,-0.5882 0.2574,-0.9191 0.2574 -0.9191c 0.2574,-0.3309 0.7195,-0.4884 0.7195 -0.4884c -0.4412,-0.3992 -0.7090,-0.8036 -0.7090 -0.8036c -0.2679,-0.4044 -0.2679,-0.8771 -0.2679 -0.8771c -0.0000,-0.7878 0.5042,-1.1712 0.5042 -1.1712c 0.5042,-0.3834 1.4916,-0.3834 1.4916 -0.3834l 3.2353,-0.0000 l 0.0000,0.8613 l -3.1197,0.0000 c -0.7248,0.0000 -1.0452,0.2311 -1.0452 0.2311c -0.3204,0.2311 -0.3204,0.7143 -0.3204 0.7143c 0.0000,0.5777 0.7878,1.2815 0.7878 1.2815l 3.6975,-0.0000 l 0.0000,0.8613 l -3.1197,0.0000 c -0.7248,0.0000 -1.0452,0.2311 -1.0452 0.2311c -0.3204,0.2311 -0.3204,0.7248 -0.3204 0.7248c 0.0000,0.5777 0.7878,1.2815 0.7878 1.2815l 3.6975,-0.0000 l 0.0000,0.8613 l -5.1050,0.0000 ZM 20.0000,118.6176 ZM 17.4580,118.1345 c -0.6303,0.0000 -1.1292,-0.1943 -1.1292 -0.1943c -0.4989,-0.1943 -0.8456,-0.5147 -0.8456 -0.5147c -0.3466,-0.3204 -0.5305,-0.7300 -0.5305 -0.7300c -0.1838,-0.4097 -0.1838,-0.8508 -0.1838 -0.8508c -0.0000,-0.4832 0.1681,-0.8666 0.1681 -0.8666c 0.1681,-0.3834 0.4832,-0.6408 0.4832 -0.6408c 0.3151,-0.2574 0.7563,-0.3939 0.7563 -0.3939c 0.4412,-0.1366 0.9874,-0.1366 0.9874 -0.1366c 0.2836,-0.0000 0.4727,0.0315 0.4727 0.0315l 0.0000,3.4454 c 0.8298,-0.0525 1.3130,-0.5095 1.3130 -0.5095c 0.4832,-0.4569 0.4832,-1.1922 0.4832 -1.1922c -0.0000,-0.3676 -0.1103,-0.6775 -0.1103 -0.6775c -0.1103,-0.3099 -0.2889,-0.5935 -0.2889 -0.5935l 0.5672,-0.3046 c 0.2101,0.3361 0.3676,0.7458 0.3676 0.7458c 0.1576,0.4097 0.1576,0.9349 0.1576 0.9349c 0.0000,0.5147 -0.1838,0.9611 -0.1838 0.9611c -0.1838,0.4464 -0.5252,0.7773 -0.5252 0.7773c -0.3414,0.3309 -0.8351,0.5200 -0.8351 0.5200c -0.4937,0.1891 -1.1239,0.1891 -1.1239 0.1891ZM 17.4580,118.1345 ZM 17.0693,114.5630 c -0.7878,0.0000 -1.2027,0.3309 -1.2027 0.3309c -0.4149,0.3309 -0.4149,0.9296 -0.4149 0.9296c 0.0000,0.2731 0.1103,0.5200 0.1103 0.5200c 0.1103,0.2468 0.3151,0.4464 0.3151 0.4464c 0.2048,0.1996 0.5042,0.3309 0.5042 0.3309c 0.2994,0.1313 0.6880,0.1733 0.6880 0.1733l -0.0000,-2.7311 ZM 20.0000,111.2857 ZM 21.8487,109.0378 c -1.0504,0.6513 -2.2164,1.0189 -2.2164 1.0189c -1.1660,0.3676 -2.5525,0.3676 -2.5525 0.3676c -1.3866,0.0000 -2.5473,-0.3676 -2.5473 -0.3676c -1.1607,-0.3676 -2.2216,-1.0189 -2.2216 -1.0189l 0.2521,-0.5357 c 1.0084,0.6092 2.1586,0.9086 2.1586 0.9086c 1.1502,0.2994 2.3582,0.2994 2.3582 0.2994c 1.2080,-0.0000 2.3582,-0.2994 2.3582 -0.2994c 1.1502,-0.2994 2.1586,-0.9086 2.1586 -0.9086l 0.2521,0.5357 h 0.0000 ZM 20.0000,108.1029 ZM 18.8445,107.3782 c 0.2731,-0.3361 0.4412,-0.6880 0.4412 -0.6880c 0.1681,-0.3519 0.1681,-0.8141 0.1681 -0.8141c -0.0000,-0.5042 -0.2311,-0.7563 -0.2311 -0.7563c -0.2311,-0.2521 -0.5672,-0.2521 -0.5672 -0.2521c -0.1996,0.0000 -0.3466,0.1050 -0.3466 0.1050c -0.1471,0.1050 -0.2574,0.2679 -0.2574 0.2679c -0.1103,0.1628 -0.1943,0.3729 -0.1943 0.3729l -0.1681,0.4202 c -0.0945,0.2731 -0.2153,0.5462 -0.2153 0.5462c -0.1208,0.2731 -0.2941,0.4884 -0.2941 0.4884c -0.1733,0.2153 -0.4044,0.3519 -0.4044 0.3519c -0.2311,0.1366 -0.5567,0.1366 -0.5567 0.1366c -0.3046,0.0000 -0.5725,-0.1208 -0.5725 -0.1208c -0.2679,-0.1208 -0.4622,-0.3466 -0.4622 -0.3466c -0.1943,-0.2258 -0.3046,-0.5515 -0.3046 -0.5515c -0.1103,-0.3256 -0.1103,-0.7353 -0.1103 -0.7353c -0.0000,-0.4832 0.1681,-0.8876 0.1681 -0.8876c 0.1681,-0.4044 0.4097,-0.6985 0.4097 -0.6985l 0.5462,0.4097 c -0.1996,0.2626 -0.3256,0.5462 -0.3256 0.5462c -0.1261,0.2836 -0.1261,0.6197 -0.1261 0.6197c 0.0000,0.4832 0.2206,0.7090 0.2206 0.7090c 0.2206,0.2258 0.5147,0.2258 0.5147 0.2258c 0.1786,-0.0000 0.3099,-0.0945 0.3099 -0.0945c 0.1313,-0.0945 0.2311,-0.2521 0.2311 -0.2521c 0.0998,-0.1576 0.1786,-0.3624 0.1786 -0.3624c 0.0788,-0.2048 0.1628,-0.4254 0.1628 -0.4254c 0.1050,-0.2731 0.2206,-0.5515 0.2206 -0.5515c 0.1155,-0.2784 0.2889,-0.4989 0.2889 -0.4989c 0.1733,-0.2206 0.4254,-0.3624 0.4254 -0.3624c 0.2521,-0.1418 0.6092,-0.1418 0.6092 -0.1418c 0.3151,-0.0000 0.5882,0.1208 0.5882 0.1208c 0.2731,0.1208 0.4832,0.3571 0.4832 0.3571c 0.2101,0.2363 0.3309,0.5882 0.3309 0.5882c 0.1208,0.3519 0.1208,0.8036 0.1208 0.8036c 0.0000,0.5462 -0.1996,1.0399 -0.1996 1.0399c -0.1996,0.4937 -0.5042,0.8613 -0.5042 0.8613ZM 20.0000,103.7017 ZM 21.5966,103.3025 c -1.0084,-0.6092 -2.1586,-0.9086 -2.1586 -0.9086c -1.1502,-0.2994 -2.3582,-0.2994 -2.3582 -0.2994c -1.2080,0.0000 -2.3582,0.2994 -2.3582 0.2994c -1.1502,0.2994 -2.1586,0.9086 -2.1586 0.9086l -0.2521,-0.5357 c 1.0609,-0.6513 2.2216,-1.0189 2.2216 -1.0189c 1.1607,-0.3676 2.5473,-0.3676 2.5473 -0.3676c 1.3866,-0.0000 2.5525,0.3676 2.5525 0.3676c 1.1660,0.3676 2.2164,1.0189 2.2164 1.0189l -0.2521,0.5357 h 0.0000 Z"/></g><defs></defs><g stroke-linejoin="miter" stroke-opacity="1.0" fill-opacity="0.0" stroke="rgb(0,0,0)" stroke-width="0.9999999999999997" fill="rgb(0,0,0)" stroke-linecap="square" stroke-miterlimit="10.0"><path d="M 54.9370,229.0000 v -214.0000 "/></g><defs></defs><g stroke-linejoin="miter" stroke-opacity="1.0" fill-opacity="0.0" stroke="rgb(0,0,0)" stroke-width="0.9999999999999997" fill="rgb(0,0,0)" stroke-linecap="butt" stroke-miterlimit="10.0"><path d="M 54.9370,229.0000 h 2.0000 "/></g><defs></defs><g stroke-linejoin="miter" stroke-opacity="1.0" fill-opacity="0.0" stroke="rgb(0,0,0)" stroke-width="0.9999999999999997" fill="rgb(0,0,0)" stroke-linecap="butt" stroke-miterlimit="10.0"><path d="M 54.9370,223.3517 h 2.0000 "/></g><defs></defs><g stroke-linejoin="miter" stroke-opacity="1.0" fill-opacity="0.0" stroke="rgb(0,0,0)" stroke-width="0.9999999999999997" fill="rgb(0,0,0)" stroke-linecap="butt" stroke-miterlimit="10.0"><path d="M 54.9370,218.5762 h 2.0000 "/></g><defs></defs><g stroke-linejoin="miter" stroke-opacity="1.0" fill-opacity="0.0" stroke="rgb(0,0,0)" stroke-width="0.9999999999999997" fill="rgb(0,0,0)" stroke-linecap="butt" stroke-miterlimit="10.0"><path d="M 54.9370,214.4394 h 2.0000 "/></g><defs></defs><g stroke-linejoin="miter" stroke-opacity="1.0" fill-opacity="0.0" stroke="rgb(0,0,0)" stroke-width="0.9999999999999997" fill="rgb(0,0,0)" stroke-linecap="butt" stroke-miterlimit="10.0"><path d="M 54.9370,210.7906 h 2.0000 "/></g><defs></defs><g stroke-linejoin="miter" stroke-opacity="1.0" fill-opacity="0.0" stroke="rgb(0,0,0)" stroke-width="0.9999999999999997" fill="rgb(0,0,0)" stroke-linecap="butt" stroke-miterlimit="10.0"><path d="M 54.9370,207.5265 h 2.0000 "/></g><defs></defs><g stroke-linejoin="miter" stroke-opacity="1.0" fill-opacity="0.0" stroke="rgb(0,0,0)" stroke-width="0.9999999999999997" fill="rgb(0,0,0)" stroke-linecap="butt" stroke-miterlimit="10.0"><path d="M 54.9370,207.5265 h 2.0000 "/></g><defs></defs><g stroke-linejoin="miter" stroke-opacity="1.0" fill-opacity="0.0" stroke="rgb(0,0,0)" stroke-width="0.9999999999999997" fill="rgb(0,0,0)" stroke-linecap="butt" stroke-miterlimit="10.0"><path d="M 54.9370,186.0531 h 2.0000 "/></g><defs></defs><g stroke-linejoin="miter" stroke-opacity="1.0" fill-opacity="0.0" stroke="rgb(0,0,0)" stroke-width="0.9999999999999997" fill="rgb(0,0,0)" stroke-linecap="butt" stroke-miterlimit="10.0"><path d="M 54.9370,173.4919 h 2.0000 "/></g><defs></defs><g stroke-linejoin="miter" stroke-opacity="1.0" fill-opacity="0.0" stroke="rgb(0,0,0)" stroke-width="0.9999999999999997" fill="rgb(0,0,0)" stroke-linecap="butt" stroke-miterlimit="10.0"><path d="M 54.9370,164.5796 h 2.0000 "/></g><defs></defs><g stroke-linejoin="miter" stroke-opacity="1.0" fill-opacity="0.0" stroke="rgb(0,0,0)" stroke-width="0.9999999999999997" fill="rgb(0,0,0)" stroke-linecap="butt" stroke-miterlimit="10.0"><path d="M 54.9370,157.6667 h 2.0000 "/></g><defs></defs><g stroke-linejoin="miter" stroke-opacity="1.0" fill-opacity="0.0" stroke="rgb(0,0,0)" stroke-width="0.9999999999999997" fill="rgb(0,0,0)" stroke-linecap="butt" stroke-miterlimit="10.0"><path d="M 54.9370,152.0184 h 2.0000 "/></g><defs></defs><g stroke-linejoin="miter" stroke-opacity="1.0" fill-opacity="0.0" stroke="rgb(0,0,0)" stroke-width="0.9999999999999997" fill="rgb(0,0,0)" stroke-linecap="butt" stroke-miterlimit="10.0"><path d="M 54.9370,147.2429 h 2.0000 "/></g><defs></defs><g stroke-linejoin="miter" stroke-opacity="1.0" fill-opacity="0.0" stroke="rgb(0,0,0)" stroke-width="0.9999999999999997" fill="rgb(0,0,0)" stroke-linecap="butt" stroke-miterlimit="10.0"><path d="M 54.9370,143.1061 h 2.0000 "/></g><defs></defs><g stroke-linejoin="miter" stroke-opacity="1.0" fill-opacity="0.0" stroke="rgb(0,0,0)" stroke-width="0.9999999999999997" fill="rgb(0,0,0)" stroke-linecap="butt" stroke-miterlimit="10.0"><path d="M 54.9370,139.4572 h 2.0000 "/></g><defs></defs><g stroke-linejoin="miter" stroke-opacity="1.0" fill-opacity="0.0" stroke="rgb(0,0,0)" stroke-width="0.9999999999999997" fill="rgb(0,0,0)" stroke-linecap="butt" stroke-miterlimit="10.0"><path d="M 54.9370,136.1932 h 2.0000 "/></g><defs></defs><g stroke-linejoin="miter" stroke-opacity="1.0" fill-opacity="0.0" stroke="rgb(0,0,0)" stroke-width="0.9999999999999997" fill="rgb(0,0,0)" stroke-linecap="butt" stroke-miterlimit="10.0"><path d="M 54.9370,136.1932 h 2.0000 "/></g><defs></defs><g stroke-linejoin="miter" stroke-opacity="1.0" fill-opacity="0.0" stroke="rgb(0,0,0)" stroke-width="0.9999999999999997" fill="rgb(0,0,0)" stroke-linecap="butt" stroke-miterlimit="10.0"><path d="M 54.9370,114.7197 h 2.0000 "/></g><defs></defs><g stroke-linejoin="miter" stroke-opacity="1.0" fill-opacity="0.0" stroke="rgb(0,0,0)" stroke-width="0.9999999999999997" fill="rgb(0,0,0)" stroke-linecap="butt" stroke-miterlimit="10.0"><path d="M 54.9370,102.1585 h 2.0000 "/></g><defs></defs><g stroke-linejoin="miter" stroke-opacity="1.0" fill-opacity="0.0" stroke="rgb(0,0,0)" stroke-width="0.9999999999999997" fill="rgb(0,0,0)" stroke-linecap="butt" stroke-miterlimit="10.0"><path d="M 54.9370,93.2462 h 2.0000 "/></g><defs></defs><g stroke-linejoin="miter" stroke-opacity="1.0" fill-opacity="0.0" stroke="rgb(0,0,0)" stroke-width="0.9999999999999997" fill="rgb(0,0,0)" stroke-linecap="butt" stroke-miterlimit="10.0"><path d="M 54.9370,86.3333 h 2.0000 "/></g><defs></defs><g stroke-linejoin="miter" stroke-opacity="1.0" fill-opacity="0.0" stroke="rgb(0,0,0)" stroke-width="0.9999999999999997" fill="rgb(0,0,0)" stroke-linecap="butt" stroke-miterlimit="10.0"><path d="M 54.9370,80.6851 h 2.0000 "/></g><defs></defs><g stroke-linejoin="miter" stroke-opacity="1.0" fill-opacity="0.0" stroke="rgb(0,0,0)" stroke-width="0.9999999999999997" fill="rgb(0,0,0)" stroke-linecap="butt" stroke-miterlimit="10.0"><path d="M 54.9370,75.9095 h 2.0000 "/></g><defs></defs><g stroke-linejoin="miter" stroke-opacity="1.0" fill-opacity="0.0" stroke="rgb(0,0,0)" stroke-width="0.9999999999999997" fill="rgb(0,0,0)" stroke-linecap="butt" stroke-miterlimit="10.0"><path d="M 54.9370,71.7728 h 2.0000 "/></g><defs></defs><g stroke-linejoin="miter" stroke-opacity="1.0" fill-opacity="0.0" stroke="rgb(0,0,0)" stroke-width="0.9999999999999997" fill="rgb(0,0,0)" stroke-linecap="butt" stroke-miterlimit="10.0"><path d="M 54.9370,68.1239 h 2.0000 "/></g><defs></defs><g stroke-linejoin="miter" stroke-opacity="1.0" fill-opacity="0.0" stroke="rgb(0,0,0)" stroke-width="0.9999999999999997" fill="rgb(0,0,0)" stroke-linecap="butt" stroke-miterlimit="10.0"><path d="M 54.9370,64.8599 h 2.0000 "/></g><defs></defs><g stroke-linejoin="miter" stroke-opacity="1.0" fill-opacity="0.0" stroke="rgb(0,0,0)" stroke-width="0.9999999999999997" fill="rgb(0,0,0)" stroke-linecap="butt" stroke-miterlimit="10.0"><path d="M 54.9370,64.8599 h 2.0000 "/></g><defs></defs><g stroke-linejoin="miter" stroke-opacity="1.0" fill-opacity="0.0" stroke="rgb(0,0,0)" stroke-width="0.9999999999999997" fill="rgb(0,0,0)" stroke-linecap="butt" stroke-miterlimit="10.0"><path d="M 54.9370,43.3864 h 2.0000 "/></g><defs></defs><g stroke-linejoin="miter" stroke-opacity="1.0" fill-opacity="0.0" stroke="rgb(0,0,0)" stroke-width="0.9999999999999997" fill="rgb(0,0,0)" stroke-linecap="butt" stroke-miterlimit="10.0"><path d="M 54.9370,30.8252 h 2.0000 "/></g><defs></defs><g stroke-linejoin="miter" stroke-opacity="1.0" fill-opacity="0.0" stroke="rgb(0,0,0)" stroke-width="0.9999999999999997" fill="rgb(0,0,0)" stroke-linecap="butt" stroke-miterlimit="10.0"><path d="M 54.9370,21.9129 h 2.0000 "/></g><defs></defs><g stroke-linejoin="miter" stroke-opacity="1.0" fill-opacity="0.0" stroke="rgb(0,0,0)" stroke-width="0.9999999999999997" fill="rgb(0,0,0)" stroke-linecap="butt" stroke-miterlimit="10.0"><path d="M 54.9370,15.0000 h 2.0000 "/></g><defs></defs><g stroke-linejoin="miter" stroke-opacity="1.0" fill-opacity="0.0" stroke="rgb(0,0,0)" stroke-width="0.9999999999999997" fill="rgb(0,0,0)" stroke-linecap="butt" stroke-miterlimit="10.0"><path d="M 54.9370,229.0000 h 5.0000 "/></g><defs></defs><g stroke-linejoin="miter" stroke-opacity="1.0" fill-opacity="0.0" stroke="rgb(0,0,0)" stroke-width="0.9999999999999997" fill="rgb(0,0,0)" stroke-linecap="butt" stroke-miterlimit="10.0"><path d="M 54.9370,207.5265 h 5.0000 "/></g><defs></defs><g stroke-linejoin="miter" stroke-opacity="1.0" fill-opacity="0.0" stroke="rgb(0,0,0)" stroke-width="0.9999999999999997" fill="rgb(0,0,0)" stroke-linecap="butt" stroke-miterlimit="10.0"><path d="M 54.9370,207.5265 h 5.0000 "/></g><defs></defs><g stroke-linejoin="miter" stroke-opacity="1.0" fill-opacity="0.0" stroke="rgb(0,0,0)" stroke-width="0.9999999999999997" fill="rgb(0,0,0)" stroke-linecap="butt" stroke-miterlimit="10.0"><path d="M 54.9370,157.6667 h 5.0000 "/></g><defs></defs><g stroke-linejoin="miter" stroke-opacity="1.0" fill-opacity="0.0" stroke="rgb(0,0,0)" stroke-width="0.9999999999999997" fill="rgb(0,0,0)" stroke-linecap="butt" stroke-miterlimit="10.0"><path d="M 54.9370,136.1932 h 5.0000 "/></g><defs></defs><g stroke-linejoin="miter" stroke-opacity="1.0" fill-opacity="0.0" stroke="rgb(0,0,0)" stroke-width="0.9999999999999997" fill="rgb(0,0,0)" stroke-linecap="butt" stroke-miterlimit="10.0"><path d="M 54.9370,136.1932 h 5.0000 "/></g><defs></defs><g stroke-linejoin="miter" stroke-opacity="1.0" fill-opacity="0.0" stroke="rgb(0,0,0)" stroke-width="0.9999999999999997" fill="rgb(0,0,0)" stroke-linecap="butt" stroke-miterlimit="10.0"><path d="M 54.9370,86.3333 h 5.0000 "/></g><defs></defs><g stroke-linejoin="miter" stroke-opacity="1.0" fill-opacity="0.0" stroke="rgb(0,0,0)" stroke-width="0.9999999999999997" fill="rgb(0,0,0)" stroke-linecap="butt" stroke-miterlimit="10.0"><path d="M 54.9370,64.8599 h 5.0000 "/></g><defs></defs><g stroke-linejoin="miter" stroke-opacity="1.0" fill-opacity="0.0" stroke="rgb(0,0,0)" stroke-width="0.9999999999999997" fill="rgb(0,0,0)" stroke-linecap="butt" stroke-miterlimit="10.0"><path d="M 54.9370,64.8599 h 5.0000 "/></g><defs></defs><g stroke-linejoin="miter" stroke-opacity="1.0" fill-opacity="0.0" stroke="rgb(0,0,0)" stroke-width="0.9999999999999997" fill="rgb(0,0,0)" stroke-linecap="butt" stroke-miterlimit="10.0"><path d="M 54.9370,15.0000 h 5.0000 "/></g><defs></defs><g stroke-linejoin="bevel" stroke-opacity="0.0" fill-opacity="1.0" stroke="rgb(0,0,0)" stroke-width="0.0" fill="rgb(0,0,0)" stroke-linecap="butt" stroke-miterlimit="10.0"><path d="M 32.8466,232.4454 ZM 35.4622,232.5714 c -1.0189,-0.0000 -1.5861,-0.9034 -1.5861 -0.9034c -0.5672,-0.9034 -0.5672,-2.5945 -0.5672 -2.5945c 0.0000,-1.6912 0.5672,-2.5735 0.5672 -2.5735c 0.5672,-0.8824 1.5861,-0.8824 1.5861 -0.8824c 1.0084,0.0000 1.5756,0.8824 1.5756 0.8824c 0.5672,0.8824 0.5672,2.5735 0.5672 2.5735c 0.0000,1.6912 -0.5672,2.5945 -0.5672 2.5945c -0.5672,0.9034 -1.5756,0.9034 -1.5756 0.9034ZM 35.4622,232.5714 ZM 35.4622,231.8782 c 0.2941,0.0000 0.5305,-0.1628 0.5305 -0.1628c 0.2363,-0.1628 0.4097,-0.5042 0.4097 -0.5042c 0.1733,-0.3414 0.2679,-0.8718 0.2679 -0.8718c 0.0945,-0.5305 0.0945,-1.2658 0.0945 -1.2658c 0.0000,-0.7353 -0.0945,-1.2605 -0.0945 -1.2605c -0.0945,-0.5252 -0.2679,-0.8561 -0.2679 -0.8561c -0.1733,-0.3309 -0.4097,-0.4884 -0.4097 -0.4884c -0.2363,-0.1576 -0.5305,-0.1576 -0.5305 -0.1576c -0.2941,-0.0000 -0.5357,0.1576 -0.5357 0.1576c -0.2416,0.1576 -0.4149,0.4884 -0.4149 0.4884c -0.1733,0.3309 -0.2679,0.8561 -0.2679 0.8561c -0.0945,0.5252 -0.0945,1.2605 -0.0945 1.2605c 0.0000,1.4706 0.3624,2.1376 0.3624 2.1376c 0.3624,0.6670 0.9506,0.6670 0.9506 0.6670ZM 38.0672,232.4454 ZM 38.7500,231.9202 c 0.0000,-0.3046 0.1838,-0.4884 0.1838 -0.4884c 0.1838,-0.1838 0.4464,-0.1838 0.4464 -0.1838c 0.2521,0.0000 0.4359,0.1838 0.4359 0.1838c 0.1838,0.1838 0.1838,0.4884 0.1838 0.4884c 0.0000,0.2836 -0.1838,0.4674 -0.1838 0.4674c -0.1838,0.1838 -0.4359,0.1838 -0.4359 0.1838c -0.2626,-0.0000 -0.4464,-0.1838 -0.4464 -0.1838c -0.1838,-0.1838 -0.1838,-0.4674 -0.1838 -0.4674ZM 40.6828,232.4454 ZM 41.3655,231.0903 c 0.2941,0.3046 0.6985,0.5357 0.6985 0.5357c 0.4044,0.2311 0.9926,0.2311 0.9926 0.2311c 0.3046,0.0000 0.5725,-0.1103 0.5725 -0.1103c 0.2679,-0.1103 0.4674,-0.3099 0.4674 -0.3099c 0.1996,-0.1996 0.3151,-0.4832 0.3151 -0.4832c 0.1155,-0.2836 0.1155,-0.6303 0.1155 -0.6303c 0.0000,-0.6933 -0.3887,-1.0819 -0.3887 -1.0819c -0.3887,-0.3887 -1.0399,-0.3887 -1.0399 -0.3887c -0.3466,-0.0000 -0.5935,0.1050 -0.5935 0.1050c -0.2468,0.1050 -0.5515,0.3046 -0.5515 0.3046l -0.4622,-0.2941 l 0.2206,-3.2248 h 3.3508 v 0.7458 h -2.5945 l -0.1786,1.9853 c 0.2416,-0.1261 0.4832,-0.1996 0.4832 -0.1996c 0.2416,-0.0735 0.5462,-0.0735 0.5462 -0.0735c 0.4307,0.0000 0.8088,0.1261 0.8088 0.1261c 0.3782,0.1261 0.6618,0.3834 0.6618 0.3834c 0.2836,0.2574 0.4464,0.6513 0.4464 0.6513c 0.1628,0.3939 0.1628,0.9401 0.1628 0.9401c 0.0000,0.5462 -0.1891,0.9664 -0.1891 0.9664c -0.1891,0.4202 -0.5042,0.7090 -0.5042 0.7090c -0.3151,0.2889 -0.7195,0.4412 -0.7195 0.4412c -0.4044,0.1523 -0.8456,0.1523 -0.8456 0.1523c -0.3992,-0.0000 -0.7300,-0.0788 -0.7300 -0.0788c -0.3309,-0.0788 -0.5987,-0.2048 -0.5987 -0.2048c -0.2679,-0.1261 -0.4832,-0.2889 -0.4832 -0.2889c -0.2153,-0.1628 -0.3834,-0.3414 -0.3834 -0.3414Z"/></g><defs></defs><g stroke-linejoin="bevel" stroke-opacity="0.0" fill-opacity="1.0" stroke="rgb(0,0,0)" stroke-width="0.0" fill="rgb(0,0,0)" stroke-linecap="butt" stroke-miterlimit="10.0"><path d="M 41.1555,210.9719 ZM 41.9853,210.2576 h 1.5336 v -4.9370 h -1.2185 v -0.5567 c 0.4622,-0.0840 0.8036,-0.2048 0.8036 -0.2048c 0.3414,-0.1208 0.6145,-0.2889 0.6145 -0.2889h 0.6618 v 5.9874 h 1.3866 v 0.7143 h -3.7815 v -0.7143 Z"/></g><defs></defs><g stroke-linejoin="bevel" stroke-opacity="0.0" fill-opacity="1.0" stroke="rgb(0,0,0)" stroke-width="0.0" fill="rgb(0,0,0)" stroke-linecap="butt" stroke-miterlimit="10.0"><path d="M 35.7878,139.6386 ZM 36.6176,138.9243 h 1.5336 v -4.9370 h -1.2185 v -0.5567 c 0.4622,-0.0840 0.8036,-0.2048 0.8036 -0.2048c 0.3414,-0.1208 0.6145,-0.2889 0.6145 -0.2889h 0.6618 v 5.9874 h 1.3866 v 0.7143 h -3.7815 v -0.7143 ZM 41.0084,139.6386 ZM 43.6239,139.7646 c -1.0189,-0.0000 -1.5861,-0.9034 -1.5861 -0.9034c -0.5672,-0.9034 -0.5672,-2.5945 -0.5672 -2.5945c 0.0000,-1.6912 0.5672,-2.5735 0.5672 -2.5735c 0.5672,-0.8824 1.5861,-0.8824 1.5861 -0.8824c 1.0084,0.0000 1.5756,0.8824 1.5756 0.8824c 0.5672,0.8824 0.5672,2.5735 0.5672 2.5735c 0.0000,1.6912 -0.5672,2.5945 -0.5672 2.5945c -0.5672,0.9034 -1.5756,0.9034 -1.5756 0.9034ZM 43.6239,139.7646 ZM 43.6239,139.0713 c 0.2941,0.0000 0.5305,-0.1628 0.5305 -0.1628c 0.2363,-0.1628 0.4097,-0.5042 0.4097 -0.5042c 0.1733,-0.3414 0.2679,-0.8718 0.2679 -0.8718c 0.0945,-0.5305 0.0945,-1.2658 0.0945 -1.2658c 0.0000,-0.7353 -0.0945,-1.2605 -0.0945 -1.2605c -0.0945,-0.5252 -0.2679,-0.8561 -0.2679 -0.8561c -0.1733,-0.3309 -0.4097,-0.4884 -0.4097 -0.4884c -0.2363,-0.1576 -0.5305,-0.1576 -0.5305 -0.1576c -0.2941,-0.0000 -0.5357,0.1576 -0.5357 0.1576c -0.2416,0.1576 -0.4149,0.4884 -0.4149 0.4884c -0.1733,0.3309 -0.2679,0.8561 -0.2679 0.8561c -0.0945,0.5252 -0.0945,1.2605 -0.0945 1.2605c 0.0000,1.4706 0.3624,2.1376 0.3624 2.1376c 0.3624,0.6670 0.9506,0.6670 0.9506 0.6670Z"/></g><defs></defs><g stroke-linejoin="bevel" stroke-opacity="0.0" fill-opacity="1.0" stroke="rgb(0,0,0)" stroke-width="0.0" fill="rgb(0,0,0)" stroke-linecap="butt" stroke-miterlimit="10.0"><path d="M 35.2206,89.7787 ZM 35.9034,88.4237 c 0.2941,0.3046 0.6985,0.5357 0.6985 0.5357c 0.4044,0.2311 0.9926,0.2311 0.9926 0.2311c 0.3046,0.0000 0.5725,-0.1103 0.5725 -0.1103c 0.2679,-0.1103 0.4674,-0.3099 0.4674 -0.3099c 0.1996,-0.1996 0.3151,-0.4832 0.3151 -0.4832c 0.1155,-0.2836 0.1155,-0.6303 0.1155 -0.6303c 0.0000,-0.6933 -0.3887,-1.0819 -0.3887 -1.0819c -0.3887,-0.3887 -1.0399,-0.3887 -1.0399 -0.3887c -0.3466,-0.0000 -0.5935,0.1050 -0.5935 0.1050c -0.2468,0.1050 -0.5515,0.3046 -0.5515 0.3046l -0.4622,-0.2941 l 0.2206,-3.2248 h 3.3508 v 0.7458 h -2.5945 l -0.1786,1.9853 c 0.2416,-0.1261 0.4832,-0.1996 0.4832 -0.1996c 0.2416,-0.0735 0.5462,-0.0735 0.5462 -0.0735c 0.4307,0.0000 0.8088,0.1261 0.8088 0.1261c 0.3782,0.1261 0.6618,0.3834 0.6618 0.3834c 0.2836,0.2574 0.4464,0.6513 0.4464 0.6513c 0.1628,0.3939 0.1628,0.9401 0.1628 0.9401c 0.0000,0.5462 -0.1891,0.9664 -0.1891 0.9664c -0.1891,0.4202 -0.5042,0.7090 -0.5042 0.7090c -0.3151,0.2889 -0.7195,0.4412 -0.7195 0.4412c -0.4044,0.1523 -0.8456,0.1523 -0.8456 0.1523c -0.3992,-0.0000 -0.7300,-0.0788 -0.7300 -0.0788c -0.3309,-0.0788 -0.5987,-0.2048 -0.5987 -0.2048c -0.2679,-0.1261 -0.4832,-0.2889 -0.4832 -0.2889c -0.2153,-0.1628 -0.3834,-0.3414 -0.3834 -0.3414ZM 40.4412,89.7787 ZM 43.0567,89.9048 c -1.0189,-0.0000 -1.5861,-0.9034 -1.5861 -0.9034c -0.5672,-0.9034 -0.5672,-2.5945 -0.5672 -2.5945c 0.0000,-1.6912 0.5672,-2.5735 0.5672 -2.5735c 0.5672,-0.8824 1.5861,-0.8824 1.5861 -0.8824c 1.0084,0.0000 1.5756,0.8824 1.5756 0.8824c 0.5672,0.8824 0.5672,2.5735 0.5672 2.5735c 0.0000,1.6912 -0.5672,2.5945 -0.5672 2.5945c -0.5672,0.9034 -1.5756,0.9034 -1.5756 0.9034ZM 43.0567,89.9048 ZM 43.0567,89.2115 c 0.2941,0.0000 0.5305,-0.1628 0.5305 -0.1628c 0.2363,-0.1628 0.4097,-0.5042 0.4097 -0.5042c 0.1733,-0.3414 0.2679,-0.8718 0.2679 -0.8718c 0.0945,-0.5305 0.0945,-1.2658 0.0945 -1.2658c 0.0000,-0.7353 -0.0945,-1.2605 -0.0945 -1.2605c -0.0945,-0.5252 -0.2679,-0.8561 -0.2679 -0.8561c -0.1733,-0.3309 -0.4097,-0.4884 -0.4097 -0.4884c -0.2363,-0.1576 -0.5305,-0.1576 -0.5305 -0.1576c -0.2941,-0.0000 -0.5357,0.1576 -0.5357 0.1576c -0.2416,0.1576 -0.4149,0.4884 -0.4149 0.4884c -0.1733,0.3309 -0.2679,0.8561 -0.2679 0.8561c -0.0945,0.5252 -0.0945,1.2605 -0.0945 1.2605c 0.0000,1.4706 0.3624,2.1376 0.3624 2.1376c 0.3624,0.6670 0.9506,0.6670 0.9506 0.6670Z"/></g><defs></defs><g stroke-linejoin="bevel" stroke-opacity="0.0" fill-opacity="1.0" stroke="rgb(0,0,0)" stroke-width="0.0" fill="rgb(0,0,0)" stroke-linecap="butt" stroke-miterlimit="10.0"><path d="M 30.5672,68.3052 ZM 31.3971,67.5910 h 1.5336 v -4.9370 h -1.2185 v -0.5567 c 0.4622,-0.0840 0.8036,-0.2048 0.8036 -0.2048c 0.3414,-0.1208 0.6145,-0.2889 0.6145 -0.2889h 0.6618 v 5.9874 h 1.3866 v 0.7143 h -3.7815 v -0.7143 ZM 35.7878,68.3052 ZM 38.4034,68.4313 c -1.0189,-0.0000 -1.5861,-0.9034 -1.5861 -0.9034c -0.5672,-0.9034 -0.5672,-2.5945 -0.5672 -2.5945c 0.0000,-1.6912 0.5672,-2.5735 0.5672 -2.5735c 0.5672,-0.8824 1.5861,-0.8824 1.5861 -0.8824c 1.0084,0.0000 1.5756,0.8824 1.5756 0.8824c 0.5672,0.8824 0.5672,2.5735 0.5672 2.5735c 0.0000,1.6912 -0.5672,2.5945 -0.5672 2.5945c -0.5672,0.9034 -1.5756,0.9034 -1.5756 0.9034ZM 38.4034,68.4313 ZM 38.4034,67.7380 c 0.2941,0.0000 0.5305,-0.1628 0.5305 -0.1628c 0.2363,-0.1628 0.4097,-0.5042 0.4097 -0.5042c 0.1733,-0.3414 0.2679,-0.8718 0.2679 -0.8718c 0.0945,-0.5305 0.0945,-1.2658 0.0945 -1.2658c 0.0000,-0.7353 -0.0945,-1.2605 -0.0945 -1.2605c -0.0945,-0.5252 -0.2679,-0.8561 -0.2679 -0.8561c -0.1733,-0.3309 -0.4097,-0.4884 -0.4097 -0.4884c -0.2363,-0.1576 -0.5305,-0.1576 -0.5305 -0.1576c -0.2941,-0.0000 -0.5357,0.1576 -0.5357 0.1576c -0.2416,0.1576 -0.4149,0.4884 -0.4149 0.4884c -0.1733,0.3309 -0.2679,0.8561 -0.2679 0.8561c -0.0945,0.5252 -0.0945,1.2605 -0.0945 1.2605c 0.0000,1.4706 0.3624,2.1376 0.3624 2.1376c 0.3624,0.6670 0.9506,0.6670 0.9506 0.6670ZM 41.0084,68.3052 ZM 43.6239,68.4313 c -1.0189,-0.0000 -1.5861,-0.9034 -1.5861 -0.9034c -0.5672,-0.9034 -0.5672,-2.5945 -0.5672 -2.5945c 0.0000,-1.6912 0.5672,-2.5735 0.5672 -2.5735c 0.5672,-0.8824 1.5861,-0.8824 1.5861 -0.8824c 1.0084,0.0000 1.5756,0.8824 1.5756 0.8824c 0.5672,0.8824 0.5672,2.5735 0.5672 2.5735c 0.0000,1.6912 -0.5672,2.5945 -0.5672 2.5945c -0.5672,0.9034 -1.5756,0.9034 -1.5756 0.9034ZM 43.6239,68.4313 ZM 43.6239,67.7380 c 0.2941,0.0000 0.5305,-0.1628 0.5305 -0.1628c 0.2363,-0.1628 0.4097,-0.5042 0.4097 -0.5042c 0.1733,-0.3414 0.2679,-0.8718 0.2679 -0.8718c 0.0945,-0.5305 0.0945,-1.2658 0.0945 -1.2658c 0.0000,-0.7353 -0.0945,-1.2605 -0.0945 -1.2605c -0.0945,-0.5252 -0.2679,-0.8561 -0.2679 -0.8561c -0.1733,-0.3309 -0.4097,-0.4884 -0.4097 -0.4884c -0.2363,-0.1576 -0.5305,-0.1576 -0.5305 -0.1576c -0.2941,-0.0000 -0.5357,0.1576 -0.5357 0.1576c -0.2416,0.1576 -0.4149,0.4884 -0.4149 0.4884c -0.1733,0.3309 -0.2679,0.8561 -0.2679 0.8561c -0.0945,0.5252 -0.0945,1.2605 -0.0945 1.2605c 0.0000,1.4706 0.3624,2.1376 0.3624 2.1376c 0.3624,0.6670 0.9506,0.6670 0.9506 0.6670Z"/></g><defs></defs><g stroke-linejoin="miter" stroke-opacity="1.0" fill-opacity="0.0" stroke="rgb(0,0,0)" stroke-width="0.9999999999999997" fill="rgb(0,0,0)" stroke-linecap="square" stroke-miterlimit="10.0"><path d="M 54.9370,229.0000 h 230.3256 "/></g><defs></defs><g stroke-linejoin="miter" stroke-opacity="1.0" fill-opacity="0.0" stroke="rgb(0,0,0)" stroke-width="0.9999999999999997" fill="rgb(0,0,0)" stroke-linecap="butt" stroke-miterlimit="10.0"><path d="M 54.9370,229.0000 v -2.0000 "/></g><defs></defs><g stroke-linejoin="miter" stroke-opacity="1.0" fill-opacity="0.0" stroke="rgb(0,0,0)" stroke-width="0.9999999999999997" fill="rgb(0,0,0)" stroke-linecap="butt" stroke-miterlimit="10.0"><path d="M 74.1308,229.0000 v -2.0000 "/></g><defs></defs><g stroke-linejoin="miter" stroke-opacity="1.0" fill-opacity="0.0" stroke="rgb(0,0,0)" stroke-width="0.9999999999999997" fill="rgb(0,0,0)" stroke-linecap="butt" stroke-miterlimit="10.0"><path d="M 93.3246,229.0000 v -2.0000 "/></g><defs></defs><g stroke-linejoin="miter" stroke-opacity="1.0" fill-opacity="0.0" stroke="rgb(0,0,0)" stroke-width="0.9999999999999997" fill="rgb(0,0,0)" stroke-linecap="butt" stroke-miterlimit="10.0"><path d="M 112.5184,229.0000 v -2.0000 "/></g><defs></defs><g stroke-linejoin="miter" stroke-opacity="1.0" fill-opacity="0.0" stroke="rgb(0,0,0)" stroke-width="0.9999999999999997" fill="rgb(0,0,0)" stroke-linecap="butt" stroke-miterlimit="10.0"><path d="M 131.7122,229.0000 v -2.0000 "/></g><defs></defs><g stroke-linejoin="miter" stroke-opacity="1.0" fill-opacity="0.0" stroke="rgb(0,0,0)" stroke-width="0.9999999999999997" fill="rgb(0,0,0)" stroke-linecap="butt" stroke-miterlimit="10.0"><path d="M 150.9060,229.0000 v -2.0000 "/></g><defs></defs><g stroke-linejoin="miter" stroke-opacity="1.0" fill-opacity="0.0" stroke="rgb(0,0,0)" stroke-width="0.9999999999999997" fill="rgb(0,0,0)" stroke-linecap="butt" stroke-miterlimit="10.0"><path d="M 170.0998,229.0000 v -2.0000 "/></g><defs></defs><g stroke-linejoin="miter" stroke-opacity="1.0" fill-opacity="0.0" stroke="rgb(0,0,0)" stroke-width="0.9999999999999997" fill="rgb(0,0,0)" stroke-linecap="butt" stroke-miterlimit="10.0"><path d="M 189.2936,229.0000 v -2.0000 "/></g><defs></defs><g stroke-linejoin="miter" stroke-opacity="1.0" fill-opacity="0.0" stroke="rgb(0,0,0)" stroke-width="0.9999999999999997" fill="rgb(0,0,0)" stroke-linecap="butt" stroke-miterlimit="10.0"><path d="M 208.4874,229.0000 v -2.0000 "/></g><defs></defs><g stroke-linejoin="miter" stroke-opacity="1.0" fill-opacity="0.0" stroke="rgb(0,0,0)" stroke-width="0.9999999999999997" fill="rgb(0,0,0)" stroke-linecap="butt" stroke-miterlimit="10.0"><path d="M 227.6812,229.0000 v -2.0000 "/></g><defs></defs><g stroke-linejoin="miter" stroke-opacity="1.0" fill-opacity="0.0" stroke="rgb(0,0,0)" stroke-width="0.9999999999999997" fill="rgb(0,0,0)" stroke-linecap="butt" stroke-miterlimit="10.0"><path d="M 246.8750,229.0000 v -2.0000 "/></g><defs></defs><g stroke-linejoin="miter" stroke-opacity="1.0" fill-opacity="0.0" stroke="rgb(0,0,0)" stroke-width="0.9999999999999997" fill="rgb(0,0,0)" stroke-linecap="butt" stroke-miterlimit="10.0"><path d="M 266.0688,229.0000 v -2.0000 "/></g><defs></defs><g stroke-linejoin="miter" stroke-opacity="1.0" fill-opacity="0.0" stroke="rgb(0,0,0)" stroke-width="0.9999999999999997" fill="rgb(0,0,0)" stroke-linecap="butt" stroke-miterlimit="10.0"><path d="M 285.2626,229.0000 v -2.0000 "/></g><defs></defs><g stroke-linejoin="miter" stroke-opacity="1.0" fill-opacity="0.0" stroke="rgb(0,0,0)" stroke-width="0.9999999999999997" fill="rgb(0,0,0)" stroke-linecap="butt" stroke-miterlimit="10.0"><path d="M 54.9370,229.0000 v -5.0000 "/></g><defs></defs><g stroke-linejoin="miter" stroke-opacity="1.0" fill-opacity="0.0" stroke="rgb(0,0,0)" stroke-width="0.9999999999999997" fill="rgb(0,0,0)" stroke-linecap="butt" stroke-miterlimit="10.0"><path d="M 131.7122,229.0000 v -5.0000 "/></g><defs></defs><g stroke-linejoin="miter" stroke-opacity="1.0" fill-opacity="0.0" stroke="rgb(0,0,0)" stroke-width="0.9999999999999997" fill="rgb(0,0,0)" stroke-linecap="butt" stroke-miterlimit="10.0"><path d="M 208.4874,229.0000 v -5.0000 "/></g><defs></defs><g stroke-linejoin="miter" stroke-opacity="1.0" fill-opacity="0.0" stroke="rgb(0,0,0)" stroke-width="0.9999999999999997" fill="rgb(0,0,0)" stroke-linecap="butt" stroke-miterlimit="10.0"><path d="M 285.2626,229.0000 v -5.0000 "/></g><defs></defs><g stroke-linejoin="bevel" stroke-opacity="0.0" fill-opacity="1.0" stroke="rgb(0,0,0)" stroke-width="0.0" fill="rgb(0,0,0)" stroke-linecap="butt" stroke-miterlimit="10.0"><path d="M 52.7889,240.0000 ZM 55.4044,240.1261 c -1.0189,-0.0000 -1.5861,-0.9034 -1.5861 -0.9034c -0.5672,-0.9034 -0.5672,-2.5945 -0.5672 -2.5945c 0.0000,-1.6912 0.5672,-2.5735 0.5672 -2.5735c 0.5672,-0.8824 1.5861,-0.8824 1.5861 -0.8824c 1.0084,0.0000 1.5756,0.8824 1.5756 0.8824c 0.5672,0.8824 0.5672,2.5735 0.5672 2.5735c 0.0000,1.6912 -0.5672,2.5945 -0.5672 2.5945c -0.5672,0.9034 -1.5756,0.9034 -1.5756 0.9034ZM 55.4044,240.1261 ZM 55.4044,239.4328 c 0.2941,0.0000 0.5305,-0.1628 0.5305 -0.1628c 0.2363,-0.1628 0.4097,-0.5042 0.4097 -0.5042c 0.1733,-0.3414 0.2679,-0.8718 0.2679 -0.8718c 0.0945,-0.5305 0.0945,-1.2658 0.0945 -1.2658c 0.0000,-0.7353 -0.0945,-1.2605 -0.0945 -1.2605c -0.0945,-0.5252 -0.2679,-0.8561 -0.2679 -0.8561c -0.1733,-0.3309 -0.4097,-0.4884 -0.4097 -0.4884c -0.2363,-0.1576 -0.5305,-0.1576 -0.5305 -0.1576c -0.2941,-0.0000 -0.5357,0.1576 -0.5357 0.1576c -0.2416,0.1576 -0.4149,0.4884 -0.4149 0.4884c -0.1733,0.3309 -0.2679,0.8561 -0.2679 0.8561c -0.0945,0.5252 -0.0945,1.2605 -0.0945 1.2605c 0.0000,1.4706 0.3624,2.1376 0.3624 2.1376c 0.3624,0.6670 0.9506,0.6670 0.9506 0.6670Z"/></g><defs></defs><g stroke-linejoin="bevel" stroke-opacity="0.0" fill-opacity="1.0" stroke="rgb(0,0,0)" stroke-width="0.0" fill="rgb(0,0,0)" stroke-linecap="butt" stroke-miterlimit="10.0"><path d="M 126.9118,240.0000 ZM 127.3319,239.4853 c 0.7563,-0.7563 1.3445,-1.3655 1.3445 -1.3655c 0.5882,-0.6092 0.9874,-1.1292 0.9874 -1.1292c 0.3992,-0.5200 0.6092,-0.9559 0.6092 -0.9559c 0.2101,-0.4359 0.2101,-0.8456 0.2101 -0.8456c 0.0000,-0.5777 -0.3151,-0.9454 -0.3151 -0.9454c -0.3151,-0.3676 -0.9559,-0.3676 -0.9559 -0.3676c -0.4202,-0.0000 -0.7773,0.2363 -0.7773 0.2363c -0.3571,0.2363 -0.6513,0.5725 -0.6513 0.5725l -0.4937,-0.4937 c 0.4202,-0.4622 0.8929,-0.7405 0.8929 -0.7405c 0.4727,-0.2784 1.1345,-0.2784 1.1345 -0.2784c 0.9349,0.0000 1.4706,0.5410 1.4706 0.5410c 0.5357,0.5410 0.5357,1.4338 0.5357 1.4338c 0.0000,0.4727 -0.2048,0.9506 -0.2048 0.9506c -0.2048,0.4779 -0.5672,0.9874 -0.5672 0.9874c -0.3624,0.5095 -0.8613,1.0609 -0.8613 1.0609c -0.4989,0.5515 -1.0977,1.1712 -1.0977 1.1712c 0.2731,-0.0210 0.5672,-0.0420 0.5672 -0.0420c 0.2941,-0.0210 0.5567,-0.0210 0.5567 -0.0210h 1.9433 v 0.7458 h -4.3277 v -0.5147 ZM 132.1324,240.0000 ZM 134.7479,240.1261 c -1.0189,-0.0000 -1.5861,-0.9034 -1.5861 -0.9034c -0.5672,-0.9034 -0.5672,-2.5945 -0.5672 -2.5945c 0.0000,-1.6912 0.5672,-2.5735 0.5672 -2.5735c 0.5672,-0.8824 1.5861,-0.8824 1.5861 -0.8824c 1.0084,0.0000 1.5756,0.8824 1.5756 0.8824c 0.5672,0.8824 0.5672,2.5735 0.5672 2.5735c 0.0000,1.6912 -0.5672,2.5945 -0.5672 2.5945c -0.5672,0.9034 -1.5756,0.9034 -1.5756 0.9034ZM 134.7479,240.1261 ZM 134.7479,239.4328 c 0.2941,0.0000 0.5305,-0.1628 0.5305 -0.1628c 0.2363,-0.1628 0.4097,-0.5042 0.4097 -0.5042c 0.1733,-0.3414 0.2679,-0.8718 0.2679 -0.8718c 0.0945,-0.5305 0.0945,-1.2658 0.0945 -1.2658c 0.0000,-0.7353 -0.0945,-1.2605 -0.0945 -1.2605c -0.0945,-0.5252 -0.2679,-0.8561 -0.2679 -0.8561c -0.1733,-0.3309 -0.4097,-0.4884 -0.4097 -0.4884c -0.2363,-0.1576 -0.5305,-0.1576 -0.5305 -0.1576c -0.2941,-0.0000 -0.5357,0.1576 -0.5357 0.1576c -0.2416,0.1576 -0.4149,0.4884 -0.4149 0.4884c -0.1733,0.3309 -0.2679,0.8561 -0.2679 0.8561c -0.0945,0.5252 -0.0945,1.2605 -0.0945 1.2605c 0.0000,1.4706 0.3624,2.1376 0.3624 2.1376c 0.3624,0.6670 0.9506,0.6670 0.9506 0.6670Z"/></g><defs></defs><g stroke-linejoin="bevel" stroke-opacity="0.0" fill-opacity="1.0" stroke="rgb(0,0,0)" stroke-width="0.0" fill="rgb(0,0,0)" stroke-linecap="butt" stroke-miterlimit="10.0"><path d="M 203.5872,240.0000 ZM 206.7805,237.4580 v -1.9433 c 0.0000,-0.2731 0.0158,-0.6460 0.0158 -0.6460c 0.0158,-0.3729 0.0368,-0.6460 0.0368 -0.6460h -0.0420 c -0.1261,0.2416 -0.2626,0.4727 -0.2626 0.4727c -0.1366,0.2311 -0.2836,0.4727 -0.2836 0.4727l -1.5651,2.2899 h 2.1008 ZM 206.7805,237.4580 ZM 208.5137,238.1513 h -0.9139 v 1.8487 h -0.8193 v -1.8487 h -3.0147 v -0.5672 l 2.8676,-4.2857 h 0.9664 v 4.1597 h 0.9139 v 0.6933 ZM 208.8078,240.0000 ZM 211.4233,240.1261 c -1.0189,-0.0000 -1.5861,-0.9034 -1.5861 -0.9034c -0.5672,-0.9034 -0.5672,-2.5945 -0.5672 -2.5945c 0.0000,-1.6912 0.5672,-2.5735 0.5672 -2.5735c 0.5672,-0.8824 1.5861,-0.8824 1.5861 -0.8824c 1.0084,0.0000 1.5756,0.8824 1.5756 0.8824c 0.5672,0.8824 0.5672,2.5735 0.5672 2.5735c 0.0000,1.6912 -0.5672,2.5945 -0.5672 2.5945c -0.5672,0.9034 -1.5756,0.9034 -1.5756 0.9034ZM 211.4233,240.1261 ZM 211.4233,239.4328 c 0.2941,0.0000 0.5305,-0.1628 0.5305 -0.1628c 0.2363,-0.1628 0.4097,-0.5042 0.4097 -0.5042c 0.1733,-0.3414 0.2679,-0.8718 0.2679 -0.8718c 0.0945,-0.5305 0.0945,-1.2658 0.0945 -1.2658c 0.0000,-0.7353 -0.0945,-1.2605 -0.0945 -1.2605c -0.0945,-0.5252 -0.2679,-0.8561 -0.2679 -0.8561c -0.1733,-0.3309 -0.4097,-0.4884 -0.4097 -0.4884c -0.2363,-0.1576 -0.5305,-0.1576 -0.5305 -0.1576c -0.2941,-0.0000 -0.5357,0.1576 -0.5357 0.1576c -0.2416,0.1576 -0.4149,0.4884 -0.4149 0.4884c -0.1733,0.3309 -0.2679,0.8561 -0.2679 0.8561c -0.0945,0.5252 -0.0945,1.2605 -0.0945 1.2605c 0.0000,1.4706 0.3624,2.1376 0.3624 2.1376c 0.3624,0.6670 0.9506,0.6670 0.9506 0.6670Z"/></g><defs></defs><g stroke-linejoin="bevel" stroke-opacity="0.0" fill-opacity="1.0" stroke="rgb(0,0,0)" stroke-width="0.0" fill="rgb(0,0,0)" stroke-linecap="butt" stroke-miterlimit="10.0"><path d="M 280.5252,240.0000 ZM 283.3403,239.4433 c 0.2521,0.0000 0.4622,-0.1050 0.4622 -0.1050c 0.2101,-0.1050 0.3676,-0.2994 0.3676 -0.2994c 0.1576,-0.1943 0.2468,-0.4622 0.2468 -0.4622c 0.0893,-0.2679 0.0893,-0.6040 0.0893 -0.6040c 0.0000,-0.6618 -0.3046,-1.0399 -0.3046 -1.0399c -0.3046,-0.3782 -0.9349,-0.3782 -0.9349 -0.3782c -0.3151,-0.0000 -0.6880,0.2048 -0.6880 0.2048c -0.3729,0.2048 -0.7090,0.6775 -0.7090 0.6775c 0.0840,0.9874 0.4569,1.4968 0.4569 1.4968c 0.3729,0.5095 1.0137,0.5095 1.0137 0.5095ZM 283.3403,239.4433 ZM 284.7164,234.4223 c -0.2101,-0.2416 -0.4989,-0.3834 -0.4989 -0.3834c -0.2889,-0.1418 -0.6040,-0.1418 -0.6040 -0.1418c -0.3466,-0.0000 -0.6618,0.1471 -0.6618 0.1471c -0.3151,0.1471 -0.5567,0.4832 -0.5567 0.4832c -0.2416,0.3361 -0.3887,0.8771 -0.3887 0.8771c -0.1471,0.5410 -0.1576,1.3393 -0.1576 1.3393c 0.3151,-0.3887 0.7353,-0.6145 0.7353 -0.6145c 0.4202,-0.2258 0.8298,-0.2258 0.8298 -0.2258c 0.8718,0.0000 1.3918,0.5147 1.3918 0.5147c 0.5200,0.5147 0.5200,1.5546 0.5200 1.5546c 0.0000,0.4832 -0.1576,0.8771 -0.1576 0.8771c -0.1576,0.3939 -0.4307,0.6775 -0.4307 0.6775c -0.2731,0.2836 -0.6303,0.4412 -0.6303 0.4412c -0.3571,0.1576 -0.7668,0.1576 -0.7668 0.1576c -0.4937,-0.0000 -0.9139,-0.1996 -0.9139 -0.1996c -0.4202,-0.1996 -0.7300,-0.6040 -0.7300 -0.6040c -0.3099,-0.4044 -0.4884,-1.0084 -0.4884 -1.0084c -0.1786,-0.6040 -0.1786,-1.4128 -0.1786 -1.4128c 0.0000,-1.0084 0.2101,-1.7174 0.2101 -1.7174c 0.2101,-0.7090 0.5672,-1.1555 0.5672 -1.1555c 0.3571,-0.4464 0.8141,-0.6513 0.8141 -0.6513c 0.4569,-0.2048 0.9611,-0.2048 0.9611 -0.2048c 0.5462,0.0000 0.9401,0.2048 0.9401 0.2048c 0.3939,0.2048 0.6775,0.5095 0.6775 0.5095ZM 285.7458,240.0000 ZM 288.3613,240.1261 c -1.0189,-0.0000 -1.5861,-0.9034 -1.5861 -0.9034c -0.5672,-0.9034 -0.5672,-2.5945 -0.5672 -2.5945c 0.0000,-1.6912 0.5672,-2.5735 0.5672 -2.5735c 0.5672,-0.8824 1.5861,-0.8824 1.5861 -0.8824c 1.0084,0.0000 1.5756,0.8824 1.5756 0.8824c 0.5672,0.8824 0.5672,2.5735 0.5672 2.5735c 0.0000,1.6912 -0.5672,2.5945 -0.5672 2.5945c -0.5672,0.9034 -1.5756,0.9034 -1.5756 0.9034ZM 288.3613,240.1261 ZM 288.3613,239.4328 c 0.2941,0.0000 0.5305,-0.1628 0.5305 -0.1628c 0.2363,-0.1628 0.4097,-0.5042 0.4097 -0.5042c 0.1733,-0.3414 0.2679,-0.8718 0.2679 -0.8718c 0.0945,-0.5305 0.0945,-1.2658 0.0945 -1.2658c 0.0000,-0.7353 -0.0945,-1.2605 -0.0945 -1.2605c -0.0945,-0.5252 -0.2679,-0.8561 -0.2679 -0.8561c -0.1733,-0.3309 -0.4097,-0.4884 -0.4097 -0.4884c -0.2363,-0.1576 -0.5305,-0.1576 -0.5305 -0.1576c -0.2941,-0.0000 -0.5357,0.1576 -0.5357 0.1576c -0.2416,0.1576 -0.4149,0.4884 -0.4149 0.4884c -0.1733,0.3309 -0.2679,0.8561 -0.2679 0.8561c -0.0945,0.5252 -0.0945,1.2605 -0.0945 1.2605c 0.0000,1.4706 0.3624,2.1376 0.3624 2.1376c 0.3624,0.6670 0.9506,0.6670 0.9506 0.6670Z"/></g><defs></defs><g stroke-linejoin="bevel" stroke-opacity="0.0" fill-opacity="1.0" stroke="rgb(0,0,0)" stroke-width="0.0" fill="rgb(0,0,0)" stroke-linecap="butt" stroke-miterlimit="10.0"><path d="M 138.4664,246.6071 ZM 142.3424,243.8025 l -0.3256,-1.0504 c -0.1891,-0.5777 -0.3571,-1.1502 -0.3571 -1.1502c -0.1681,-0.5725 -0.3361,-1.1712 -0.3361 -1.1712h -0.0420 c -0.1576,0.5987 -0.3256,1.1712 -0.3256 1.1712c -0.1681,0.5725 -0.3571,1.1502 -0.3571 1.1502l -0.3256,1.0504 h 2.0693 ZM 142.3424,243.8025 ZM 142.5630,244.5063 h -2.5105 l -0.6618,2.1008 h -0.8929 l 2.3319,-6.8908 h 0.9874 l 2.3319,6.8908 h -0.9349 ZM 144.1807,246.6071 ZM 144.6639,244.0651 c 0.0000,-0.6408 0.1996,-1.1397 0.1996 -1.1397c 0.1996,-0.4989 0.5357,-0.8456 0.5357 -0.8456c 0.3361,-0.3466 0.7826,-0.5252 0.7826 -0.5252c 0.4464,-0.1786 0.9401,-0.1786 0.9401 -0.1786c 0.5042,0.0000 0.8666,0.1838 0.8666 0.1838c 0.3624,0.1838 0.6250,0.4254 0.6250 0.4254l -0.4307,0.5567 c -0.2311,-0.1996 -0.4779,-0.3256 -0.4779 -0.3256c -0.2468,-0.1261 -0.5515,-0.1261 -0.5515 -0.1261c -0.3466,-0.0000 -0.6408,0.1418 -0.6408 0.1418c -0.2941,0.1418 -0.5042,0.4044 -0.5042 0.4044c -0.2101,0.2626 -0.3309,0.6250 -0.3309 0.6250c -0.1208,0.3624 -0.1208,0.8036 -0.1208 0.8036c 0.0000,0.4412 0.1155,0.7983 0.1155 0.7983c 0.1155,0.3571 0.3204,0.6145 0.3204 0.6145c 0.2048,0.2574 0.4989,0.3992 0.4989 0.3992c 0.2941,0.1418 0.6408,0.1418 0.6408 0.1418c 0.3676,0.0000 0.6670,-0.1523 0.6670 -0.1523c 0.2994,-0.1523 0.5305,-0.3624 0.5305 -0.3624l 0.3887,0.5672 c -0.3466,0.3046 -0.7721,0.4832 -0.7721 0.4832c -0.4254,0.1786 -0.8876,0.1786 -0.8876 0.1786c -0.5042,-0.0000 -0.9454,-0.1786 -0.9454 -0.1786c -0.4412,-0.1786 -0.7616,-0.5200 -0.7616 -0.5200c -0.3204,-0.3414 -0.5042,-0.8403 -0.5042 -0.8403c -0.1838,-0.4989 -0.1838,-1.1292 -0.1838 -1.1292ZM 148.7500,246.6071 ZM 149.2332,244.0651 c 0.0000,-0.6408 0.1996,-1.1397 0.1996 -1.1397c 0.1996,-0.4989 0.5357,-0.8456 0.5357 -0.8456c 0.3361,-0.3466 0.7826,-0.5252 0.7826 -0.5252c 0.4464,-0.1786 0.9401,-0.1786 0.9401 -0.1786c 0.5042,0.0000 0.8666,0.1838 0.8666 0.1838c 0.3624,0.1838 0.6250,0.4254 0.6250 0.4254l -0.4307,0.5567 c -0.2311,-0.1996 -0.4779,-0.3256 -0.4779 -0.3256c -0.2468,-0.1261 -0.5515,-0.1261 -0.5515 -0.1261c -0.3466,-0.0000 -0.6408,0.1418 -0.6408 0.1418c -0.2941,0.1418 -0.5042,0.4044 -0.5042 0.4044c -0.2101,0.2626 -0.3309,0.6250 -0.3309 0.6250c -0.1208,0.3624 -0.1208,0.8036 -0.1208 0.8036c 0.0000,0.4412 0.1155,0.7983 0.1155 0.7983c 0.1155,0.3571 0.3204,0.6145 0.3204 0.6145c 0.2048,0.2574 0.4989,0.3992 0.4989 0.3992c 0.2941,0.1418 0.6408,0.1418 0.6408 0.1418c 0.3676,0.0000 0.6670,-0.1523 0.6670 -0.1523c 0.2994,-0.1523 0.5305,-0.3624 0.5305 -0.3624l 0.3887,0.5672 c -0.3466,0.3046 -0.7721,0.4832 -0.7721 0.4832c -0.4254,0.1786 -0.8876,0.1786 -0.8876 0.1786c -0.5042,-0.0000 -0.9454,-0.1786 -0.9454 -0.1786c -0.4412,-0.1786 -0.7616,-0.5200 -0.7616 -0.5200c -0.3204,-0.3414 -0.5042,-0.8403 -0.5042 -0.8403c -0.1838,-0.4989 -0.1838,-1.1292 -0.1838 -1.1292ZM 153.5399,246.6071 ZM 154.3277,241.5021 h 0.8718 v 3.1197 c 0.0000,0.7248 0.2258,1.0452 0.2258 1.0452c 0.2258,0.3204 0.7300,0.3204 0.7300 0.3204c 0.3992,0.0000 0.7038,-0.2048 0.7038 -0.2048c 0.3046,-0.2048 0.6723,-0.6565 0.6723 -0.6565v -3.6239 h 0.8613 v 5.1050 h -0.7143 l -0.0735,-0.7983 h -0.0315 c -0.3571,0.4202 -0.7511,0.6723 -0.7511 0.6723c -0.3939,0.2521 -0.9296,0.2521 -0.9296 0.2521c -0.8193,-0.0000 -1.1922,-0.5042 -1.1922 -0.5042c -0.3729,-0.5042 -0.3729,-1.4916 -0.3729 -1.4916v -3.2353 ZM 159.2542,246.6071 ZM 160.1155,241.5021 h 0.7143 l 0.0735,0.9244 h 0.0315 c 0.2626,-0.4832 0.6355,-0.7668 0.6355 -0.7668c 0.3729,-0.2836 0.8141,-0.2836 0.8141 -0.2836c 0.3046,0.0000 0.5462,0.1050 0.5462 0.1050l -0.1681,0.7563 c -0.1261,-0.0420 -0.2311,-0.0630 -0.2311 -0.0630c -0.1050,-0.0210 -0.2626,-0.0210 -0.2626 -0.0210c -0.3256,-0.0000 -0.6775,0.2626 -0.6775 0.2626c -0.3519,0.2626 -0.6145,0.9139 -0.6145 0.9139v 3.2773 h -0.8613 v -5.1050 ZM 162.6366,246.6071 ZM 163.2458,245.2836 c 0.0000,-0.8403 0.7511,-1.2868 0.7511 -1.2868c 0.7511,-0.4464 2.3897,-0.6250 2.3897 -0.6250c 0.0000,-0.2416 -0.0473,-0.4727 -0.0473 -0.4727c -0.0473,-0.2311 -0.1681,-0.4097 -0.1681 -0.4097c -0.1208,-0.1786 -0.3204,-0.2889 -0.3204 -0.2889c -0.1996,-0.1103 -0.5147,-0.1103 -0.5147 -0.1103c -0.4517,-0.0000 -0.8351,0.1681 -0.8351 0.1681c -0.3834,0.1681 -0.6880,0.3782 -0.6880 0.3782l -0.3466,-0.5987 c 0.3571,-0.2311 0.8718,-0.4464 0.8718 -0.4464c 0.5147,-0.2153 1.1345,-0.2153 1.1345 -0.2153c 0.9349,0.0000 1.3550,0.5725 1.3550 0.5725c 0.4202,0.5725 0.4202,1.5284 0.4202 1.5284v 3.1303 h -0.7143 l -0.0735,-0.6092 h -0.0210 c -0.3676,0.3046 -0.7931,0.5200 -0.7931 0.5200c -0.4254,0.2153 -0.8981,0.2153 -0.8981 0.2153c -0.6513,-0.0000 -1.0767,-0.3782 -1.0767 -0.3782c -0.4254,-0.3782 -0.4254,-1.0714 -0.4254 -1.0714ZM 163.2458,245.2836 ZM 164.0966,245.2206 c 0.0000,0.4412 0.2574,0.6303 0.2574 0.6303c 0.2574,0.1891 0.6355,0.1891 0.6355 0.1891c 0.3676,0.0000 0.6985,-0.1733 0.6985 -0.1733c 0.3309,-0.1733 0.6985,-0.5095 0.6985 -0.5095v -1.4181 c -0.6408,0.0840 -1.0819,0.1996 -1.0819 0.1996c -0.4412,0.1155 -0.7090,0.2731 -0.7090 0.2731c -0.2679,0.1576 -0.3834,0.3624 -0.3834 0.3624c -0.1155,0.2048 -0.1155,0.4464 -0.1155 0.4464ZM 168.0147,246.6071 ZM 168.4979,244.0651 c 0.0000,-0.6408 0.1996,-1.1397 0.1996 -1.1397c 0.1996,-0.4989 0.5357,-0.8456 0.5357 -0.8456c 0.3361,-0.3466 0.7826,-0.5252 0.7826 -0.5252c 0.4464,-0.1786 0.9401,-0.1786 0.9401 -0.1786c 0.5042,0.0000 0.8666,0.1838 0.8666 0.1838c 0.3624,0.1838 0.6250,0.4254 0.6250 0.4254l -0.4307,0.5567 c -0.2311,-0.1996 -0.4779,-0.3256 -0.4779 -0.3256c -0.2468,-0.1261 -0.5515,-0.1261 -0.5515 -0.1261c -0.3466,-0.0000 -0.6408,0.1418 -0.6408 0.1418c -0.2941,0.1418 -0.5042,0.4044 -0.5042 0.4044c -0.2101,0.2626 -0.3309,0.6250 -0.3309 0.6250c -0.1208,0.3624 -0.1208,0.8036 -0.1208 0.8036c 0.0000,0.4412 0.1155,0.7983 0.1155 0.7983c 0.1155,0.3571 0.3204,0.6145 0.3204 0.6145c 0.2048,0.2574 0.4989,0.3992 0.4989 0.3992c 0.2941,0.1418 0.6408,0.1418 0.6408 0.1418c 0.3676,0.0000 0.6670,-0.1523 0.6670 -0.1523c 0.2994,-0.1523 0.5305,-0.3624 0.5305 -0.3624l 0.3887,0.5672 c -0.3466,0.3046 -0.7721,0.4832 -0.7721 0.4832c -0.4254,0.1786 -0.8876,0.1786 -0.8876 0.1786c -0.5042,-0.0000 -0.9454,-0.1786 -0.9454 -0.1786c -0.4412,-0.1786 -0.7616,-0.5200 -0.7616 -0.5200c -0.3204,-0.3414 -0.5042,-0.8403 -0.5042 -0.8403c -0.1838,-0.4989 -0.1838,-1.1292 -0.1838 -1.1292ZM 172.8676,246.6071 ZM 173.3824,248.0147 l 0.1891,0.0473 c 0.0000,0.0000 0.1996,0.0263 0.1996 0.0263c 0.4412,0.0000 0.7195,-0.3099 0.7195 -0.3099c 0.2784,-0.3099 0.4359,-0.7826 0.4359 -0.7826l 0.1155,-0.3782 l -2.0483,-5.1155 h 0.8929 l 1.0399,2.8256 c 0.1155,0.3361 0.2468,0.7090 0.2468 0.7090c 0.1313,0.3729 0.2468,0.7300 0.2468 0.7300h 0.0420 c 0.1155,-0.3466 0.2206,-0.7248 0.2206 -0.7248c 0.1050,-0.3782 0.2101,-0.7143 0.2101 -0.7143l 0.9139,-2.8256 h 0.8403 l -1.9223,5.5252 c -0.1366,0.3782 -0.3046,0.7038 -0.3046 0.7038c -0.1681,0.3256 -0.3992,0.5620 -0.3992 0.5620c -0.2311,0.2363 -0.5252,0.3729 -0.5252 0.3729c -0.2941,0.1366 -0.6828,0.1366 -0.6828 0.1366c -0.1786,-0.0000 -0.3256,-0.0263 -0.3256 -0.0263c -0.1471,-0.0263 -0.2731,-0.0788 -0.2731 -0.0788l 0.1681,-0.6828 h 0.0000 ZM 179.8950,246.6071 ZM 182.1429,248.4559 c -0.6513,-1.0504 -1.0189,-2.2164 -1.0189 -2.2164c -0.3676,-1.1660 -0.3676,-2.5525 -0.3676 -2.5525c 0.0000,-1.3866 0.3676,-2.5473 0.3676 -2.5473c 0.3676,-1.1607 1.0189,-2.2216 1.0189 -2.2216l 0.5357,0.2521 c -0.6092,1.0084 -0.9086,2.1586 -0.9086 2.1586c -0.2994,1.1502 -0.2994,2.3582 -0.2994 2.3582c 0.0000,1.2080 0.2994,2.3582 0.2994 2.3582c 0.2994,1.1502 0.9086,2.1586 0.9086 2.1586l -0.5357,0.2521 h 0.0000 ZM 183.0777,246.6071 ZM 183.9391,239.1282 h 0.8613 v 2.0378 l -0.0210,0.9244 c 0.3466,-0.3046 0.7563,-0.5095 0.7563 -0.5095c 0.4097,-0.2048 0.8403,-0.2048 0.8403 -0.2048c 0.4937,0.0000 0.8718,0.1838 0.8718 0.1838c 0.3782,0.1838 0.6355,0.5252 0.6355 0.5252c 0.2574,0.3414 0.3887,0.8193 0.3887 0.8193c 0.1313,0.4779 0.1313,1.0662 0.1313 1.0662c 0.0000,0.6513 -0.1786,1.1660 -0.1786 1.1660c -0.1786,0.5147 -0.4832,0.8718 -0.4832 0.8718c -0.3046,0.3571 -0.7038,0.5410 -0.7038 0.5410c -0.3992,0.1838 -0.8403,0.1838 -0.8403 0.1838c -0.3571,-0.0000 -0.7405,-0.1628 -0.7405 -0.1628c -0.3834,-0.1628 -0.7195,-0.4674 -0.7195 -0.4674h -0.0315 l -0.0735,0.5042 h -0.6933 v -7.4790 ZM 183.9391,239.1282 ZM 184.8004,245.4727 c 0.3361,0.2941 0.6670,0.4149 0.6670 0.4149c 0.3309,0.1208 0.5830,0.1208 0.5830 0.1208c 0.3151,0.0000 0.5830,-0.1418 0.5830 -0.1418c 0.2679,-0.1418 0.4622,-0.3992 0.4622 -0.3992c 0.1943,-0.2574 0.3046,-0.6355 0.3046 -0.6355c 0.1103,-0.3782 0.1103,-0.8508 0.1103 -0.8508c 0.0000,-0.4202 -0.0735,-0.7668 -0.0735 -0.7668c -0.0735,-0.3466 -0.2363,-0.5935 -0.2363 -0.5935c -0.1628,-0.2468 -0.4202,-0.3834 -0.4202 -0.3834c -0.2574,-0.1366 -0.6145,-0.1366 -0.6145 -0.1366c -0.6197,-0.0000 -1.3655,0.6933 -1.3655 0.6933v 2.6786 ZM 188.9076,246.6071 ZM 190.2101,240.4517 c -0.2521,-0.0000 -0.4254,-0.1576 -0.4254 -0.1576c -0.1733,-0.1576 -0.1733,-0.3992 -0.1733 -0.3992c 0.0000,-0.2521 0.1733,-0.4044 0.1733 -0.4044c 0.1733,-0.1523 0.4254,-0.1523 0.4254 -0.1523c 0.2521,0.0000 0.4254,0.1523 0.4254 0.1523c 0.1733,0.1523 0.1733,0.4044 0.1733 0.4044c 0.0000,0.2416 -0.1733,0.3992 -0.1733 0.3992c -0.1733,0.1576 -0.4254,0.1576 -0.4254 0.1576ZM 190.2101,240.4517 ZM 189.7689,241.5021 h 0.8613 v 5.1050 h -0.8613 v -5.1050 ZM 191.4916,246.6071 ZM 192.5000,242.2059 h -0.7563 v -0.6513 l 0.7983,-0.0525 l 0.1050,-1.4286 h 0.7248 v 1.4286 h 1.3761 v 0.7038 h -1.3761 v 2.8361 c 0.0000,0.4727 0.1733,0.7300 0.1733 0.7300c 0.1733,0.2574 0.6145,0.2574 0.6145 0.2574c 0.1366,0.0000 0.2941,-0.0420 0.2941 -0.0420c 0.1576,-0.0420 0.2836,-0.0945 0.2836 -0.0945l 0.1681,0.6513 c -0.2101,0.0735 -0.4569,0.1313 -0.4569 0.1313c -0.2468,0.0578 -0.4884,0.0578 -0.4884 0.0578c -0.4097,-0.0000 -0.6880,-0.1261 -0.6880 -0.1261c -0.2784,-0.1261 -0.4517,-0.3466 -0.4517 -0.3466c -0.1733,-0.2206 -0.2468,-0.5357 -0.2468 -0.5357c -0.0735,-0.3151 -0.0735,-0.6933 -0.0735 -0.6933v -2.8256 ZM 195.0420,246.6071 ZM 195.7668,245.4517 c 0.3361,0.2731 0.6880,0.4412 0.6880 0.4412c 0.3519,0.1681 0.8141,0.1681 0.8141 0.1681c 0.5042,0.0000 0.7563,-0.2311 0.7563 -0.2311c 0.2521,-0.2311 0.2521,-0.5672 0.2521 -0.5672c 0.0000,-0.1996 -0.1050,-0.3466 -0.1050 -0.3466c -0.1050,-0.1471 -0.2679,-0.2574 -0.2679 -0.2574c -0.1628,-0.1103 -0.3729,-0.1943 -0.3729 -0.1943l -0.4202,-0.1681 c -0.2731,-0.0945 -0.5462,-0.2153 -0.5462 -0.2153c -0.2731,-0.1208 -0.4884,-0.2941 -0.4884 -0.2941c -0.2153,-0.1733 -0.3519,-0.4044 -0.3519 -0.4044c -0.1366,-0.2311 -0.1366,-0.5567 -0.1366 -0.5567c 0.0000,-0.3046 0.1208,-0.5725 0.1208 -0.5725c 0.1208,-0.2679 0.3466,-0.4622 0.3466 -0.4622c 0.2258,-0.1943 0.5515,-0.3046 0.5515 -0.3046c 0.3256,-0.1103 0.7353,-0.1103 0.7353 -0.1103c 0.4832,0.0000 0.8876,0.1681 0.8876 0.1681c 0.4044,0.1681 0.6985,0.4097 0.6985 0.4097l -0.4097,0.5462 c -0.2626,-0.1996 -0.5462,-0.3256 -0.5462 -0.3256c -0.2836,-0.1261 -0.6197,-0.1261 -0.6197 -0.1261c -0.4832,-0.0000 -0.7090,0.2206 -0.7090 0.2206c -0.2258,0.2206 -0.2258,0.5147 -0.2258 0.5147c 0.0000,0.1786 0.0945,0.3099 0.0945 0.3099c 0.0945,0.1313 0.2521,0.2311 0.2521 0.2311c 0.1576,0.0998 0.3624,0.1786 0.3624 0.1786c 0.2048,0.0788 0.4254,0.1628 0.4254 0.1628c 0.2731,0.1050 0.5515,0.2206 0.5515 0.2206c 0.2784,0.1155 0.4989,0.2889 0.4989 0.2889c 0.2206,0.1733 0.3624,0.4254 0.3624 0.4254c 0.1418,0.2521 0.1418,0.6092 0.1418 0.6092c 0.0000,0.3151 -0.1208,0.5882 -0.1208 0.5882c -0.1208,0.2731 -0.3571,0.4832 -0.3571 0.4832c -0.2363,0.2101 -0.5882,0.3309 -0.5882 0.3309c -0.3519,0.1208 -0.8036,0.1208 -0.8036 0.1208c -0.5462,-0.0000 -1.0399,-0.1996 -1.0399 -0.1996c -0.4937,-0.1996 -0.8613,-0.5042 -0.8613 -0.5042ZM 199.4433,246.6071 ZM 199.8424,248.2038 c 0.6092,-1.0084 0.9086,-2.1586 0.9086 -2.1586c 0.2994,-1.1502 0.2994,-2.3582 0.2994 -2.3582c 0.0000,-1.2080 -0.2994,-2.3582 -0.2994 -2.3582c -0.2994,-1.1502 -0.9086,-2.1586 -0.9086 -2.1586l 0.5357,-0.2521 c 0.6513,1.0609 1.0189,2.2216 1.0189 2.2216c 0.3676,1.1607 0.3676,2.5473 0.3676 2.5473c 0.0000,1.3866 -0.3676,2.5525 -0.3676 2.5525c -0.3676,1.1660 -1.0189,2.2164 -1.0189 2.2164l -0.5357,-0.2521 h 0.0000 Z"/></g><defs></defs><g stroke-linejoin="bevel" stroke-opacity="0.0" fill-opacity="1.0" stroke="rgb(0,0,0)" stroke-width="0.0" fill="rgb(176,224,230)" stroke-linecap="butt" stroke-miterlimit="10.0"><path d="M 11.1346,266.7671 c -1.3942,0.8952 -3.0324,0.8298 -3.6590 -0.1462c -0.6266,-0.9759 -0.0044,-2.4928 1.3898 -3.3880c 1.3942,-0.8952 3.0324,-0.8298 3.6590 0.1462c 0.6266,0.9759 0.0044,2.4928 -1.3898 3.3880Z"/></g><defs></defs><g stroke-linejoin="bevel" stroke-opacity="1.0" fill-opacity="0.0" stroke="rgb(176,224,230)" stroke-width="0.9999999999999997" fill="rgb(0,0,0)" stroke-linecap="butt" stroke-miterlimit="10.0"><path d="M 11.1346,266.7671 c -1.3942,0.8952 -3.0324,0.8298 -3.6590 -0.1462c -0.6266,-0.9759 -0.0044,-2.4928 1.3898 -3.3880c 1.3942,-0.8952 3.0324,-0.8298 3.6590 0.1462c 0.6266,0.9759 0.0044,2.4928 -1.3898 3.3880"/></g><defs></defs><g stroke-linejoin="bevel" stroke-opacity="0.0" fill-opacity="1.0" stroke="rgb(0,0,0)" stroke-width="0.0" fill="rgb(176,224,230)" stroke-linecap="butt" stroke-miterlimit="10.0"><path d="M 21.1346,266.7671 c -1.3942,0.8952 -3.0324,0.8298 -3.6590 -0.1462c -0.6266,-0.9759 -0.0044,-2.4928 1.3898 -3.3880c 1.3942,-0.8952 3.0324,-0.8298 3.6590 0.1462c 0.6266,0.9759 0.0044,2.4928 -1.3898 3.3880Z"/></g><defs></defs><g stroke-linejoin="bevel" stroke-opacity="1.0" fill-opacity="0.0" stroke="rgb(176,224,230)" stroke-width="0.9999999999999997" fill="rgb(0,0,0)" stroke-linecap="butt" stroke-miterlimit="10.0"><path d="M 21.1346,266.7671 c -1.3942,0.8952 -3.0324,0.8298 -3.6590 -0.1462c -0.6266,-0.9759 -0.0044,-2.4928 1.3898 -3.3880c 1.3942,-0.8952 3.0324,-0.8298 3.6590 0.1462c 0.6266,0.9759 0.0044,2.4928 -1.3898 3.3880"/></g><defs></defs><g stroke-linejoin="bevel" stroke-opacity="0.0" fill-opacity="1.0" stroke="rgb(0,0,0)" stroke-width="0.0" fill="rgb(176,224,230)" stroke-linecap="butt" stroke-miterlimit="10.0"><path d="M 31.1346,266.7671 c -1.3942,0.8952 -3.0324,0.8298 -3.6590 -0.1462c -0.6266,-0.9759 -0.0044,-2.4928 1.3898 -3.3880c 1.3942,-0.8952 3.0324,-0.8298 3.6590 0.1462c 0.6266,0.9759 0.0044,2.4928 -1.3898 3.3880Z"/></g><defs></defs><g stroke-linejoin="bevel" stroke-opacity="1.0" fill-opacity="0.0" stroke="rgb(176,224,230)" stroke-width="0.9999999999999997" fill="rgb(0,0,0)" stroke-linecap="butt" stroke-miterlimit="10.0"><path d="M 31.1346,266.7671 c -1.3942,0.8952 -3.0324,0.8298 -3.6590 -0.1462c -0.6266,-0.9759 -0.0044,-2.4928 1.3898 -3.3880c 1.3942,-0.8952 3.0324,-0.8298 3.6590 0.1462c 0.6266,0.9759 0.0044,2.4928 -1.3898 3.3880"/></g><defs></defs><g stroke-linejoin="bevel" stroke-opacity="0.0" fill-opacity="1.0" stroke="rgb(0,0,0)" stroke-width="0.0" fill="rgb(0,0,0)" stroke-linecap="butt" stroke-miterlimit="10.0"><path d="M 35.0735,266.6071 ZM 36.0189,259.7164 h 1.7227 c 1.5966,0.0000 2.4265,0.8824 2.4265 0.8824c 0.8298,0.8824 0.8298,2.5315 0.8298 2.5315c 0.0000,0.8193 -0.2101,1.4653 -0.2101 1.4653c -0.2101,0.6460 -0.6197,1.0924 -0.6197 1.0924c -0.4097,0.4464 -1.0084,0.6828 -1.0084 0.6828c -0.5987,0.2363 -1.3761,0.2363 -1.3761 0.2363h -1.7647 v -6.8908 ZM 36.0189,259.7164 ZM 37.6786,265.8929 c 1.2080,0.0000 1.8120,-0.7248 1.8120 -0.7248c 0.6040,-0.7248 0.6040,-2.0378 0.6040 -2.0378c 0.0000,-1.3130 -0.6040,-2.0063 -0.6040 -2.0063c -0.6040,-0.6933 -1.8120,-0.6933 -1.8120 -0.6933h -0.7878 v 5.4622 h 0.7878 ZM 41.5336,266.6071 ZM 42.4790,259.7164 h 3.9706 v 0.7353 h -3.0987 v 2.3319 h 2.6261 v 0.7353 h -2.6261 v 3.0882 h -0.8718 v -6.8908 ZM 46.5546,266.6071 ZM 47.3424,261.5021 h 0.8718 v 3.1197 c 0.0000,0.7248 0.2258,1.0452 0.2258 1.0452c 0.2258,0.3204 0.7300,0.3204 0.7300 0.3204c 0.3992,0.0000 0.7038,-0.2048 0.7038 -0.2048c 0.3046,-0.2048 0.6723,-0.6565 0.6723 -0.6565v -3.6239 h 0.8613 v 5.1050 h -0.7143 l -0.0735,-0.7983 h -0.0315 c -0.3571,0.4202 -0.7511,0.6723 -0.7511 0.6723c -0.3939,0.2521 -0.9296,0.2521 -0.9296 0.2521c -0.8193,-0.0000 -1.1922,-0.5042 -1.1922 -0.5042c -0.3729,-0.5042 -0.3729,-1.4916 -0.3729 -1.4916v -3.2353 ZM 52.2689,266.6071 ZM 53.1303,261.5021 h 0.7143 l 0.0735,0.7353 h 0.0315 c 0.3676,-0.3676 0.7721,-0.6145 0.7721 -0.6145c 0.4044,-0.2468 0.9401,-0.2468 0.9401 -0.2468c 0.8088,0.0000 1.1817,0.5042 1.1817 0.5042c 0.3729,0.5042 0.3729,1.4916 0.3729 1.4916v 3.2353 h -0.8613 v -3.1197 c 0.0000,-0.7248 -0.2311,-1.0452 -0.2311 -1.0452c -0.2311,-0.3204 -0.7353,-0.3204 -0.7353 -0.3204c -0.3992,-0.0000 -0.7038,0.1996 -0.7038 0.1996c -0.3046,0.1996 -0.6933,0.5882 -0.6933 0.5882v 3.6975 h -0.8613 v -5.1050 Z"/></g><defs></defs><g stroke-linejoin="bevel" stroke-opacity="1.0" fill-opacity="0.0" stroke="rgb(0,100,0)" stroke-width="0.9999999999999997" fill="rgb(0,0,0)" stroke-linecap="butt" stroke-miterlimit="10.0"><path d="M 81.2495,267.1213 l -4.2426,-4.2426 M 81.2495,262.8787 l -4.2426,4.2426 "/></g><defs></defs><g stroke-linejoin="bevel" stroke-opacity="1.0" fill-opacity="0.0" stroke="rgb(0,100,0)" stroke-width="0.9999999999999997" fill="rgb(0,0,0)" stroke-linecap="butt" stroke-miterlimit="10.0"><path d="M 91.2495,267.1213 l -4.2426,-4.2426 M 91.2495,262.8787 l -4.2426,4.2426 "/></g><defs></defs><g stroke-linejoin="bevel" stroke-opacity="1.0" fill-opacity="0.0" stroke="rgb(0,100,0)" stroke-width="0.9999999999999997" fill="rgb(0,0,0)" stroke-linecap="butt" stroke-miterlimit="10.0"><path d="M 101.2495,267.1213 l -4.2426,-4.2426 M 101.2495,262.8787 l -4.2426,4.2426 "/></g><defs></defs><g stroke-linejoin="bevel" stroke-opacity="0.0" fill-opacity="1.0" stroke="rgb(0,0,0)" stroke-width="0.0" fill="rgb(0,0,0)" stroke-linecap="butt" stroke-miterlimit="10.0"><path d="M 104.2017,266.6071 ZM 105.1471,259.7164 h 3.9706 v 0.7353 h -3.0987 v 2.3319 h 2.6261 v 0.7353 h -2.6261 v 3.0882 h -0.8718 v -6.8908 ZM 109.1807,266.6071 ZM 110.0420,261.5021 h 0.7143 l 0.0735,0.9244 h 0.0315 c 0.2626,-0.4832 0.6355,-0.7668 0.6355 -0.7668c 0.3729,-0.2836 0.8141,-0.2836 0.8141 -0.2836c 0.3046,0.0000 0.5462,0.1050 0.5462 0.1050l -0.1681,0.7563 c -0.1261,-0.0420 -0.2311,-0.0630 -0.2311 -0.0630c -0.1050,-0.0210 -0.2626,-0.0210 -0.2626 -0.0210c -0.3256,-0.0000 -0.6775,0.2626 -0.6775 0.2626c -0.3519,0.2626 -0.6145,0.9139 -0.6145 0.9139v 3.2773 h -0.8613 v -5.1050 ZM 112.5630,266.6071 ZM 113.1723,265.2836 c 0.0000,-0.8403 0.7511,-1.2868 0.7511 -1.2868c 0.7511,-0.4464 2.3897,-0.6250 2.3897 -0.6250c 0.0000,-0.2416 -0.0473,-0.4727 -0.0473 -0.4727c -0.0473,-0.2311 -0.1681,-0.4097 -0.1681 -0.4097c -0.1208,-0.1786 -0.3204,-0.2889 -0.3204 -0.2889c -0.1996,-0.1103 -0.5147,-0.1103 -0.5147 -0.1103c -0.4517,-0.0000 -0.8351,0.1681 -0.8351 0.1681c -0.3834,0.1681 -0.6880,0.3782 -0.6880 0.3782l -0.3466,-0.5987 c 0.3571,-0.2311 0.8718,-0.4464 0.8718 -0.4464c 0.5147,-0.2153 1.1345,-0.2153 1.1345 -0.2153c 0.9349,0.0000 1.3550,0.5725 1.3550 0.5725c 0.4202,0.5725 0.4202,1.5284 0.4202 1.5284v 3.1303 h -0.7143 l -0.0735,-0.6092 h -0.0210 c -0.3676,0.3046 -0.7931,0.5200 -0.7931 0.5200c -0.4254,0.2153 -0.8981,0.2153 -0.8981 0.2153c -0.6513,-0.0000 -1.0767,-0.3782 -1.0767 -0.3782c -0.4254,-0.3782 -0.4254,-1.0714 -0.4254 -1.0714ZM 113.1723,265.2836 ZM 114.0231,265.2206 c 0.0000,0.4412 0.2574,0.6303 0.2574 0.6303c 0.2574,0.1891 0.6355,0.1891 0.6355 0.1891c 0.3676,0.0000 0.6985,-0.1733 0.6985 -0.1733c 0.3309,-0.1733 0.6985,-0.5095 0.6985 -0.5095v -1.4181 c -0.6408,0.0840 -1.0819,0.1996 -1.0819 0.1996c -0.4412,0.1155 -0.7090,0.2731 -0.7090 0.2731c -0.2679,0.1576 -0.3834,0.3624 -0.3834 0.3624c -0.1155,0.2048 -0.1155,0.4464 -0.1155 0.4464ZM 117.9412,266.6071 ZM 118.4244,264.0651 c 0.0000,-0.6408 0.1996,-1.1397 0.1996 -1.1397c 0.1996,-0.4989 0.5357,-0.8456 0.5357 -0.8456c 0.3361,-0.3466 0.7826,-0.5252 0.7826 -0.5252c 0.4464,-0.1786 0.9401,-0.1786 0.9401 -0.1786c 0.5042,0.0000 0.8666,0.1838 0.8666 0.1838c 0.3624,0.1838 0.6250,0.4254 0.6250 0.4254l -0.4307,0.5567 c -0.2311,-0.1996 -0.4779,-0.3256 -0.4779 -0.3256c -0.2468,-0.1261 -0.5515,-0.1261 -0.5515 -0.1261c -0.3466,-0.0000 -0.6408,0.1418 -0.6408 0.1418c -0.2941,0.1418 -0.5042,0.4044 -0.5042 0.4044c -0.2101,0.2626 -0.3309,0.6250 -0.3309 0.6250c -0.1208,0.3624 -0.1208,0.8036 -0.1208 0.8036c 0.0000,0.4412 0.1155,0.7983 0.1155 0.7983c 0.1155,0.3571 0.3204,0.6145 0.3204 0.6145c 0.2048,0.2574 0.4989,0.3992 0.4989 0.3992c 0.2941,0.1418 0.6408,0.1418 0.6408 0.1418c 0.3676,0.0000 0.6670,-0.1523 0.6670 -0.1523c 0.2994,-0.1523 0.5305,-0.3624 0.5305 -0.3624l 0.3887,0.5672 c -0.3466,0.3046 -0.7721,0.4832 -0.7721 0.4832c -0.4254,0.1786 -0.8876,0.1786 -0.8876 0.1786c -0.5042,-0.0000 -0.9454,-0.1786 -0.9454 -0.1786c -0.4412,-0.1786 -0.7616,-0.5200 -0.7616 -0.5200c -0.3204,-0.3414 -0.5042,-0.8403 -0.5042 -0.8403c -0.1838,-0.4989 -0.1838,-1.1292 -0.1838 -1.1292Z"/></g><defs></defs><g stroke-linejoin="bevel" stroke-opacity="0.0" fill-opacity="1.0" stroke="rgb(0,0,0)" stroke-width="0.0" fill="rgb(0,0,139)" stroke-linecap="butt" stroke-miterlimit="10.0"><path d="M 144.5336,265.0000 c 0.0000,1.6569 -1.3431,3.0000 -3.0000 3.0000c -1.6569,0.0000 -3.0000,-1.3431 -3.0000 -3.0000c -0.0000,-1.6569 1.3431,-3.0000 3.0000 -3.0000c 1.6569,-0.0000 3.0000,1.3431 3.0000 3.0000Z"/></g><defs></defs><g stroke-linejoin="bevel" stroke-opacity="0.0" fill-opacity="0.0" stroke="rgb(0,0,0)" stroke-width="0.0" fill="rgb(0,0,0)" stroke-linecap="butt" stroke-miterlimit="10.0"><path d="M 144.5336,265.0000 c 0.0000,1.6569 -1.3431,3.0000 -3.0000 3.0000c -1.6569,0.0000 -3.0000,-1.3431 -3.0000 -3.0000c -0.0000,-1.6569 1.3431,-3.0000 3.0000 -3.0000c 1.6569,-0.0000 3.0000,1.3431 3.0000 3.0000"/></g><defs></defs><g stroke-linejoin="bevel" stroke-opacity="0.0" fill-opacity="1.0" stroke="rgb(0,0,0)" stroke-width="0.0" fill="rgb(0,0,139)" stroke-linecap="butt" stroke-miterlimit="10.0"><path d="M 154.5336,265.0000 c 0.0000,1.6569 -1.3431,3.0000 -3.0000 3.0000c -1.6569,0.0000 -3.0000,-1.3431 -3.0000 -3.0000c -0.0000,-1.6569 1.3431,-3.0000 3.0000 -3.0000c 1.6569,-0.0000 3.0000,1.3431 3.0000 3.0000Z"/></g><defs></defs><g stroke-linejoin="bevel" stroke-opacity="0.0" fill-opacity="0.0" stroke="rgb(0,0,0)" stroke-width="0.0" fill="rgb(0,0,0)" stroke-linecap="butt" stroke-miterlimit="10.0"><path d="M 154.5336,265.0000 c 0.0000,1.6569 -1.3431,3.0000 -3.0000 3.0000c -1.6569,0.0000 -3.0000,-1.3431 -3.0000 -3.0000c -0.0000,-1.6569 1.3431,-3.0000 3.0000 -3.0000c 1.6569,-0.0000 3.0000,1.3431 3.0000 3.0000"/></g><defs></defs><g stroke-linejoin="bevel" stroke-opacity="0.0" fill-opacity="1.0" stroke="rgb(0,0,0)" stroke-width="0.0" fill="rgb(0,0,139)" stroke-linecap="butt" stroke-miterlimit="10.0"><path d="M 164.5336,265.0000 c 0.0000,1.6569 -1.3431,3.0000 -3.0000 3.0000c -1.6569,0.0000 -3.0000,-1.3431 -3.0000 -3.0000c -0.0000,-1.6569 1.3431,-3.0000 3.0000 -3.0000c 1.6569,-0.0000 3.0000,1.3431 3.0000 3.0000Z"/></g><defs></defs><g stroke-linejoin="bevel" stroke-opacity="0.0" fill-opacity="0.0" stroke="rgb(0,0,0)" stroke-width="0.0" fill="rgb(0,0,0)" stroke-linecap="butt" stroke-miterlimit="10.0"><path d="M 164.5336,265.0000 c 0.0000,1.6569 -1.3431,3.0000 -3.0000 3.0000c -1.6569,0.0000 -3.0000,-1.3431 -3.0000 -3.0000c -0.0000,-1.6569 1.3431,-3.0000 3.0000 -3.0000c 1.6569,-0.0000 3.0000,1.3431 3.0000 3.0000"/></g><defs></defs><g stroke-linejoin="bevel" stroke-opacity="0.0" fill-opacity="1.0" stroke="rgb(0,0,0)" stroke-width="0.0" fill="rgb(0,0,0)" stroke-linecap="butt" stroke-miterlimit="10.0"><path d="M 166.6071,266.6071 ZM 167.5525,259.7164 h 3.9706 v 0.7353 h -3.0987 v 2.3319 h 2.6261 v 0.7353 h -2.6261 v 3.0882 h -0.8718 v -6.8908 ZM 171.6282,266.6071 ZM 172.4160,261.5021 h 0.8718 v 3.1197 c 0.0000,0.7248 0.2258,1.0452 0.2258 1.0452c 0.2258,0.3204 0.7300,0.3204 0.7300 0.3204c 0.3992,0.0000 0.7038,-0.2048 0.7038 -0.2048c 0.3046,-0.2048 0.6723,-0.6565 0.6723 -0.6565v -3.6239 h 0.8613 v 5.1050 h -0.7143 l -0.0735,-0.7983 h -0.0315 c -0.3571,0.4202 -0.7511,0.6723 -0.7511 0.6723c -0.3939,0.2521 -0.9296,0.2521 -0.9296 0.2521c -0.8193,-0.0000 -1.1922,-0.5042 -1.1922 -0.5042c -0.3729,-0.5042 -0.3729,-1.4916 -0.3729 -1.4916v -3.2353 ZM 177.3424,266.6071 ZM 178.2038,261.5021 h 0.7143 l 0.0735,0.7353 h 0.0315 c 0.3676,-0.3676 0.7721,-0.6145 0.7721 -0.6145c 0.4044,-0.2468 0.9401,-0.2468 0.9401 -0.2468c 0.8088,0.0000 1.1817,0.5042 1.1817 0.5042c 0.3729,0.5042 0.3729,1.4916 0.3729 1.4916v 3.2353 h -0.8613 v -3.1197 c 0.0000,-0.7248 -0.2311,-1.0452 -0.2311 -1.0452c -0.2311,-0.3204 -0.7353,-0.3204 -0.7353 -0.3204c -0.3992,-0.0000 -0.7038,0.1996 -0.7038 0.1996c -0.3046,0.1996 -0.6933,0.5882 -0.6933 0.5882v 3.6975 h -0.8613 v -5.1050 Z"/></g><defs></defs><g stroke-linejoin="bevel" stroke-opacity="1.0" fill-opacity="0.0" stroke="rgb(255,69,0)" stroke-width="0.9999999999999997" fill="rgb(0,0,0)" stroke-linecap="butt" stroke-miterlimit="10.0"><path d="M 203.4659,267.1213 l -4.2426,-4.2426 M 203.4659,262.8787 l -4.2426,4.2426 "/></g><defs></defs><g stroke-linejoin="bevel" stroke-opacity="1.0" fill-opacity="0.0" stroke="rgb(255,69,0)" stroke-width="0.9999999999999997" fill="rgb(0,0,0)" stroke-linecap="butt" stroke-miterlimit="10.0"><path d="M 213.4659,267.1213 l -4.2426,-4.2426 M 213.4659,262.8787 l -4.2426,4.2426 "/></g><defs></defs><g stroke-linejoin="bevel" stroke-opacity="1.0" fill-opacity="0.0" stroke="rgb(255,69,0)" stroke-width="0.9999999999999997" fill="rgb(0,0,0)" stroke-linecap="butt" stroke-miterlimit="10.0"><path d="M 223.4659,267.1213 l -4.2426,-4.2426 M 223.4659,262.8787 l -4.2426,4.2426 "/></g><defs></defs><g stroke-linejoin="bevel" stroke-opacity="0.0" fill-opacity="1.0" stroke="rgb(0,0,0)" stroke-width="0.0" fill="rgb(0,0,0)" stroke-linecap="butt" stroke-miterlimit="10.0"><path d="M 226.4181,266.6071 ZM 227.3634,259.7164 h 2.1113 c 0.5672,0.0000 1.0399,0.1050 1.0399 0.1050c 0.4727,0.1050 0.8036,0.3414 0.8036 0.3414c 0.3309,0.2363 0.5147,0.6250 0.5147 0.6250c 0.1838,0.3887 0.1838,0.9559 0.1838 0.9559c 0.0000,0.5462 -0.1838,0.9454 -0.1838 0.9454c -0.1838,0.3992 -0.5200,0.6618 -0.5200 0.6618c -0.3361,0.2626 -0.8036,0.3939 -0.8036 0.3939c -0.4674,0.1313 -1.0347,0.1313 -1.0347 0.1313h -1.2395 v 2.7311 h -0.8718 v -6.8908 ZM 227.3634,259.7164 ZM 229.3697,263.1618 c 0.9034,0.0000 1.3393,-0.3414 1.3393 -0.3414c 0.4359,-0.3414 0.4359,-1.0767 0.4359 -1.0767c 0.0000,-0.7458 -0.4412,-1.0347 -0.4412 -1.0347c -0.4412,-0.2889 -1.3340,-0.2889 -1.3340 -0.2889h -1.1345 v 2.7416 h 1.1345 ZM 232.2164,266.6071 ZM 232.6996,264.0651 c 0.0000,-0.6408 0.1943,-1.1397 0.1943 -1.1397c 0.1943,-0.4989 0.5200,-0.8456 0.5200 -0.8456c 0.3256,-0.3466 0.7511,-0.5252 0.7511 -0.5252c 0.4254,-0.1786 0.8981,-0.1786 0.8981 -0.1786c 0.4727,0.0000 0.8981,0.1786 0.8981 0.1786c 0.4254,0.1786 0.7511,0.5252 0.7511 0.5252c 0.3256,0.3466 0.5200,0.8456 0.5200 0.8456c 0.1943,0.4989 0.1943,1.1397 0.1943 1.1397c 0.0000,0.6303 -0.1943,1.1292 -0.1943 1.1292c -0.1943,0.4989 -0.5200,0.8403 -0.5200 0.8403c -0.3256,0.3414 -0.7511,0.5200 -0.7511 0.5200c -0.4254,0.1786 -0.8981,0.1786 -0.8981 0.1786c -0.4727,-0.0000 -0.8981,-0.1786 -0.8981 -0.1786c -0.4254,-0.1786 -0.7511,-0.5200 -0.7511 -0.5200c -0.3256,-0.3414 -0.5200,-0.8403 -0.5200 -0.8403c -0.1943,-0.4989 -0.1943,-1.1292 -0.1943 -1.1292ZM 232.6996,264.0651 ZM 233.5924,264.0651 c 0.0000,0.4412 0.1050,0.7983 0.1050 0.7983c 0.1050,0.3571 0.2994,0.6145 0.2994 0.6145c 0.1943,0.2574 0.4674,0.3992 0.4674 0.3992c 0.2731,0.1418 0.5987,0.1418 0.5987 0.1418c 0.3256,0.0000 0.5987,-0.1418 0.5987 -0.1418c 0.2731,-0.1418 0.4674,-0.3992 0.4674 -0.3992c 0.1943,-0.2574 0.2994,-0.6145 0.2994 -0.6145c 0.1050,-0.3571 0.1050,-0.7983 0.1050 -0.7983c 0.0000,-0.4412 -0.1050,-0.8036 -0.1050 -0.8036c -0.1050,-0.3624 -0.2994,-0.6250 -0.2994 -0.6250c -0.1943,-0.2626 -0.4674,-0.4044 -0.4674 -0.4044c -0.2731,-0.1418 -0.5987,-0.1418 -0.5987 -0.1418c -0.3256,-0.0000 -0.5987,0.1418 -0.5987 0.1418c -0.2731,0.1418 -0.4674,0.4044 -0.4674 0.4044c -0.1943,0.2626 -0.2994,0.6250 -0.2994 0.6250c -0.1050,0.3624 -0.1050,0.8036 -0.1050 0.8036ZM 237.9097,266.6071 ZM 238.7710,259.1282 h 0.8613 v 6.5126 c 0.0000,0.2101 0.0735,0.2941 0.0735 0.2941c 0.0735,0.0840 0.1681,0.0840 0.1681 0.0840h 0.0788 c 0.0000,0.0000 0.1103,-0.0210 0.1103 -0.0210l 0.1155,0.6513 c -0.0840,0.0420 -0.1996,0.0630 -0.1996 0.0630c -0.1155,0.0210 -0.2941,0.0210 -0.2941 0.0210c -0.4937,-0.0000 -0.7038,-0.2941 -0.7038 -0.2941c -0.2101,-0.2941 -0.2101,-0.8613 -0.2101 -0.8613v -6.4496 ZM 240.5882,266.6071 ZM 241.1029,268.0147 l 0.1891,0.0473 c 0.0000,0.0000 0.1996,0.0263 0.1996 0.0263c 0.4412,0.0000 0.7195,-0.3099 0.7195 -0.3099c 0.2784,-0.3099 0.4359,-0.7826 0.4359 -0.7826l 0.1155,-0.3782 l -2.0483,-5.1155 h 0.8929 l 1.0399,2.8256 c 0.1155,0.3361 0.2468,0.7090 0.2468 0.7090c 0.1313,0.3729 0.2468,0.7300 0.2468 0.7300h 0.0420 c 0.1155,-0.3466 0.2206,-0.7248 0.2206 -0.7248c 0.1050,-0.3782 0.2101,-0.7143 0.2101 -0.7143l 0.9139,-2.8256 h 0.8403 l -1.9223,5.5252 c -0.1366,0.3782 -0.3046,0.7038 -0.3046 0.7038c -0.1681,0.3256 -0.3992,0.5620 -0.3992 0.5620c -0.2311,0.2363 -0.5252,0.3729 -0.5252 0.3729c -0.2941,0.1366 -0.6828,0.1366 -0.6828 0.1366c -0.1786,-0.0000 -0.3256,-0.0263 -0.3256 -0.0263c -0.1471,-0.0263 -0.2731,-0.0788 -0.2731 -0.0788l 0.1681,-0.6828 h 0.0000 Z"/></g><defs></defs><g stroke-linejoin="bevel" stroke-opacity="1.0" fill-opacity="0.0" stroke="rgb(199,21,133)" stroke-width="0.9999999999999997" fill="rgb(0,0,0)" stroke-linecap="butt" stroke-miterlimit="10.0"><path d="M 13.0000,285.0000 h -6.0000 M 10.0000,282.0000 v 6.0000 M 12.1213,287.1213 l -4.2426,-4.2426 M 12.1213,282.8787 l -4.2426,4.2426 "/></g><defs></defs><g stroke-linejoin="bevel" stroke-opacity="1.0" fill-opacity="0.0" stroke="rgb(199,21,133)" stroke-width="0.9999999999999997" fill="rgb(0,0,0)" stroke-linecap="butt" stroke-miterlimit="10.0"><path d="M 23.0000,285.0000 h -6.0000 M 20.0000,282.0000 v 6.0000 M 22.1213,287.1213 l -4.2426,-4.2426 M 22.1213,282.8787 l -4.2426,4.2426 "/></g><defs></defs><g stroke-linejoin="bevel" stroke-opacity="1.0" fill-opacity="0.0" stroke="rgb(199,21,133)" stroke-width="0.9999999999999997" fill="rgb(0,0,0)" stroke-linecap="butt" stroke-miterlimit="10.0"><path d="M 33.0000,285.0000 h -6.0000 M 30.0000,282.0000 v 6.0000 M 32.1213,287.1213 l -4.2426,-4.2426 M 32.1213,282.8787 l -4.2426,4.2426 "/></g><defs></defs><g stroke-linejoin="bevel" stroke-opacity="0.0" fill-opacity="1.0" stroke="rgb(0,0,0)" stroke-width="0.0" fill="rgb(0,0,0)" stroke-linecap="butt" stroke-miterlimit="10.0"><path d="M 35.0735,286.6071 ZM 36.0189,279.7164 h 2.1113 c 0.5672,0.0000 1.0399,0.1050 1.0399 0.1050c 0.4727,0.1050 0.8036,0.3414 0.8036 0.3414c 0.3309,0.2363 0.5147,0.6250 0.5147 0.6250c 0.1838,0.3887 0.1838,0.9559 0.1838 0.9559c 0.0000,0.5462 -0.1838,0.9454 -0.1838 0.9454c -0.1838,0.3992 -0.5200,0.6618 -0.5200 0.6618c -0.3361,0.2626 -0.8036,0.3939 -0.8036 0.3939c -0.4674,0.1313 -1.0347,0.1313 -1.0347 0.1313h -1.2395 v 2.7311 h -0.8718 v -6.8908 ZM 36.0189,279.7164 ZM 38.0252,283.1618 c 0.9034,0.0000 1.3393,-0.3414 1.3393 -0.3414c 0.4359,-0.3414 0.4359,-1.0767 0.4359 -1.0767c 0.0000,-0.7458 -0.4412,-1.0347 -0.4412 -1.0347c -0.4412,-0.2889 -1.3340,-0.2889 -1.3340 -0.2889h -1.1345 v 2.7416 h 1.1345 ZM 41.1239,286.6071 ZM 42.0693,279.7164 h 2.1113 c 0.5672,0.0000 1.0399,0.1050 1.0399 0.1050c 0.4727,0.1050 0.8036,0.3414 0.8036 0.3414c 0.3309,0.2363 0.5147,0.6250 0.5147 0.6250c 0.1838,0.3887 0.1838,0.9559 0.1838 0.9559c 0.0000,0.5462 -0.1838,0.9454 -0.1838 0.9454c -0.1838,0.3992 -0.5200,0.6618 -0.5200 0.6618c -0.3361,0.2626 -0.8036,0.3939 -0.8036 0.3939c -0.4674,0.1313 -1.0347,0.1313 -1.0347 0.1313h -1.2395 v 2.7311 h -0.8718 v -6.8908 ZM 42.0693,279.7164 ZM 44.0756,283.1618 c 0.9034,0.0000 1.3393,-0.3414 1.3393 -0.3414c 0.4359,-0.3414 0.4359,-1.0767 0.4359 -1.0767c 0.0000,-0.7458 -0.4412,-1.0347 -0.4412 -1.0347c -0.4412,-0.2889 -1.3340,-0.2889 -1.3340 -0.2889h -1.1345 v 2.7416 h 1.1345 ZM 46.9223,286.6071 ZM 47.4055,284.0651 c 0.0000,-0.6408 0.1943,-1.1397 0.1943 -1.1397c 0.1943,-0.4989 0.5200,-0.8456 0.5200 -0.8456c 0.3256,-0.3466 0.7511,-0.5252 0.7511 -0.5252c 0.4254,-0.1786 0.8981,-0.1786 0.8981 -0.1786c 0.4727,0.0000 0.8981,0.1786 0.8981 0.1786c 0.4254,0.1786 0.7511,0.5252 0.7511 0.5252c 0.3256,0.3466 0.5200,0.8456 0.5200 0.8456c 0.1943,0.4989 0.1943,1.1397 0.1943 1.1397c 0.0000,0.6303 -0.1943,1.1292 -0.1943 1.1292c -0.1943,0.4989 -0.5200,0.8403 -0.5200 0.8403c -0.3256,0.3414 -0.7511,0.5200 -0.7511 0.5200c -0.4254,0.1786 -0.8981,0.1786 -0.8981 0.1786c -0.4727,-0.0000 -0.8981,-0.1786 -0.8981 -0.1786c -0.4254,-0.1786 -0.7511,-0.5200 -0.7511 -0.5200c -0.3256,-0.3414 -0.5200,-0.8403 -0.5200 -0.8403c -0.1943,-0.4989 -0.1943,-1.1292 -0.1943 -1.1292ZM 47.4055,284.0651 ZM 48.2983,284.0651 c 0.0000,0.4412 0.1050,0.7983 0.1050 0.7983c 0.1050,0.3571 0.2994,0.6145 0.2994 0.6145c 0.1943,0.2574 0.4674,0.3992 0.4674 0.3992c 0.2731,0.1418 0.5987,0.1418 0.5987 0.1418c 0.3256,0.0000 0.5987,-0.1418 0.5987 -0.1418c 0.2731,-0.1418 0.4674,-0.3992 0.4674 -0.3992c 0.1943,-0.2574 0.2994,-0.6145 0.2994 -0.6145c 0.1050,-0.3571 0.1050,-0.7983 0.1050 -0.7983c 0.0000,-0.4412 -0.1050,-0.8036 -0.1050 -0.8036c -0.1050,-0.3624 -0.2994,-0.6250 -0.2994 -0.6250c -0.1943,-0.2626 -0.4674,-0.4044 -0.4674 -0.4044c -0.2731,-0.1418 -0.5987,-0.1418 -0.5987 -0.1418c -0.3256,-0.0000 -0.5987,0.1418 -0.5987 0.1418c -0.2731,0.1418 -0.4674,0.4044 -0.4674 0.4044c -0.1943,0.2626 -0.2994,0.6250 -0.2994 0.6250c -0.1050,0.3624 -0.1050,0.8036 -0.1050 0.8036ZM 52.6155,286.6071 ZM 53.4769,279.1282 h 0.8613 v 6.5126 c 0.0000,0.2101 0.0735,0.2941 0.0735 0.2941c 0.0735,0.0840 0.1681,0.0840 0.1681 0.0840h 0.0788 c 0.0000,0.0000 0.1103,-0.0210 0.1103 -0.0210l 0.1155,0.6513 c -0.0840,0.0420 -0.1996,0.0630 -0.1996 0.0630c -0.1155,0.0210 -0.2941,0.0210 -0.2941 0.0210c -0.4937,-0.0000 -0.7038,-0.2941 -0.7038 -0.2941c -0.2101,-0.2941 -0.2101,-0.8613 -0.2101 -0.8613v -6.4496 ZM 55.2941,286.6071 ZM 55.8088,288.0147 l 0.1891,0.0473 c 0.0000,0.0000 0.1996,0.0263 0.1996 0.0263c 0.4412,0.0000 0.7195,-0.3099 0.7195 -0.3099c 0.2784,-0.3099 0.4359,-0.7826 0.4359 -0.7826l 0.1155,-0.3782 l -2.0483,-5.1155 h 0.8929 l 1.0399,2.8256 c 0.1155,0.3361 0.2468,0.7090 0.2468 0.7090c 0.1313,0.3729 0.2468,0.7300 0.2468 0.7300h 0.0420 c 0.1155,-0.3466 0.2206,-0.7248 0.2206 -0.7248c 0.1050,-0.3782 0.2101,-0.7143 0.2101 -0.7143l 0.9139,-2.8256 h 0.8403 l -1.9223,5.5252 c -0.1366,0.3782 -0.3046,0.7038 -0.3046 0.7038c -0.1681,0.3256 -0.3992,0.5620 -0.3992 0.5620c -0.2311,0.2363 -0.5252,0.3729 -0.5252 0.3729c -0.2941,0.1366 -0.6828,0.1366 -0.6828 0.1366c -0.1786,-0.0000 -0.3256,-0.0263 -0.3256 -0.0263c -0.1471,-0.0263 -0.2731,-0.0788 -0.2731 -0.0788l 0.1681,-0.6828 h 0.0000 Z"/></g></svg>