<?xml version="1.0" encoding="UTF-8" standalone="no"?>
<!-- Created with Inkscape (http://www.inkscape.org/) -->

<svg
   xmlns:dc="http://purl.org/dc/elements/1.1/"
   xmlns:cc="http://creativecommons.org/ns#"
   xmlns:rdf="http://www.w3.org/1999/02/22-rdf-syntax-ns#"
   xmlns:svg="http://www.w3.org/2000/svg"
   xmlns="http://www.w3.org/2000/svg"
   xmlns:sodipodi="http://sodipodi.sourceforge.net/DTD/sodipodi-0.dtd"
   xmlns:inkscape="http://www.inkscape.org/namespaces/inkscape"
   sodipodi:docname="hat-Poly.svg"
   inkscape:version="0.48.4 r9939"
   version="1.1"
   id="svg2"
   height="1052.3622047"
   width="744.09448819">
  <sodipodi:namedview
     id="base"
     pagecolor="#ffffff"
     bordercolor="#666666"
     borderopacity="1.0"
     inkscape:pageopacity="0.0"
     inkscape:pageshadow="2"
     inkscape:zoom="4.01"
     inkscape:cx="190"
     inkscape:cy="900"
     inkscape:document-units="px"
     inkscape:current-layer="layer1"
     showgrid="true"
     inkscape:window-width="1920"
     inkscape:window-height="1013"
     inkscape:window-x="1678"
     inkscape:window-y="258"
     inkscape:window-maximized="1">
    <inkscape:grid
       id="grid4807"
       type="xygrid"
       snapvisiblegridlinesonly="true"
       enabled="true"
       visible="true"
       empspacing="5" />
  </sodipodi:namedview>
  <defs
     id="defs4" />
  <metadata
     id="metadata7">
    <rdf:RDF>
      <cc:Work
         rdf:about="">
        <dc:format>image/svg+xml</dc:format>
        <dc:type
           rdf:resource="http://purl.org/dc/dcmitype/StillImage" />
        <dc:title />
      </cc:Work>
    </rdf:RDF>
  </metadata>
  <g
     inkscape:label="Layer 1"
     inkscape:groupmode="layer"
     id="layer1">
    <path
       style="color:#000000;fill:none;stroke:#000000;stroke-width:1.43978786;stroke-linecap:round;stroke-linejoin:round;stroke-miterlimit:4;stroke-opacity:1;stroke-dasharray:none;stroke-dashoffset:0;marker:none;visibility:visible;display:inline;overflow:visible;enable-background:accumulate"
       d="M 40,147.36218 139.54624,64.362183 340,232.36218"
       id="path4879"
       inkscape:connector-curvature="0"
       sodipodi:nodetypes="ccc" />
    <rect
       ry="7.0312501e-07"
       y="52.362183"
       x="40"
       height="200"
       width="300"
       id="rect4809"
       style="color:#000000;fill:#2b95ed;stroke:none;stroke-width:1.44000006000000003;stroke-linecap:round;stroke-linejoin:round;stroke-miterlimit:4;stroke-opacity:1;stroke-dasharray:none;stroke-dashoffset:0;marker:none;visibility:visible;display:inline;overflow:visible;enable-background:accumulate;fill-opacity:0.08928572000000000" />
    <path
       id="path4042"
       style="color:#000000;fill:#e9bb18;fill-opacity:0.4375;stroke:#f59e0f;stroke-width:1.44000006;stroke-linecap:round;stroke-linejoin:round;stroke-miterlimit:4;stroke-opacity:0.91517861;stroke-dasharray:none;stroke-dashoffset:0;marker:none;visibility:visible;display:inline;overflow:visible;enable-background:accumulate"
       d="m 340,226.56379 c -0.67114,0.55928 -1.34228,-2.2349 -2.01342,-1.68312 -0.67114,0.55177 -1.34228,-2.22949 -2.01343,-1.68522 -0.67114,0.54427 -1.34228,-2.23366 -2.01342,-1.69689 -0.67114,0.53676 -1.34228,-2.19289 -2.01342,-1.66363 -0.67114,0.52925 -1.34228,-2.18223 -2.01342,-1.66048 -0.67115,0.52175 -1.34229,-2.19551 -2.01343,-1.68127 -0.67114,0.51425 -1.34228,-2.20165 -2.01342,-1.69492 -0.67114,0.50674 -1.34228,-2.18892 -2.01342,-1.68969 -0.67114,0.49922 -1.34228,-2.16629 -2.01343,-1.67457 -0.67114,0.49172 -1.34228,-2.14784 -2.01342,-1.66363 -0.67114,0.48421 -1.34228,-2.1408 -2.01342,-1.66409 -0.67114,0.4767 -1.34228,-2.14299 -2.01342,-1.6738 -0.67114,0.4692 -1.34229,-2.14704 -2.01343,-1.68534 -0.67114,0.46169 -1.34228,-2.14599 -2.01342,-1.69181 -0.67114,0.45419 -1.34228,-2.13692 -2.01342,-1.69024 -0.67114,0.44667 -1.34228,-2.12152 -2.01343,-1.68235 -0.67114,0.43916 -1.34228,-2.10426 -2.01342,-1.6726 -0.67114,0.43166 -1.34228,-2.08981 -2.01342,-1.66566 -0.67114,0.42416 -1.34228,-2.08102 -2.01342,-1.66437 -0.67114,0.41665 -1.34229,-2.078 -2.01343,-1.66886 -0.67114,0.40914 -1.34228,-2.07854 -2.01342,-1.6769 -0.67114,0.40163 -1.34228,-2.07928 -2.01342,-1.68515 -0.67114,0.39412 -1.34228,-2.07711 -2.01342,-1.69049 -0.67115,0.38662 -1.34229,-2.07026 -2.01343,-1.69115 -0.67114,0.37912 -1.34228,-2.0587 -2.01342,-1.68709 -0.67114,0.3716 -1.34228,-2.04402 -2.01342,-1.67993 -0.67114,0.3641 -1.34229,-2.02869 -2.01343,-1.6721 -0.67114,0.35659 -1.34228,-2.01524 -2.01342,-1.66616 -0.67114,0.34908 -1.34228,-2.00547 -2.01342,-1.6639 -0.67114,0.34158 -1.34228,-1.99996 -2.01342,-1.66589 -0.67115,0.33407 -1.34229,-1.99803 -2.01343,-1.67147 -0.67114,0.32656 -1.34228,-1.99799 -2.01342,-1.67894 -0.67114,0.31906 -1.34228,-1.99771 -2.01342,-1.68616 -0.67114,0.31155 -1.34228,-1.99519 -2.01343,-1.69115 -0.67114,0.30404 -1.34228,-1.98909 -2.01342,-1.69255 -0.67114,0.29653 -1.34228,-1.97908 -2.01342,-1.69005 -0.67114,0.28902 -1.34228,-1.96581 -2.01342,-1.68429 -0.67115,0.28151 -1.34229,-1.95078 -2.01343,-1.67677 -0.67114,0.27401 -1.34228,-1.93587 -2.01342,-1.66936 -0.67114,0.2665 -1.34228,-1.92292 -2.01342,-1.66392 -0.67114,0.259 -1.34228,-1.91325 -2.01343,-1.66176 -0.67114,0.25149 -1.34228,-1.90743 -2.01342,-1.66345 -0.67114,0.24398 -1.34228,-1.9051 -2.01342,-1.66863 -0.67114,0.23648 -1.34228,-1.90509 -2.01342,-1.67612 -0.67114,0.22897 -1.34229,-1.90572 -2.01343,-1.68426 -0.67114,0.22146 -1.34228,-1.90516 -2.01342,-1.69121 -0.67114,0.21396 -1.34228,-1.9018 -2.01342,-1.69535 -0.67114,0.20644 -1.34228,-1.89469 -2.01343,-1.69575 -0.67114,0.19894 -1.34228,-1.8836 -2.01342,-1.69217 -0.67114,0.19143 -1.34228,-1.86924 -2.01342,-1.68531 -0.67114,0.18392 -1.34228,-1.85296 -2.01342,-1.67654 -0.67114,0.17642 -1.34229,-1.83656 -2.01343,-1.66765 -0.67114,0.16891 -1.34228,-1.82192 -2.01342,-1.66051 -0.67114,0.1614 -1.34228,-1.81061 -2.01342,-1.65671 -0.67114,0.15389 -1.34228,-1.80354 -2.01343,-1.65715 -0.67114,0.14639 -1.34228,-1.80081 -2.01342,-1.66193 -0.67114,0.13889 -1.34228,-1.80164 -2.01342,-1.67027 -0.67114,0.13138 -1.34228,-1.80452 -2.01342,-1.68066 -0.67114,0.12387 -1.34229,-1.80746 -2.01343,-1.6911 -0.67114,0.11636 -1.34228,-1.80837 -2.01342,-1.69951 -0.67114,0.10885 -1.34228,-1.80544 -2.01342,-1.70409 -0.67114,0.10134 -1.34228,-1.7975 -2.01342,-1.7037 -0.67115,0.0938 -1.34229,-1.7844 -2.01343,-1.6981 -0.67114,0.0863 -1.34228,-1.76684 -2.01342,-1.68804 -0.67114,0.0788 -1.34228,-1.74649 -2.01342,-1.67519 -0.67114,0.0713 -1.34229,-1.72563 -2.01343,-1.66183 -0.67114,0.0638 -1.34228,-1.70683 -2.01342,-1.65053 -0.67114,0.0563 -1.34228,-1.69243 -2.01342,-1.64363 -0.67114,0.0488 -1.34228,-1.68414 -2.01342,-1.64284 -0.67115,0.0413 -1.34229,-1.68265 -2.01343,-1.64885 -0.67114,0.0338 -1.34228,-1.68746 -2.01342,-1.66116 -0.67114,0.0263 -1.34228,-1.69679 -2.01342,-1.67799 -0.67114,0.0188 -1.34228,-1.70793 -2.01343,-1.69663 -0.67114,0.0113 -1.34228,-1.71766 -2.01342,-1.71366 -0.67114,0.004 -1.34228,-1.72169 -2.01342,-1.72569 -0.67114,-0.004 -1.34228,-1.718524 -2.01342,-1.729824 -0.67115,-0.0113 -1.34229,-1.705497 -2.01343,-1.724267 -0.67114,-0.01877 -1.34228,-1.682546 -2.01342,-1.708816 -0.67114,-0.02627 -1.34228,-1.65127 -2.01342,-1.68505 -0.67114,-0.03378 -1.34228,-1.614986 -2.01343,-1.656276 -0.67114,-0.04129 -1.34228,-1.578404 -2.01342,-1.627204 -0.67114,-0.0488 -1.34228,-1.547024 -2.01342,-1.603324 -0.67114,-0.0563 -1.34228,-1.526286 -2.01342,-1.590096 -0.67114,-0.06381 -1.34229,-1.520686 -2.01343,-1.592006 -0.67114,-0.07132 -1.34228,-1.53283 -2.01342,-1.61166 -0.67114,-0.07883 -1.34228,-1.562692 -2.01342,-1.649022 -0.67114,-0.08633 -1.34228,-1.607085 -2.01343,-1.700925 -0.67114,-0.09384 -1.34228,-1.659608 -2.01342,-1.760955 -0.67114,-0.101346 -1.34228,-1.710903 -2.01342,-1.819757 -0.67114,-0.108854 -1.34228,-1.749402 -2.01342,-1.865763 -0.67114,-0.116362 -1.34229,-1.762409 -2.01343,-1.886278 -0.67114,-0.123868 -1.34228,-1.737449 -2.01342,-1.868825 -0.67114,-0.131375 -1.34228,-1.663713 -2.01342,-1.802596 -0.67114,-0.138882 -1.34228,-1.533419 -2.01342,-1.679809 -0.67115,-0.14639 -1.34229,-1.342942 -2.01343,-1.496839 -0.67114,-0.153897 -1.34228,-1.093517 -2.01342,-1.254922 -0.67114,-0.161404 -1.34228,-0.791451 -2.01342,-0.960363 -0.67114,-0.168911 -1.34229,-0.447752 -2.01343,-0.62417 -0.67114,-0.176422 -1.34228,-0.07723 -2.01342,-0.261152 -0.67114,-0.183926 -1.34228,0.302869 -2.01342,0.111436 -0.67114,-0.191432 -1.34228,0.674482 -2.01342,0.475542 -0.67115,-0.19894 -1.34229,1.02051 -2.01343,0.814063 -0.67114,-0.206447 -1.34228,1.326442 -2.01342,1.112488 -0.67114,-0.213954 -1.34228,1.581688 -2.01342,1.360227 -0.67114,-0.221462 -1.34229,1.780426 -2.01343,1.551457 -0.67114,-0.228969 -1.34228,1.921886 -2.01342,1.68541 -0.67114,-0.236475 -1.34228,2.010038 -2.01342,1.766055 -0.67114,-0.243983 -1.34228,2.05274 -2.01342,1.80125 -0.67115,-0.251491 -1.34229,2.060489 -2.01343,1.801491 -0.67114,-0.258997 -1.34228,2.044959 -2.01342,1.778454 -0.67114,-0.266504 -1.34228,2.017523 -2.01342,1.743511 -0.67114,-0.274011 -1.34228,1.987992 -2.01343,1.706473 -0.67114,-0.281519 -1.34228,1.963699 -2.01342,1.674673 -0.67114,-0.289026 -1.34228,1.949057 -2.01342,1.652524 -0.67114,-0.296533 -1.34228,1.945601 -2.01342,1.641561 -0.67115,-0.304041 -1.34229,1.952432 -2.01343,1.640884 -0.67114,-0.311547 -1.34228,1.966979 -2.01342,1.647925 -0.67114,-0.319055 -1.34228,1.985864 -2.01342,1.659302 -0.67114,-0.326561 -1.34228,2.005737 -2.01343,1.671668 -0.671136,-0.334069 -1.342277,2.023897 -2.013418,1.682321 -0.671141,-0.341576 -1.342282,2.038665 -2.013423,1.689582 -0.671141,-0.349083 -1.342282,2.049431 -2.013423,1.692841 -0.671141,-0.356591 -1.342282,2.056499 -2.013423,1.692395 -0.671141,-0.364096 -1.342282,2.060716 -2.013423,1.689116 -0.67114,-0.37161 -1.342281,2.06324 -2.013422,1.68413 -0.671141,-0.37912 -1.342282,2.06522 -2.013423,1.6786 -0.671141,-0.38662 -1.342282,2.06769 -2.013423,1.67356 -0.671141,-0.39413 -1.342282,2.07149 -2.013423,1.66985 -0.671141,-0.40163 -1.342282,2.07733 -2.013423,1.66819 -0.671141,-0.40914 -1.342282,2.08564 -2.013422,1.66899 -0.671141,-0.41664 -1.342282,2.09647 -2.013423,1.67231 -0.671141,-0.42415 -1.342282,2.10916 -2.013423,1.6775 -0.671141,-0.43166 -1.342282,2.12232 -2.013423,1.68316 -0.671141,-0.43917 -1.342282,2.13395 -2.013423,1.68727 -0.671141,-0.44667 -1.342282,2.14205 -2.013423,1.68787 -0.67114,-0.45419 -1.342281,2.1456 -2.013422,1.68391 -0.671141,-0.46169 -1.342282,2.14565 -2.013423,1.67645 -0.671141,-0.4692 -1.342282,2.14552 -2.013423,1.66882 -0.671141,-0.47671 -1.342282,2.14987 -2.013423,1.66566 -0.671141,-0.48422 -1.342282,2.16196 -2.013423,1.67024 -0.671141,-0.49172 -1.342282,2.18047 -2.013422,1.68125 -0.671141,-0.49923 -1.342282,2.198 -2.013423,1.69127 -0.671141,-0.50674 -1.342282,2.20459 -2.013423,1.69035 -0.671141,-0.51424 -1.342282,2.1972 -2.013423,1.67545 -0.671141,-0.52175 -1.342282,2.18938 -2.013423,1.66013 -0.671141,-0.52926 -1.342282,2.20557 -2.013423,1.6688 -0.67114,-0.53676 -1.342281,2.24269 -2.013422,1.69842 -0.671141,-0.54427 -1.342282,2.23261 -2.013423,1.68083 -0.671141,-0.55178 -1.342282,2.24412 -2.013423,1.68483 l 0,7.5 m 0,0 c 0.671141,0.55929 1.342282,-2.23661 2.013423,-1.68483 0.671141,0.55178 1.342282,-2.2251 2.013423,-1.68083 0.671141,0.54427 1.342282,-2.23518 2.013422,-1.69842 0.671141,0.53677 1.342282,-2.19806 2.013423,-1.6688 0.671141,0.52925 1.342282,-2.18188 2.013423,-1.66013 0.671141,0.52174 1.342282,-2.18969 2.013423,-1.67545 0.671141,0.51424 1.342282,-2.19709 2.013423,-1.69035 0.671141,0.50673 1.342282,-2.1905 2.013423,-1.69127 0.67114,0.49922 1.342281,-2.17297 2.013422,-1.68125 0.671141,0.49172 1.342282,-2.15446 2.013423,-1.67024 0.671141,0.48421 1.342282,-2.14237 2.013423,-1.66566 0.671141,0.4767 1.342282,-2.13802 2.013423,-1.66882 0.671141,0.4692 1.342282,-2.13814 2.013423,-1.67645 0.671141,0.46169 1.342282,-2.1381 2.013422,-1.68391 0.671141,0.45418 1.342282,-2.13454 2.013423,-1.68787 0.671141,0.44668 1.342282,-2.12644 2.013423,-1.68727 0.671141,0.43916 1.342282,-2.11482 2.013423,-1.68316 0.671141,0.43166 1.342282,-2.10165 2.013423,-1.6775 0.671141,0.42416 1.342282,-2.08895 2.013423,-1.67231 0.67114,0.41665 1.342281,-2.07813 2.013422,-1.66899 0.671141,0.40914 1.342282,-2.06982 2.013423,-1.66819 0.671141,0.40164 1.342282,-2.06398 2.013423,-1.66985 0.671141,0.39413 1.342282,-2.06018 2.013423,-1.67356 0.671141,0.38662 1.342282,-2.05772 2.013423,-1.6786 0.671141,0.37911 1.342282,-2.05574 2.013422,-1.68413 0.671141,0.3716 1.342282,-2.0532 2.013423,-1.68911 0.671141,0.3641 1.342282,-2.04898 2.013423,-1.69239 0.671141,0.3566 1.342282,-2.04192 2.013423,-1.69284 0.671141,0.34909 1.342282,-2.03115 2.013423,-1.68958 0.671141,0.34158 1.342282,-2.01639 2.013418,-1.68232 0.67115,0.33407 1.34229,-1.998244 2.01343,-1.671683 0.67114,0.326569 1.34228,-1.978357 2.01342,-1.659303 0.67114,0.319055 1.34228,-1.959471 2.01342,-1.647924 0.67114,0.311548 1.34228,-1.944925 2.01343,-1.640885 0.67114,0.304041 1.34228,-1.938093 2.01342,-1.64156 0.67114,0.296533 1.34228,-1.941551 2.01342,-1.652525 0.67114,0.289026 1.34228,-1.956191 2.01342,-1.674672 0.67115,0.281519 1.34229,-1.980484 2.01343,-1.706473 0.67114,0.274012 1.34228,-2.010016 2.01342,-1.743511 0.67114,0.266504 1.34228,-2.037451 2.01342,-1.778454 0.67114,0.258997 1.34228,-2.052982 2.01343,-1.801492 0.67114,0.251491 1.34228,-2.045232 2.01342,-1.801249 0.67114,0.243983 1.34228,-2.002531 2.01342,-1.766055 0.67114,0.236476 1.34228,-1.914379 2.01342,-1.68541 0.67114,0.228969 1.34229,-1.772919 2.01343,-1.551457 0.67114,0.221461 1.34228,-1.574181 2.01342,-1.360227 0.67114,0.213954 1.34228,-1.318935 2.01342,-1.112488 0.67114,0.206447 1.34228,-1.013003 2.01343,-0.814063 0.67114,0.19894 1.34228,-0.666975 2.01342,-0.475542 0.67114,0.191433 1.34228,-0.295362 2.01342,-0.111436 0.67114,0.183922 1.34228,0.08473 2.01342,0.261152 0.67114,0.176418 1.34229,0.455259 2.01343,0.62417 0.67114,0.168912 1.34228,0.798959 2.01342,0.960363 0.67114,0.161404 1.34228,1.101025 2.01342,1.254922 0.67114,0.153897 1.34228,1.350449 2.01343,1.496839 0.67114,0.14639 1.34228,1.540927 2.01342,1.679809 0.67114,0.138883 1.34228,1.671221 2.01342,1.802596 0.67114,0.131375 1.34228,1.744957 2.01342,1.868825 0.67114,0.123869 1.34229,1.769916 2.01343,1.886277 0.67114,0.116362 1.34228,1.75691 2.01342,1.865764 0.67114,0.108854 1.34228,1.718411 2.01342,1.819757 0.67114,0.101347 1.34228,1.667115 2.01342,1.760955 0.67115,0.09384 1.34229,1.614595 2.01343,1.700925 0.67114,0.08633 1.34228,1.570192 2.01342,1.649022 0.67114,0.07883 1.34228,1.540339 2.01342,1.611659 0.67114,0.07132 1.34229,1.528196 2.01343,1.592006 0.67114,0.06381 1.34228,1.533797 2.01342,1.590097 0.67114,0.0563 1.34228,1.554524 2.01342,1.603324 0.67114,0.0488 1.34228,1.585911 2.01342,1.627213 0.67115,0.0413 1.34229,1.622484 2.01343,1.656284 0.67114,0.0338 1.34228,1.65875 2.01342,1.68505 0.67114,0.0263 1.34228,1.69001 2.01342,1.70881 0.67114,0.0188 1.34228,1.71297 2.01343,1.72427 0.67114,0.0113 1.34228,1.72581 2.01342,1.72981 0.67114,0.004 1.34228,1.72969 2.01342,1.72569 0.67114,-0.004 1.34228,1.72496 2.01342,1.71366 0.67115,-0.0113 1.34229,1.71543 2.01343,1.69663 0.67114,-0.0188 1.34228,1.70429 2.01342,1.67799 0.67114,-0.0263 1.34228,1.69496 2.01342,1.66116 0.67114,-0.0338 1.34228,1.69015 2.01343,1.64885 0.67114,-0.0413 1.34228,1.69164 2.01342,1.64284 0.67114,-0.0488 1.34228,1.69993 2.01342,1.64363 0.67114,-0.0563 1.34228,1.71433 2.01342,1.65053 0.67114,-0.0638 1.34229,1.73313 2.01343,1.66183 0.67114,-0.0713 1.34228,1.75399 2.01342,1.67519 0.67114,-0.0788 1.34228,1.77434 2.01342,1.68804 0.67114,-0.0863 1.34228,1.7919 2.01343,1.6981 0.67114,-0.0938 1.34228,1.80504 2.01342,1.7037 0.67114,-0.10135 1.34228,1.81294 2.01342,1.70409 0.67114,-0.10886 1.34228,1.81587 2.01342,1.69951 0.67114,-0.11636 1.34229,1.81497 2.01343,1.6911 0.67114,-0.12386 1.34228,1.81204 2.01342,1.68066 0.67114,-0.13137 1.34228,1.80916 2.01342,1.67027 0.67114,-0.13888 1.34228,1.80832 2.01342,1.66193 0.67115,-0.14639 1.34229,1.81104 2.01343,1.65715 0.67114,-0.1539 1.34228,1.81811 2.01342,1.65671 0.67114,-0.16141 1.34228,1.82942 2.01342,1.66051 0.67114,-0.16891 1.34229,1.84407 2.01343,1.66765 0.67114,-0.17642 1.34228,1.86046 2.01342,1.67653 0.67114,-0.18392 1.34228,1.87675 2.01342,1.68532 0.67114,-0.19143 1.34228,1.89111 2.01342,1.69217 0.67115,-0.19894 1.34229,1.90219 2.01343,1.69575 0.67114,-0.20645 1.34228,1.90931 2.01342,1.69535 0.67114,-0.21395 1.34228,1.91267 2.01342,1.69121 0.67114,-0.22146 1.34229,1.91323 2.01343,1.68426 0.67114,-0.22897 1.34228,1.9126 2.01342,1.67612 0.67114,-0.23647 1.34228,1.91261 2.01342,1.66863 0.67114,-0.24398 1.34228,1.91494 2.01342,1.66345 0.67115,-0.25149 1.34229,1.92076 2.01343,1.66176 0.67114,-0.259 1.34228,1.93042 2.01342,1.66392 0.67114,-0.26651 1.34228,1.94337 2.01342,1.66936 0.67114,-0.27401 1.34228,1.95828 2.01343,1.67677 0.67114,-0.28152 1.34228,1.97331 2.01342,1.68429 0.67114,-0.28903 1.34228,1.98658 2.01342,1.69005 0.67114,-0.29654 1.34228,1.99659 2.01342,1.69255 0.67115,-0.30404 1.34229,2.0027 2.01343,1.69115 0.67114,-0.31155 1.34228,2.00522 2.01342,1.68616 0.67114,-0.31905 1.34228,2.0055 2.01342,1.67894 0.67114,-0.32656 1.34228,2.00554 2.01343,1.67147 0.67114,-0.33407 1.34228,2.00747 2.01342,1.66589 0.67114,-0.34157 1.34228,2.01298 2.01342,1.6639 0.67114,-0.34908 1.34228,2.02275 2.01342,1.66616 0.67114,-0.35659 1.34229,2.0362 2.01343,1.6721 0.67114,-0.36409 1.34228,2.05153 2.01342,1.67993 0.67114,-0.37161 1.34228,2.06621 2.01342,1.68709 0.67114,-0.37911 1.34228,2.07777 2.01343,1.69115 0.67114,-0.38662 1.34228,2.08461 2.01342,1.69049 0.67114,-0.39413 1.34228,2.08678 2.01342,1.68515 0.67114,-0.40164 1.34228,2.08604 2.01342,1.6769 0.67114,-0.40914 1.34229,2.08551 2.01343,1.66886 0.67114,-0.41665 1.34228,2.08853 2.01342,1.66437 0.67114,-0.42415 1.34228,2.09732 2.01342,1.66566 0.67114,-0.43166 1.34228,2.11176 2.01342,1.6726 0.67115,-0.43917 1.34229,2.12902 2.01343,1.68235 0.67114,-0.44668 1.34228,2.14443 2.01342,1.69024 0.67114,-0.45418 1.34228,2.1535 2.01342,1.69181 0.67114,-0.4617 1.34229,2.15454 2.01343,1.68534 0.67114,-0.46919 1.34228,2.1505 2.01342,1.6738 0.67114,-0.47671 1.34228,2.1483 2.01342,1.66409 0.67114,-0.48421 1.34228,2.15535 2.01342,1.66363 0.67115,-0.49172 1.34229,2.17379 2.01343,1.67457 0.67114,-0.49923 1.34228,2.19643 2.01342,1.68969 0.67114,-0.50673 1.34228,2.20917 2.01342,1.69492 0.67114,-0.51424 1.34228,2.20302 2.01343,1.68127 0.67114,-0.52175 1.34228,2.18973 2.01342,1.66048 0.67114,-0.52926 1.34228,2.20039 2.01342,1.66363 0.67114,-0.53677 1.34228,2.24116 2.01342,1.69689 0.67115,-0.54427 1.34229,2.23699 2.01343,1.68522 0.67114,-0.55178 1.34228,2.2424 2.01342,1.68312 l 0,-7.5"
       inkscape:connector-curvature="0" />
  </g>
</svg>
